<svg width="48" height="48" viewBox="0 0 48 48" fill="none" xmlns="http://www.w3.org/2000/svg">
<path fill-rule="evenodd" clip-rule="evenodd" d="M14.9015 3.05093C13.7175 3.20625 12.5217 3.89436 11.8099 4.83019C11.2399 5.57936 11.0259 6.26374 11.0258 7.33782C11.0258 8.17804 11.0504 8.27738 11.4446 9.02427C11.8349 9.76401 12.3284 10.2815 18.6992 16.6337C22.4589 20.3824 25.535 23.4818 25.535 23.5212C25.535 23.5607 22.4228 26.7041 18.619 30.5064C12.31 36.813 11.675 37.4786 11.3851 38.0908C10.5213 39.9139 11.1509 42.0879 12.8712 43.2225C13.7153 43.7792 14.4828 44.0037 15.5301 44C16.4892 43.9965 17.1733 43.8017 17.9709 43.305C18.2999 43.1001 22.2767 39.21 28.2536 33.246L38 23.5212L34.8818 20.4156C18.3449 3.94537 18.2296 3.8329 17.5474 3.5056C17.187 3.3328 16.5856 3.14385 16.2111 3.0858C15.5213 2.97891 15.4627 2.97736 14.9015 3.05093Z" fill="#ED3237"/>
</svg>
