<svg width="229" height="228" viewBox="0 0 229 228" fill="none" xmlns="http://www.w3.org/2000/svg">
<path fill-rule="evenodd" clip-rule="evenodd" d="M65.6768 72.9907C65.4947 65.9532 66.7703 59.2138 71.592 53.7925C82.9021 41.2081 100.838 38.917 116.173 43.9393C118.675 44.7474 120.662 46.0802 122.555 47.2788C125.776 49.3902 128.746 51.3168 133.953 50.3732C171.268 43.5626 175.25 69.6542 177.242 82.2165C177.664 84.9783 178.047 87.0022 178.493 87.9753C179.329 89.5582 180.478 91.2422 181.856 92.9655C202.742 119.75 182.079 158.23 148.154 156.565C147.852 156.537 147.562 156.581 147.416 156.603C144.79 156.93 141.815 159.838 137.911 163.483C129.456 171.393 117.108 183.02 96.7188 180.926C57.4606 176.952 23.2453 134.427 50.2084 97.2911C51.3667 95.6269 52.4745 94.1191 53.655 92.6003C59.8993 83.8382 65.6846 75.9644 65.6768 72.9907Z" fill="#FFEEF5"/>
<path d="M76.3381 92.0952C76.3381 92.0952 75.8393 100.281 65.9986 98.2227C60.8904 97.1542 57.7411 92.072 59.6561 87.7709C61.5712 83.4699 58.2652 81.2608 59.5636 78.0927C62.158 71.7627 67.3071 75.976 71.3579 73.7212C74.8933 70.9649 84.6304 76.4428 81.096 85.6855L76.3381 92.0952Z" fill="#7C3351"/>
<path d="M91.484 90.1017L83.5546 86.2118C84.2148 83.2364 81.2237 81.2819 77.0236 80.532C76.2562 80.371 75.4671 80.6768 75.0057 81.3037C72.5307 84.556 67.7368 84.1749 68.704 86.2528C71.3166 89.3778 71.5811 89.8938 70.6919 91.9768C70.6919 91.9768 71.6485 91.5526 72.6804 92.2297C73.2033 92.6136 72.1636 92.494 72.7911 92.9547C72.7911 92.9547 79.5296 99.9937 80.9582 101.445C89.7696 98.3381 91.484 90.1017 91.484 90.1017Z" fill="#D986A9"/>
<path d="M117.872 54.9443L117.76 54.8833C114.8 54.076 112.866 53.6954 110.629 51.6073L108.97 50.7793C108.408 50.4741 108.105 49.8003 108.395 49.2302C108.688 48.371 109.547 47.5279 111.976 47.8284C113.049 47.9747 113.562 48.1358 114.044 47.8672C114.234 46.8855 114.191 46.1716 113.103 44.7157L109.848 40.2562C109.374 39.6354 108.988 39.1605 109.448 38.5374C109.993 37.8878 111.127 37.8169 111.829 38.2707L113.207 39.0469C112.74 37.848 112.714 37.1568 112.547 36.9207C111.424 33.91 113.949 33.3168 115.559 35.7919C116.836 37.7948 117.391 38.6782 117.612 39.0893C111.379 33.0905 117.553 34.4658 119.299 36.5166C121.046 38.5675 120.904 38.2577 123.297 41.4492C126.819 44.962 130.33 49.342 130.861 49.8488C128.298 53.6219 125.734 57.3951 123.059 61.1073C122.786 60.2319 120.079 57.234 117.872 54.9443Z" fill="#D986A9"/>
<path fill-rule="evenodd" clip-rule="evenodd" d="M113.026 34.3555C112.98 34.3864 112.968 34.4486 112.999 34.4944C113.03 34.5401 113.092 34.5522 113.138 34.5213L113.082 34.4384C113.138 34.5213 113.138 34.5212 113.138 34.5213C113.139 34.5203 113.142 34.5186 113.147 34.5161C113.157 34.5111 113.174 34.5036 113.197 34.4957C113.244 34.48 113.319 34.4626 113.424 34.4613C113.634 34.4586 113.969 34.5202 114.442 34.7981C115.393 35.3559 116.886 36.7763 119.012 40.2402C119.041 40.2873 119.103 40.302 119.15 40.2731C119.197 40.2442 119.212 40.1826 119.183 40.1356C117.051 36.6629 115.537 35.2085 114.543 34.6257C114.045 34.3333 113.675 34.2581 113.422 34.2613C113.295 34.2629 113.2 34.284 113.134 34.3061C113.101 34.3172 113.075 34.3284 113.057 34.3374C113.048 34.3419 113.041 34.3459 113.036 34.349L113.03 34.353L113.027 34.3545L113.026 34.3555C113.025 34.3556 113.026 34.3555 113.082 34.4384L113.026 34.3555ZM113.122 38.9942C113.093 39.0413 113.108 39.1028 113.155 39.1317L113.158 39.1333L113.165 39.138L113.196 39.1568C113.222 39.1734 113.262 39.1979 113.312 39.2295C113.413 39.2926 113.558 39.3842 113.735 39.4979C114.088 39.7251 114.566 40.0402 115.07 40.3917C115.573 40.7434 116.1 41.1307 116.55 41.5025C117.002 41.8762 117.368 42.2278 117.558 42.508C117.588 42.5537 117.651 42.5658 117.696 42.5349C117.742 42.504 117.754 42.4418 117.723 42.396C117.517 42.0902 117.131 41.7231 116.678 41.3484C116.222 40.9718 115.69 40.581 115.184 40.2278C114.678 39.8744 114.197 39.5578 113.843 39.3297C113.666 39.2156 113.52 39.1235 113.418 39.06C113.368 39.0282 113.328 39.0036 113.301 38.9868L113.27 38.9678L113.26 38.9617C113.213 38.9328 113.151 38.9471 113.122 38.9942Z" fill="#63203B"/>
<path d="M72.4798 86.0468C72.0952 86.5692 72.9456 87.274 73.3164 86.661C73.7917 86.1248 72.9413 85.42 72.4798 86.0468Z" fill="#461B2E"/>
<path d="M74.4582 83.7984C74.0736 84.3208 74.924 85.0256 75.2948 84.4126C75.6655 83.7996 74.8289 83.1855 74.4582 83.7984Z" fill="#461B2E"/>
<path d="M75.5883 89.3749L75.7023 87.6884L77.754 87.7462C77.8447 87.7323 77.9355 87.7185 77.9355 87.7185C78.0262 87.7046 78.0124 87.614 77.9985 87.5234C78.0572 85.4744 78.288 85.161 77.8204 85.1396C77.6389 85.1673 77.562 85.2718 77.5759 85.3624L77.4895 87.2302L75.4379 87.1724C75.2564 87.2001 75.1795 87.3045 75.1933 87.3952L75.1208 89.3535C75.1484 89.5348 75.253 89.6116 75.3437 89.5977C75.4345 89.5839 75.5114 89.4794 75.5883 89.3749Z" fill="#461B2E"/>
<g style="mix-blend-mode:multiply" opacity="0.61">
<path fill-rule="evenodd" clip-rule="evenodd" d="M83.5541 86.2118C83.5541 86.2118 82.1604 90.0728 77.5998 92.2207C77.4183 92.2484 77.5506 92.5064 77.6413 92.4926C80.1654 92.5531 85.6211 91.1396 87.2025 88.1164L83.5541 86.2118Z" fill="#D986A9"/>
</g>
<path fill-rule="evenodd" clip-rule="evenodd" d="M69.368 90.6018C67.236 93.0599 70.9929 96.3812 73.1248 93.923C75.3475 91.451 71.5907 88.1297 69.368 90.6018Z" fill="#D986A9"/>
<path d="M92.3437 198.557C92.3437 198.557 95.9562 200.324 93.4397 203.304C93.4397 203.304 91.9862 204.732 89.7547 203.496C87.5233 202.26 92.3437 198.557 92.3437 198.557Z" fill="#D986A9"/>
<path d="M93.0992 197.421C93.0992 197.421 96.7117 199.188 94.1952 202.169C94.1952 202.169 92.7416 203.596 90.5102 202.36C88.188 201.138 93.0992 197.421 93.0992 197.421Z" fill="#D986A9"/>
<path d="M94.7281 195.317C94.7281 195.317 97.2993 198.17 94.7828 201.151C94.7828 201.151 94.3706 201.492 92.1391 200.256C89.8169 199.034 94.7281 195.317 94.7281 195.317Z" fill="#D986A9"/>
<path d="M78.2658 120.309C76.3231 122.181 78.8899 123.181 78.8899 123.181L73.5823 135.86C73.5823 135.86 71.6248 152.586 53.7007 144.658C51.9014 143.82 46.2395 141.053 40.2074 142.901C35.8578 144.214 29.6833 153.039 27.9835 155.894C27.4728 156.807 26.2223 157.74 25.2518 158.073C24.6304 158.261 24.1274 158.616 23.7567 159.229C23.1691 160.246 24.0886 161.404 24.8207 161.941C24.5268 162.449 24.0299 163.453 24.9988 164.325C25.5493 164.89 26.3936 164.946 26.9242 164.773C26.9242 164.773 26.2442 167.009 29.1817 167.395C29.1817 167.395 28.3832 169.465 30.8238 170.854C33.6688 172.46 35.704 169.367 37.4591 166.874C37.6898 166.561 41.9841 164.885 43.7547 161.277C44.0485 160.768 44.6837 160.671 45.1159 161.069C47.235 162.786 51.7316 166.087 53.8446 167.155C61.9831 171.199 71.7229 172.958 80.956 167.746C95.2247 159.634 95.7284 153.808 98.0685 147.238C98.0685 147.238 95.6933 138.977 98.3154 140.338L78.2658 120.309Z" fill="#D986A9"/>
<path d="M111.997 133.243C115.908 126.619 116.426 125.148 123.727 124.312L141.581 122.051L151.447 123.42C155.705 123.327 158.423 125.323 161.874 127.856L154.92 125.486L161.874 127.856C162.537 127.94 163.088 128.505 163.185 129.14C163.323 130.046 162.708 130.882 161.696 130.943L160.76 130.901C162.323 131.404 164.018 132.165 164.434 133.678C164.677 134.661 163.908 135.706 162.882 135.677L151.886 134.202C151.223 134.118 150.88 134.912 151.326 135.401L153.556 137.842C155.925 139.984 153.927 141.495 150.42 139.804C145.085 137.095 143.711 136.006 139.51 136.462L116.565 135.791C116.565 135.791 110.41 135.618 109.613 136.481" fill="#D986A9"/>
<path fill-rule="evenodd" clip-rule="evenodd" d="M155.27 129.314C155.281 129.239 155.349 129.187 155.424 129.197L155.406 129.333L155.388 129.468C155.313 129.458 155.26 129.389 155.27 129.314ZM155.406 129.333L155.388 129.468L155.39 129.469L155.397 129.47L155.426 129.474C155.451 129.477 155.489 129.483 155.537 129.49C155.635 129.505 155.776 129.527 155.953 129.557C156.307 129.617 156.801 129.707 157.361 129.831C158.484 130.079 159.864 130.457 160.918 130.978C160.986 131.012 161.068 130.984 161.102 130.916C161.135 130.849 161.108 130.767 161.04 130.733C159.955 130.196 158.548 129.813 157.42 129.564C156.854 129.439 156.356 129.347 155.999 129.287C155.82 129.257 155.677 129.234 155.578 129.219C155.529 129.212 155.49 129.206 155.464 129.203L155.435 129.198L155.427 129.197L155.424 129.197C155.424 129.197 155.424 129.197 155.406 129.333Z" fill="#63203B"/>
<path fill-rule="evenodd" clip-rule="evenodd" d="M155.378 125.097C155.389 125.023 155.459 124.971 155.534 124.982C156.934 125.193 158.465 125.851 159.64 126.45C160.228 126.751 160.73 127.039 161.085 127.251C161.263 127.357 161.403 127.445 161.5 127.506C161.548 127.537 161.586 127.561 161.611 127.577L161.64 127.596L161.647 127.601L161.649 127.602L161.65 127.602C161.65 127.602 161.65 127.602 161.581 127.706L161.65 127.602C161.713 127.644 161.73 127.729 161.688 127.792C161.647 127.855 161.562 127.872 161.499 127.831L161.497 127.829L161.49 127.825L161.462 127.807C161.438 127.791 161.401 127.767 161.354 127.737C161.259 127.677 161.12 127.591 160.944 127.486C160.594 127.276 160.097 126.991 159.515 126.694C158.348 126.098 156.849 125.457 155.493 125.253C155.418 125.242 155.367 125.172 155.378 125.097Z" fill="#63203B"/>
<path d="M33.5151 167.476C33.5151 167.476 32.3925 166.813 31.0158 168.136C30.1283 169.013 31.1879 169.871 31.9968 170.304C32.4013 170.521 33.2041 170.305 33.5887 169.783C34.2316 169.129 34.7147 168.035 33.5151 167.476Z" fill="#AA5B7F"/>
<path d="M26.8575 163.114C26.8575 163.114 26.5515 162.326 25.6441 162.464C24.9181 162.575 25.1472 163.468 25.4117 163.984C25.5439 164.242 26.0253 164.354 26.3882 164.298C26.9958 164.02 27.045 163.734 26.8575 163.114Z" fill="#AA5B7F"/>
<path d="M29.3179 165.242C29.3179 165.242 28.6767 164.691 28.006 165.164C27.3354 165.637 27.8998 166.293 28.3181 166.6C28.5411 166.844 28.9948 166.775 29.3162 166.448C29.8054 166.002 29.6593 165.654 29.3179 165.242Z" fill="#AA5B7F"/>
<path d="M25.7511 160.13C25.7511 160.13 25.7174 159.3 24.6285 159.467C23.9025 159.577 24.1177 160.379 24.3684 160.805C24.5006 161.063 24.8912 161.188 25.2404 161.042C25.8756 160.945 25.8064 160.492 25.7511 160.13Z" fill="#AA5B7F"/>
<path fill-rule="evenodd" clip-rule="evenodd" d="M32.0337 165.479C32.0887 165.513 32.1054 165.585 32.0711 165.64C31.606 166.386 30.8607 166.854 30.2412 167.136C29.9304 167.277 29.6482 167.372 29.4435 167.432C29.3411 167.463 29.2579 167.484 29.2 167.498C29.171 167.505 29.1483 167.51 29.1327 167.513L29.1147 167.517L29.1099 167.518L29.1085 167.518L29.1081 167.518C29.1081 167.518 29.1079 167.518 29.0853 167.403L29.1081 167.518C29.0445 167.531 28.9826 167.489 28.9702 167.426C28.9577 167.362 28.9991 167.301 29.0627 167.288C29.0627 167.288 29.0627 167.288 29.0627 167.288L29.0636 167.288L29.0674 167.287L29.083 167.284C29.097 167.281 29.118 167.276 29.1453 167.27C29.1997 167.257 29.2791 167.236 29.3773 167.207C29.5739 167.15 29.8454 167.058 30.1442 166.922C30.7441 166.649 31.4419 166.206 31.8721 165.516C31.9064 165.461 31.9787 165.444 32.0337 165.479ZM29.0627 167.288C29.0627 167.288 29.0627 167.288 29.0627 167.288V167.288Z" fill="#461B2E"/>
<path fill-rule="evenodd" clip-rule="evenodd" d="M29.5775 162.794C29.6327 162.828 29.6499 162.9 29.616 162.955C29.1917 163.645 28.5241 164.127 27.9703 164.435C27.6924 164.589 27.4406 164.701 27.2581 164.775C27.1668 164.812 27.0926 164.839 27.041 164.857C27.0152 164.866 26.995 164.873 26.9811 164.878L26.9651 164.883L26.9608 164.884L26.9596 164.885L26.9591 164.885C26.959 164.885 26.959 164.885 26.9243 164.773L26.9591 164.885C26.8972 164.904 26.8314 164.869 26.8122 164.807C26.7931 164.746 26.8277 164.68 26.8896 164.661M26.8896 164.661L26.8904 164.66L26.8938 164.659L26.9077 164.655C26.9202 164.651 26.9389 164.644 26.9632 164.636C27.0118 164.619 27.0826 164.593 27.1703 164.557C27.3458 164.487 27.5885 164.378 27.8563 164.23C28.3938 163.931 29.022 163.473 29.4161 162.832C29.4501 162.777 29.5223 162.76 29.5775 162.794" fill="#461B2E"/>
<path fill-rule="evenodd" clip-rule="evenodd" d="M28.0031 160.27C28.0493 160.316 28.05 160.39 28.0046 160.436C27.3458 161.107 26.5538 161.511 25.9299 161.748C25.6174 161.866 25.3457 161.943 25.1516 161.99C25.0546 162.014 24.9768 162.03 24.923 162.041C24.8961 162.046 24.8752 162.05 24.8608 162.052L24.8442 162.055L24.8397 162.056L24.8385 162.056L24.8379 162.056C24.8379 162.056 24.8379 162.056 24.8202 161.94L24.8379 162.056C24.7739 162.066 24.714 162.022 24.7042 161.958C24.6944 161.894 24.7384 161.834 24.8024 161.824M24.8024 161.824L24.8032 161.824L24.8066 161.823L24.8209 161.821C24.8337 161.819 24.853 161.815 24.8783 161.81C24.9287 161.801 25.0028 161.785 25.096 161.762C25.2824 161.717 25.5448 161.643 25.8467 161.528C26.4517 161.299 27.2101 160.91 27.8372 160.272C27.8826 160.226 27.9569 160.225 28.0031 160.27" fill="#461B2E"/>
<path d="M74.0894 133.093L74.9439 125.915C74.9439 125.915 72.0833 125.425 73.5939 123.154C75.1044 120.884 76.0533 121.017 76.0962 110.346C76.1529 99.7667 78.4231 98.2147 78.4231 98.2147C80.0538 94.9057 95.4496 89.3105 95.4496 89.3105C124.32 89.2624 132.667 79.4575 125.741 71.7979C123.079 68.9587 125.831 62.0475 127.404 49.8453C129.282 54.8444 144.723 56.846 139.183 80.7812C134.106 102.884 114.607 108.363 107.77 107.367L120.762 133.481C130.013 145.422 144.171 161.529 138.376 173.448C131.28 187.792 113.206 190.534 105.294 189.794C101.058 189.421 91.5098 196.736 91.8461 200.765C92.0873 202.954 91.6042 204.047 90.8014 204.263C88.7696 204.944 86.5398 202.502 86.9494 199.101C87.1187 197.777 86.9113 196.418 86.6131 195.073C85.6969 191.503 86.4373 186.012 86.6593 181.991C86.8813 177.969 85.6541 177.229 85.7144 173.975C85.9104 168.566 93.4343 167.975 96.8869 169.302C99.6351 170.274 102.608 170.284 105.31 169.129C108.892 167.655 111.966 165.888 113.914 164.663C115.011 163.94 115.167 162.525 114.275 161.548C110.393 157.411 100.679 147.303 97.9586 146.513C95.0704 145.841 95.4964 145.59 95.4964 145.59L74.0894 133.093Z" fill="#D986A9"/>
<path d="M113.012 129.563C113.813 130.554 123.177 142.014 143.378 138.096C145.089 137.743 145.418 136.858 145.14 136.251C143.15 131.733 145.253 124.828 144.692 121.761C144.526 120.673 143.571 119.892 142.455 119.877C133.258 119.24 120.659 115.785 112.115 107.26C112.101 107.169 112.011 107.183 111.92 107.197L96.7795 99.8635C96.2843 99.6609 95.7044 100.12 95.9689 100.636L105.895 123.695C105.909 123.785 106.014 123.862 106.118 123.939C106.746 124.4 109.98 127.337 112.985 129.382C112.908 129.486 112.998 129.473 113.012 129.563Z" fill="#E5CDD7"/>
<path d="M113.012 129.563C113.813 130.554 123.177 142.014 143.378 138.096C145.089 137.743 145.418 136.858 145.14 136.251C143.15 131.733 145.253 124.828 144.692 121.761C144.526 120.673 143.571 119.892 142.455 119.877C133.258 119.24 120.659 115.785 112.115 107.26C112.101 107.169 112.011 107.183 111.92 107.197L96.7795 99.8635C96.2843 99.6609 95.7044 100.12 95.9689 100.636L105.895 123.695C105.909 123.785 106.014 123.862 106.118 123.939C106.746 124.4 109.98 127.337 112.985 129.382C112.908 129.486 112.998 129.473 113.012 129.563Z" fill="#E2AFC0"/>
<path d="M116.003 57.891C118.571 63.1556 125.52 74.6135 116.054 81.3438C111.597 84.9914 103.169 83.3104 96.403 85.8267C93.3238 86.9457 89.7279 88.3291 88.2018 91.7148C86.8157 94.801 83.5931 98.6311 78.5271 98.2915C78.5271 98.2915 75.1342 99.1803 75.6486 105.593C75.7654 106.966 75.7421 108.639 76.0464 110.632C75.9897 121.212 74.8984 120.369 73.2971 122.654C71.7866 124.924 74.894 126.201 74.894 126.201L74.5337 129.316C83.0999 131.904 107.9 133.775 116.74 129.644C117.955 129.088 118.732 127.485 118.434 126.14C117.338 121.392 116.482 114.568 114.165 109.729C114.033 109.471 114.173 109.172 114.445 109.13C116.917 108.289 131.099 102.045 137.203 93.9728C146.048 81.959 149.752 63.0331 131.712 48.2606C130.339 47.172 128.378 47.1003 126.946 48.0607L116.971 54.4977C115.888 55.3121 115.447 56.6777 116.003 57.891Z" fill="#FFCCDD"/>
<path d="M116.303 127.392C117.037 126.724 117.582 126.641 118.106 125.819C118.721 124.983 119.345 123.59 120.287 123.075C121.412 122.533 120.514 120.908 119.466 121.346C117.49 122.389 116.615 124.563 115.056 125.914C114.155 126.7 115.402 128.179 116.303 127.392Z" fill="#FF6C9C"/>
<path d="M97.3521 91.4313C99.2611 88.7289 99.3569 85.0979 100.562 82.0394C100.954 80.9595 99.1822 80.3026 98.7129 81.487C98.1037 82.9709 97.7944 84.5945 97.3805 86.1414C97.0435 87.5837 96.5527 89.235 95.6297 90.4887C95.119 91.4012 96.6599 92.3715 97.3521 91.4313Z" fill="#FF6C9C"/>
<path d="M87.1521 103.095C88.3058 101.528 89.5779 100.129 91.0868 99.0637C91.925 98.4721 92.7771 97.9712 93.7476 97.6376C94.7043 97.2134 95.7163 97.1517 96.7775 96.8042C97.9157 96.3523 97.1085 94.7137 95.9565 95.075C94.9998 95.4992 93.8063 95.5886 92.8497 96.0128C91.7115 96.4647 90.7687 96.9795 89.8535 97.6755C88.0862 98.8726 86.751 100.467 85.5066 102.048C84.919 103.065 86.3692 104.049 87.1521 103.095Z" fill="#FF6C9C"/>
<path d="M74.9249 103.292C76.535 104.715 78.6696 105.317 80.7705 105.089C81.2242 105.02 81.6088 104.497 81.5396 104.044C81.4566 103.501 80.9476 103.207 80.4939 103.277C79.7541 103.297 78.819 103.254 78.0239 102.912C77.2427 102.66 76.5245 102.213 75.9878 101.739C75.5695 101.432 74.9481 101.619 74.7312 102.023C74.3329 102.455 74.5066 102.985 74.9249 103.292Z" fill="#FF6C9C"/>
<path d="M135.583 59.6321C137.06 56.5321 136.925 53.2145 136.713 50.0013C136.638 48.9 134.795 48.9957 134.78 50.1109C135.041 53.0384 135.329 56.1471 133.874 58.7802C133.314 59.9784 135.009 60.7397 135.583 59.6321Z" fill="#FF6C9C"/>
<path d="M130.983 70.2564C132.332 68.7523 133.786 67.325 134.94 65.758C135.618 64.7271 134.168 63.743 133.385 64.6971C132.217 66.1735 130.931 67.4825 129.736 68.7776C129.429 69.1955 129.316 69.6763 129.658 70.0878C129.908 70.5132 130.676 70.6743 130.983 70.2564Z" fill="#FF6C9C"/>
<path d="M107.913 89.4483C109.232 88.9687 110.872 89.3676 112.365 89.4178C113.858 89.4681 115.561 89.6719 117.007 88.8021C118.634 87.9047 119.865 86.2332 120.628 84.5403C121.251 83.147 121.623 81.3283 122.978 80.4724C123.816 79.8808 124.996 79.7008 125.939 79.186C126.365 78.9355 126.45 78.2734 126.122 77.9525C125.871 77.5271 125.313 77.5196 124.887 77.7701C124.978 77.7562 124.796 77.7839 124.706 77.7978C124.615 77.8116 124.524 77.8255 124.447 77.9299C124.266 77.9576 124.007 78.0898 123.84 78.2081C123.4 78.368 122.778 78.5556 122.366 78.8967C120.997 79.662 120.27 80.9785 119.633 82.2812C119.304 83.166 118.974 84.0508 118.45 84.8727C118.016 85.6808 117.373 86.3353 116.626 86.913C115.48 87.9225 114.063 87.7677 112.556 87.6268C110.777 87.5275 108.969 87.2469 107.273 87.6913C106.121 88.0526 106.761 89.8095 107.913 89.4483Z" fill="#FF6C9C"/>
<path d="M97.8352 104.34C100.307 103.5 103.043 103.175 105.522 101.776C108.016 100.468 109.826 98.3376 111.323 95.9763C111.91 94.9594 110.369 93.9891 109.768 94.9154C108.425 97.0677 106.782 99.0803 104.457 100.27C102.222 101.445 99.7718 101.819 97.4679 102.542C96.9373 102.716 96.6296 103.134 96.6988 103.587C96.7679 104.04 97.3046 104.514 97.8352 104.34Z" fill="#FF6C9C"/>
<path d="M85.7161 113.144C87.5663 112.491 89.1798 111.503 90.6472 110.166C91.304 109.602 91.9193 108.766 92.5622 108.112C92.8699 107.694 93.2052 107.457 93.5128 107.04L93.9881 106.503C94.1558 106.385 94.2327 106.281 94.2958 106.086C94.2189 106.19 94.2189 106.19 94.2958 106.086C95.4339 105.634 94.6267 103.995 93.4747 104.356C92.6857 104.662 92.1888 105.665 91.6228 106.215C90.9798 106.87 90.3645 107.706 89.7077 108.269C88.3311 109.592 86.836 110.748 84.9719 111.31C84.4413 111.484 84.3566 112.146 84.5027 112.495C84.7041 113.206 85.2762 113.304 85.7161 113.144Z" fill="#FF6C9C"/>
<path d="M126.639 62.4804C127.598 60.8505 128.375 59.2483 127.889 57.2824C127.632 56.2088 127.285 55.149 127.028 54.0755C126.854 53.5456 126.771 53.0019 126.688 52.4582C126.71 51.9912 126.718 51.4337 126.662 51.0712C126.482 49.8932 124.681 50.2608 124.861 51.4388C124.917 51.8013 124.804 52.2821 124.86 52.6446C124.929 53.0976 125.102 53.6275 125.095 54.1851C125.338 55.168 125.58 56.151 125.914 57.1201C126.143 58.0124 126.344 58.7235 126.197 59.5806C126.021 60.2565 125.587 61.0646 125.217 61.6775C124.497 62.4365 125.947 63.4207 126.639 62.4804Z" fill="#FF6C9C"/>
<path d="M116.35 74.1586C119.757 73.3604 122.21 70.575 123.582 67.3982C124.065 66.3045 122.308 65.7382 121.811 66.7413C120.795 69.2145 118.726 71.4776 116.059 72.2556C114.907 72.6169 115.289 74.506 116.35 74.1586Z" fill="#FF6C9C"/>
<path d="M69.6248 111.148C72.4854 111.639 75.6243 112.737 78.5911 112.098C79.68 111.932 80.215 113.612 79.0492 113.883C75.7056 114.486 72.3991 113.507 69.0571 112.904C68.0175 112.785 68.4668 110.862 69.6248 111.148Z" fill="#FF6C9C"/>
<path d="M139.848 78.4543C141.58 77.6336 142.42 75.8363 142.82 74.1988C143.017 73.056 143.151 72.1082 143.348 70.9654C143.573 70.0038 143.979 69.0145 144.399 68.1159C144.882 67.0221 143.124 66.4559 142.627 67.459C141.864 69.1518 141.401 70.9844 141.238 72.9566C141.096 74.4619 140.528 76.2177 139.146 76.8924C137.917 77.3581 138.724 78.9968 139.848 78.4543Z" fill="#FF6C9C"/>
<path d="M130.91 87.4222C131.679 86.3775 132.407 85.061 133.267 84.0024C134.294 82.8256 135.531 81.8023 136.481 80.7299C136.789 80.312 136.901 79.8312 136.56 79.4197C136.219 79.0082 135.556 78.9239 135.248 79.3417C134.13 80.5324 132.816 81.6602 131.789 82.8371C130.838 83.9094 130.11 85.226 129.264 86.3751C128.586 87.406 130.127 88.3763 130.91 87.4222Z" fill="#FF6C9C"/>
<path d="M117.992 98.2964C120.925 96.8287 122.952 94.2938 124.575 91.5424C125.163 90.5254 123.622 89.5551 123.02 90.4815C121.537 92.9333 119.678 95.3499 117.171 96.5671C116.137 97.0958 116.958 98.8251 117.992 98.2964Z" fill="#FF6C9C"/>
<path d="M125.874 101.266C128.045 100.286 130.057 98.8658 131.742 97.1251C132.049 96.7072 132.161 96.2264 131.82 95.8149C131.479 95.4033 130.816 95.319 130.508 95.7369C128.992 97.3593 127.057 98.6747 125.066 99.6275C124.019 100.066 124.735 101.718 125.874 101.266Z" fill="#FF6C9C"/>
<path d="M89.9334 121.309C92.6634 120.336 95.4288 118.987 97.5392 116.996C99.7403 114.991 101.572 112.393 104.233 110.967C105.358 110.424 104.46 108.799 103.412 109.237C100.661 110.677 98.787 113.003 96.6274 115.28C94.4401 117.376 91.87 118.788 89.0354 119.684C88.5048 119.858 88.4201 120.52 88.5662 120.869C88.9214 121.371 89.4797 121.379 89.9334 121.309Z" fill="#FF6C9C"/>
<path d="M73.4565 121.042C77.4812 122.468 81.7151 124.047 86.1476 123.278C87.3273 123.098 86.9461 121.209 85.7803 121.48C81.7107 122.193 77.7629 120.663 74.0104 119.196C73.0339 118.881 72.3754 120.651 73.4565 121.042Z" fill="#FF6C9C"/>
<path d="M110.816 119.421C112.282 119.29 113.601 118.81 114.866 117.968C116.361 116.813 117.11 115.029 117.964 113.323C118.411 112.605 118.754 111.811 119.397 111.156C119.565 111.038 119.733 110.92 119.809 110.815C120.068 110.683 120.431 110.628 120.675 110.405C121.297 110.217 121.918 110.03 122.553 109.933C122.826 109.891 123.007 109.864 123.279 109.822C123.461 109.794 123.565 109.871 123.642 109.767C123.642 109.767 124.019 109.802 123.928 109.816C124.41 109.928 124.94 109.754 125.13 109.169C125.256 108.779 124.964 108.081 124.482 107.969C123.233 107.696 121.795 108.009 120.643 108.37C120.022 108.557 119.401 108.745 118.898 109.1C118.227 109.573 117.661 110.123 117.29 110.736C116.227 112.289 115.673 114.136 114.597 115.598C113.583 116.866 112.173 117.359 110.616 117.504C110.162 117.573 109.778 118.096 109.847 118.549C109.853 119.197 110.258 119.413 110.816 119.421Z" fill="#FF6C9C"/>
<path d="M98.8563 127.459C99.3549 125.25 100.899 123.809 102.785 122.779C103.651 122.369 104.335 121.986 105.124 121.68C105.383 121.548 105.746 121.493 105.99 121.27C106.172 121.242 106.262 121.228 106.067 121.165C106.249 121.138 106.326 121.033 106.521 121.096C107.051 120.922 107.136 120.26 106.99 119.912C106.816 119.382 106.258 119.374 105.804 119.443C105.727 119.548 105.532 119.485 105.881 119.339C105.804 119.443 105.7 119.367 105.609 119.381L105.155 119.45C104.897 119.582 104.534 119.637 104.289 119.86C103.423 120.271 102.467 120.695 101.629 121.286C99.4983 122.539 97.6463 124.398 97.0847 126.802C96.9723 127.283 97.1461 127.812 97.732 128.001C98.0457 128.231 98.744 127.939 98.8563 127.459Z" fill="#FF6C9C"/>
<path d="M125.273 116.194C127.94 115.416 131.542 114.68 131.784 111.398C131.891 110.269 130.007 110.093 129.9 111.222C129.688 113.48 126.603 113.951 124.892 114.304C124.362 114.478 124.054 114.896 124.123 115.349C124.206 115.893 124.743 116.367 125.273 116.194Z" fill="#FF6C9C"/>
<path d="M137.716 141.743C140.383 140.965 143.985 140.23 144.227 136.947C144.333 135.818 142.449 135.642 142.343 136.771C142.13 139.029 139.045 139.5 137.335 139.854C136.804 140.028 136.496 140.445 136.566 140.898C136.649 141.442 137.185 141.917 137.716 141.743Z" fill="#FF6C9C"/>
<path d="M113.018 106.473C114.443 106.07 116.206 107.285 117.506 106.066C118.394 105.189 117.16 103.801 116.273 104.678C115.938 104.915 115.261 104.74 114.975 104.691C114.207 104.53 113.454 104.459 112.637 104.584C111.394 104.959 111.762 106.757 113.018 106.473Z" fill="#FF6C9C"/>
<path d="M133.992 124.044C133.988 122.19 135.169 120.804 136.337 119.328C137.183 118.179 138.106 116.925 139.252 115.916C140.139 115.038 138.906 113.65 138.018 114.528C136.809 115.732 135.733 117.195 134.719 118.462C133.474 120.043 132.062 121.742 132.213 123.945C132.12 125.164 134.004 125.34 133.992 124.044Z" fill="#FF6C9C"/>
<path d="M130.018 136.334C133.166 135.668 135.848 133.775 137.667 131.086C138.806 129.429 140.017 127.018 139.622 125.038C139.442 123.86 137.537 124.151 137.821 125.406C137.904 125.95 137.743 126.716 137.644 127.288C137.329 128.263 136.818 129.176 136.216 130.102C134.706 132.373 132.436 133.925 129.755 134.612C128.561 134.701 128.929 136.5 130.018 136.334Z" fill="#FF6C9C"/>
<path d="M73.5826 135.86C73.5826 135.86 83.1969 132.538 97.3472 149.203C97.3472 149.203 99.5803 149.233 101.291 148.879C107.126 142.703 121.275 135.629 123.889 137.548C123.889 137.548 118.95 131.347 117.446 128.795C97.7659 134.302 90.1088 130.37 74.8941 126.201C72.9912 129.552 73.5826 135.86 73.5826 135.86Z" fill="#9E7F8B"/>
<path d="M92.0612 186.359C91.1156 183.814 87.9568 181.978 85.3962 181.627C83.7844 181.41 82.2833 181.917 80.7683 182.334C80.8928 183.149 80.879 183.058 81.0034 183.874C81.0942 183.86 83.2858 183.618 84.43 183.815C92.0983 184.777 90.1653 194.623 89.41 195.759C89.0393 196.372 87.858 197.757 87.3689 198.203C86.8028 198.753 85.86 199.268 84.7849 199.525C84.5127 199.566 84.9525 199.406 84.7849 199.525C84.8817 200.159 85.0831 200.87 85.1799 201.504C85.3752 201.567 85.5567 201.54 85.7382 201.512C88.5235 200.901 90.9415 198.492 91.8247 195.761C92.7571 192.744 93.1528 189.253 92.0612 186.359Z" fill="#461B2E"/>
<path d="M96.4534 193.848C94.5954 195.059 92.765 196.451 91.1671 196.324C90.6088 196.317 89.9537 195.675 89.3954 195.667C89.3462 195.953 89.2831 196.148 89.22 196.343C89.1215 196.915 88.7214 198.552 88.4276 199.061C90.2347 199.341 93.4323 198.389 94.9965 197.687C97.0913 196.811 98.8663 195.056 100.749 190.967C99.4573 191.628 97.627 193.02 96.4534 193.848Z" fill="#461B2E"/>
<path fill-rule="evenodd" clip-rule="evenodd" d="M37.9782 130.737C41.4039 129.901 44.5874 128.163 46.7983 125.529C50.5274 121.203 50.7062 116.897 49.571 114.252C48.8978 112.58 47.0564 109.417 44.0791 109.767C33.7532 113.326 13.6182 127.254 17.5277 134.38C20.7241 140.259 28.0939 133.081 37.9782 130.737Z" fill="#850019"/>
<path fill-rule="evenodd" clip-rule="evenodd" d="M36.52 129.394C39.9457 128.558 43.1292 126.819 45.3401 124.186C49.0692 119.859 49.248 115.553 48.1128 112.908C47.4396 111.237 46.5174 107.933 38.9734 110.546C28.6476 114.105 13.2747 126.366 17.0821 133.508C20.3962 139.473 26.6357 131.737 36.52 129.394Z" fill="#EA0029"/>
<path d="M40.4637 118.251L43.2349 119.289C43.7923 119.517 44.0034 120.215 43.8769 120.757C43.6484 121.313 42.949 121.524 42.4072 121.398L39.636 120.36C39.0787 120.132 38.8676 119.434 38.994 118.893C39.207 118.234 39.9064 118.023 40.4637 118.251Z" fill="#461B2E"/>
<path d="M40.8612 120.174C40.7746 120.291 40.5859 120.425 40.3816 120.456C26.2925 124.693 27.1486 130.303 27.1486 130.303C27.2265 130.813 26.8958 131.385 26.3851 131.463C25.8745 131.541 25.3016 131.211 25.2237 130.701C25.177 130.395 23.781 123.302 39.866 118.447C40.3611 118.267 40.9341 118.597 41.114 119.091C41.1763 119.499 41.1208 119.821 40.8612 120.174Z" fill="#461B2E"/>
<path d="M40.8606 120.175C40.4988 120.543 39.886 120.636 39.5173 120.275C33.2171 115.288 31.0568 115.513 30.373 115.826C29.6892 116.139 29.6251 117.088 29.6406 117.19C29.6163 117.716 29.168 118.202 28.6417 118.178C28.1155 118.154 27.6292 117.706 27.6535 117.181C27.6311 116.349 28.0103 114.726 29.48 114.084C31.7201 113.011 35.5039 114.521 40.8625 118.818C41.2156 119.077 41.2069 119.704 40.8606 120.175C40.845 120.073 40.845 120.073 40.8606 120.175Z" fill="#461B2E"/>
<path d="M78.4201 129.836C83.3202 129.089 88.254 129.17 93.034 129.461C94.1644 129.566 94.3415 127.685 93.2111 127.579C88.0405 127.163 83.1205 127.172 78.0389 127.947C76.8731 128.218 77.2404 130.016 78.4201 129.836Z" fill="#FF6C9C"/>
<path fill-rule="evenodd" clip-rule="evenodd" d="M94.2676 198.712C94.3213 198.675 94.3942 198.689 94.4305 198.743C94.9956 199.579 94.9574 200.457 94.7829 201.117C94.6956 201.447 94.5737 201.726 94.4737 201.921C94.4237 202.019 94.3789 202.097 94.3465 202.15C94.3302 202.177 94.317 202.198 94.3078 202.212C94.3031 202.219 94.2995 202.224 94.2969 202.228L94.2939 202.233L94.293 202.234L94.2927 202.234L94.2926 202.235C94.2926 202.235 94.2926 202.235 94.196 202.168L94.2926 202.235C94.2558 202.288 94.1827 202.301 94.1294 202.265C94.0761 202.228 94.0627 202.155 94.0994 202.101C94.0995 202.101 94.0995 202.101 94.0995 202.101L94.0995 202.101L94.0999 202.101L94.1021 202.098C94.104 202.095 94.1071 202.09 94.1111 202.084C94.1191 202.072 94.131 202.053 94.1459 202.028C94.1758 201.979 94.2177 201.907 94.2648 201.814C94.3592 201.63 94.4741 201.367 94.556 201.057C94.72 200.437 94.7506 199.636 94.2361 198.875C94.1998 198.821 94.2139 198.748 94.2676 198.712Z" fill="#63203B"/>
<path fill-rule="evenodd" clip-rule="evenodd" d="M92.0582 200.595C92.1167 200.567 92.1868 200.592 92.2146 200.65C92.6488 201.561 92.4803 202.424 92.2094 203.051C92.074 203.364 91.912 203.621 91.784 203.799C91.7199 203.889 91.6641 203.959 91.6241 204.007C91.604 204.031 91.5879 204.049 91.5766 204.062C91.571 204.069 91.5665 204.073 91.5634 204.077L91.5597 204.081L91.5587 204.082L91.5584 204.082L91.5582 204.082C91.5582 204.083 91.5582 204.083 91.4726 204.002L91.5582 204.083C91.5138 204.13 91.4396 204.132 91.3923 204.088C91.3451 204.043 91.3427 203.969 91.387 203.922C91.3871 203.922 91.3871 203.922 91.3871 203.922L91.3871 203.922L91.3876 203.921L91.3902 203.919C91.3926 203.916 91.3963 203.912 91.4012 203.906C91.4109 203.895 91.4255 203.879 91.4439 203.857C91.4807 203.812 91.533 203.747 91.5933 203.663C91.7142 203.494 91.8668 203.252 91.9941 202.958C92.2486 202.369 92.3982 201.581 92.0028 200.751C91.9749 200.693 91.9998 200.623 92.0582 200.595Z" fill="#63203B"/>
<path d="M90.6455 201.413C90.6455 201.413 89.7243 201.46 89.4504 202.708C89.2119 203.579 90.1608 203.712 90.8098 203.706C91.1728 203.65 91.4804 203.232 91.6066 202.842C91.6774 202.09 91.6437 201.26 90.6455 201.413Z" fill="#AA5B7F"/>
<path d="M93.2054 201.763C93.2054 201.763 92.6748 201.937 92.7854 202.662C92.8546 203.115 93.3083 203.045 93.6713 202.99C93.8528 202.962 93.9928 202.663 93.9513 202.391C93.8959 202.028 93.7361 201.589 93.2054 201.763Z" fill="#AA5B7F"/>
<path d="M86.2286 205.331L84.3166 195.237L82.7339 184.259C82.5895 182.704 81.5074 178.048 78.9673 172.964C77.6311 170.293 73.4846 171.112 75.8527 174.46C75.8527 174.46 78.8681 179.007 80.0747 184.479L83.2254 202.08L83.8831 205.782C84.1044 207.232 86.4499 206.781 86.2286 205.331Z" fill="#E4002B"/>
<path d="M195.285 105.43C189.981 116.283 176.645 120.717 165.196 115.369C153.748 110.02 148.541 96.7118 153.786 85.79C156.552 79.9869 166.123 83.8474 177.594 89.1763C189.066 94.5052 197.647 100.73 195.285 105.43Z" fill="#E5CDD7"/>
<path d="M159.487 92.6605C159.142 90.9761 159.491 90.1593 164.309 88.3841C167.42 86.7143 167.512 86.6578 168.185 83.1418C169.314 77.7002 164.915 76.8764 165.271 71.3111C165.396 69.2098 168.472 67.6881 171.223 68.455C171.371 68.49 171.519 68.525 171.562 68.5936C175.988 70.3815 176.073 74.4337 177.02 77.2962L177.585 81.0019L178.499 79.6148C179.979 77.4034 180.601 73.4451 179.889 70.9118C179.034 67.9927 177.416 64.2483 173.238 60.9159C168.546 57.5211 163.071 55.2117 157.377 54.2388L156.674 54.0727C153.422 54.1846 151.146 52.3962 150.5 50.9926L150.444 50.901C148.67 46.9049 151.438 43.2969 155.278 41.2715C160.262 38.7926 166.542 42.2498 166.542 42.2498C165.516 40.385 167.135 35.0848 171.759 35.4533C176.087 35.7519 179.979 40.1989 179.979 40.1989C179.979 40.1989 197.511 58.4778 194.525 75.8909C193.593 88.2012 189.024 95.725 182.316 104.267C181.841 105.035 181.028 105.664 180.16 105.947C179.226 106.176 178.27 106.166 177.434 105.734C171.864 102.914 160.297 96.6831 159.487 92.6605Z" fill="#E4002B"/>
<path d="M159.942 108.87C150.967 102.352 153.833 80.9114 159.92 87.5282C169.152 97.5624 188.151 102.598 188.151 102.598C189.443 103.355 189.543 105.351 188.365 106.482C188.241 106.594 188.107 106.719 187.984 106.831C179.277 114.868 168.917 115.389 159.942 108.87Z" fill="#FFFDFD"/>
<path d="M101.577 147.882L101.455 147.78L101.265 147.792L101.103 145.177C100.933 142.447 100.933 142.447 100.968 142.369C100.982 142.355 100.999 142.344 101.017 142.337C101.036 142.33 101.056 142.327 101.075 142.328C101.116 142.326 105.049 142.04 104.921 139.994L104.287 131.558C104.283 131.533 104.286 131.507 104.293 131.483C104.301 131.459 104.313 131.436 104.33 131.417C104.347 131.398 104.367 131.383 104.391 131.373C104.414 131.362 104.439 131.357 104.465 131.357C104.49 131.354 104.515 131.356 104.54 131.363C104.564 131.371 104.587 131.383 104.606 131.4C104.625 131.417 104.64 131.438 104.65 131.461C104.661 131.484 104.666 131.509 104.666 131.535L105.303 140.011C105.438 142.172 102.087 142.646 101.291 142.73L101.446 145.23C101.611 147.88 101.611 147.88 101.577 147.882Z" fill="#461B2E"/>
<g style="mix-blend-mode:lighten" opacity="0.7">
<path d="M191.337 63.4341C186.3 55.218 179.117 43.7829 170.304 41.8177C164.371 40.1224 170.135 34.2774 175 38.5002C184.267 46.5436 188.594 53.2127 191.337 63.4341Z" fill="#F06F87"/>
<path d="M160.051 42.8031C155.41 41.2293 148.773 47.9135 158 49.5002C166.013 50.8781 166.784 45.0858 160.051 42.8031Z" fill="#F06F87"/>
</g>
<g style="mix-blend-mode:lighten" opacity="0.7">
<path d="M201.259 80.526C198.906 79.7453 195.53 83.0931 200.21 83.8746C204.274 84.5533 204.673 81.6583 201.259 80.526Z" fill="#EC4E6B"/>
</g>
<path d="M131.071 28.1313C131.519 27.2318 132.346 26.4946 133.355 26.0918C135.105 25.3937 138.092 24.6247 140.149 27.2665C142.572 30.2323 138.502 31.3392 136.643 31.7676C136.053 31.8934 135.549 31.9223 134.987 31.7705C133.184 31.6438 129.714 30.9916 131.071 28.1313Z" fill="#E4002B"/>
<g opacity="0.66">
<path opacity="0.66" d="M139.071 27.6247C138.443 27.0684 137.643 26.7054 136.616 26.7451C136.252 26.7672 135.933 26.7867 135.783 26.9559C135.601 26.967 135.515 27.0637 135.365 27.2329C135.28 27.3295 134.948 27.5098 135.183 27.244C134.765 27.5209 134.53 27.7868 134.649 28.237C134.829 28.569 135.289 28.9756 135.642 28.7711C135.824 28.76 135.974 28.5908 136.156 28.5797C135.974 28.5908 136.339 28.5686 136.339 28.5686C136.521 28.5575 136.606 28.4609 136.671 28.3883C137.099 28.2936 137.523 28.4965 137.983 28.9031C138.684 29.5236 139.711 28.3634 139.071 27.6247Z" fill="white"/>
</g>
<path d="M163.78 30.0816C161.618 30.0306 155.577 27.5881 158.156 23.4317C159.911 20.5922 162.373 22.7628 163.667 24.0048C164.056 24.4228 169.988 30.3266 163.78 30.0816Z" fill="#E4002B"/>
<g opacity="0.66">
<path opacity="0.66" d="M159.47 27.3588L161.666 28.6056C162.183 28.9124 162.771 28.6283 163.078 28.1121C163.385 27.5959 163.101 27.0071 162.585 26.7004L160.388 25.4536C159.872 25.1469 159.283 25.4309 158.976 25.9471C158.779 26.5826 158.954 27.0521 159.47 27.3588Z" fill="white"/>
</g>
</svg>
