<svg width="57" height="119" viewBox="0 0 57 119" fill="none" xmlns="http://www.w3.org/2000/svg">
<g clip-path="url(#clip0_3_2)">
<path d="M15.1791 119L15.7711 61.5721H3.33831C1.56219 61.5721 0.378113 60.3881 0.378113 58.6119V43.8109C0.378113 42.0348 1.56219 40.8507 3.33831 40.8507H15.1791V26.0498C15.1791 9.47264 25.8358 0 40.6368 0H53.0697C54.8458 0 56.0299 1.18408 56.0299 2.9602V15.393C56.0299 17.1692 54.8458 18.3532 53.0697 18.3532H45.9652C37.6766 18.3532 35.9005 22.4975 35.9005 28.4179V40.8507H53.6617C55.4378 40.8507 56.6219 42.0348 56.6219 43.8109L54.8458 59.204C54.8458 60.3881 53.6617 61.5721 51.8856 61.5721H35.9005V119H15.1791V119Z" fill="#717171"/>
</g>
<defs>
<clipPath id="clip0_3_2">
<rect width="57" height="119" fill="white"/>
</clipPath>
</defs>
</svg>
