<svg width="120" height="98" viewBox="0 0 120 98" fill="none" xmlns="http://www.w3.org/2000/svg">
<g clip-path="url(#clip0_3_6)">
<path d="M0 86.7369C11.3684 94 24.3158 97.7895 37.8947 97.7895C76.4211 97.7895 107.684 66.5263 107.684 27.6842C107.684 26.7369 107.684 25.4737 107.684 24.5263C112.421 21.0526 116.842 16.6316 120 11.8948C115.579 13.7895 110.842 15.0526 105.789 15.6842C111.158 12.5263 114.947 7.78949 116.842 2.10528C111.789 4.94738 106.421 6.84212 101.053 8.10528C96.3158 3.05265 90 0.210541 83.0526 0.210541C69.4737 0.210541 58.4211 11.2632 58.4211 24.8421C58.4211 26.7369 58.7368 28.6316 59.0526 30.5263C39.1579 29.579 20.8421 20.1053 8.21053 4.63159C6.31579 8.42107 5.05263 12.8421 5.05263 17.2632C5.05263 25.4737 9.15789 33.0526 16.1053 37.4737C12 37.4737 8.21053 36.5263 4.73684 34.6316V34.9474C4.73684 46.6316 12.9474 56.7369 24.6316 58.9474C22.4211 59.579 20.2105 59.8948 18 59.8948C16.4211 59.8948 14.8421 59.579 13.5789 59.2632C16.7368 69.3684 25.8947 76.3158 36.3158 76.6316C27.7895 83.2632 17.0526 87.0526 6 87.0526C5.68421 87.0526 5.68421 87.0526 5.68421 87.0526C3.78947 87.0526 1.89474 87.0526 0 86.7369H0Z" fill="#717171"/>
</g>
<defs>
<clipPath id="clip0_3_6">
<rect width="120" height="98" fill="white"/>
</clipPath>
</defs>
</svg>
