<svg width="122" height="85" viewBox="0 0 122 85" fill="none" xmlns="http://www.w3.org/2000/svg">
<g clip-path="url(#clip0_3_9)">
<path fill-rule="evenodd" clip-rule="evenodd" d="M47.4694 18.3878V66.6122L85.2857 42.3265L47.4694 18.3878ZM61 85C60.6531 85 23.1837 85 13.4694 82.5714C8.2653 81.1837 4.10203 77.0204 2.71428 71.8163C1.32652 62.449 0.285706 53.0816 0.285706 43.3673C0.285706 43.0204 0.285706 42.6735 0.285706 42.6735C0.285706 42.3265 0.285706 41.9796 0.285706 41.6327C0.285706 32.2653 0.979583 22.551 2.71428 13.1837C4.10203 7.97959 8.2653 3.81633 13.4694 2.42857C22.8367 0 60.6531 0 61 0C61.3469 0 99.1633 0 108.531 2.42857C113.735 3.81633 117.551 7.97959 118.939 13.1837C120.673 22.551 121.714 31.5714 121.714 40.9388C121.714 41.6327 121.714 41.9796 121.714 42.6735C121.714 43.0204 121.714 43.3673 121.714 43.7143C121.714 53.0816 120.673 62.449 119.286 71.8163C117.898 77.0204 113.735 81.1837 108.531 82.5714C99.1633 85 61.3469 85 61 85V85Z" fill="#717171"/>
</g>
<defs>
<clipPath id="clip0_3_9">
<rect width="122" height="85" fill="white"/>
</clipPath>
</defs>
</svg>
