<svg width="242" height="251" viewBox="0 0 242 251" fill="none" xmlns="http://www.w3.org/2000/svg">
<path d="M234.112 63.0961C235.384 61.4425 235.893 59.2799 235.13 57.2446C234.494 55.7181 233.349 54.5733 232.077 53.9372C232.077 53.9372 228.769 39.1812 218.847 42.107L208.925 49.485C204.982 52.4107 199.512 52.1563 195.95 48.7217C195.696 48.4673 195.568 48.2129 195.441 48.0857C195.441 48.0857 191.625 41.8525 190.607 40.4533C185.392 33.8385 178.141 36.8915 178.395 40.0717C178.523 42.107 183.738 51.7747 187.809 59.7888C190.607 65.2587 188.19 71.8735 184.883 76.9617L161.858 111.944L204.6 152.777L221.01 91.5906C222.282 87.0111 225.208 83.1949 229.405 80.9052L238.564 75.6897C240.345 75.0536 236.656 71.619 237.165 69.8381C237.674 67.1668 236.402 64.3682 234.112 63.0961Z" fill="#C17A9F"/>
<path d="M229.279 52.1572L215.668 60.1712C212.869 61.8249 209.307 60.2984 208.417 57.1182L208.29 56.8638C207.908 55.2101 208.417 53.4292 209.562 52.1572L218.594 41.9806C222.283 38.1644 228.77 38.6732 231.569 43.2527C232.459 44.6519 232.841 46.3056 232.332 48.2137C232.077 49.8674 230.805 51.2667 229.279 52.1572Z" fill="#C17A9F"/>
<path d="M234.11 62.2056L218.591 65.3858C215.411 66.0218 212.485 63.4777 212.739 60.1703V59.9159C212.867 58.135 213.884 56.7357 215.411 55.9725L227.241 49.2305C231.948 46.8135 237.927 49.3577 239.071 54.5732C239.453 56.2269 239.326 57.8806 238.308 59.5343C237.418 60.8063 235.891 61.824 234.11 62.2056Z" fill="#C17A9F"/>
<path d="M233.22 76.0702L218.083 71.2363C215.03 70.2187 213.758 66.5296 215.539 63.8583L215.666 63.6039C216.683 62.2046 218.21 61.3141 219.991 61.4413L233.602 61.3141C238.945 61.5686 242.888 66.6568 241.362 71.7451C240.853 73.3988 239.962 74.7981 238.181 75.6886C236.782 76.579 234.874 76.579 233.22 76.0702Z" fill="#C17A9F"/>
<path fill-rule="evenodd" clip-rule="evenodd" d="M216.811 43.7276C216.969 43.8678 216.984 44.1099 216.844 44.2683L209.974 52.028C209.969 52.0338 209.964 52.0394 209.958 52.0449C208.785 53.2188 208.323 54.7185 208.774 56.3418L208.885 56.5638C208.899 56.5904 208.909 56.6184 208.916 56.6474C209.383 58.6348 211.141 59.9251 212.893 60.0419C213.083 60.0546 213.235 60.2049 213.25 60.3948C213.367 61.9239 214.19 63.2229 215.377 64.0537C215.528 64.1592 215.582 64.357 215.507 64.5248C214.461 66.8485 215.734 69.6651 218.327 70.4901L218.327 70.4902L233.461 75.3229C233.461 75.3231 233.462 75.3233 233.463 75.3235C235.048 75.8108 236.837 75.7969 238.243 74.9765C238.426 74.8699 238.661 74.9316 238.767 75.1144C238.874 75.2971 238.812 75.5317 238.629 75.6383C236.983 76.5984 234.957 76.5849 233.235 76.0551L233.232 76.054L233.232 76.0539L218.094 71.2202C215.193 70.2972 213.671 67.1988 214.689 64.4979C213.544 63.6054 212.726 62.3031 212.52 60.7737C210.581 60.511 208.716 59.0582 208.18 56.8672L208.073 56.652C208.062 56.6309 208.054 56.6087 208.047 56.586C207.498 54.6643 208.052 52.8727 209.408 51.5115L216.27 43.7605C216.41 43.6021 216.652 43.5873 216.811 43.7276Z" fill="#632B4B"/>
<path fill-rule="evenodd" clip-rule="evenodd" d="M232.787 48.0157C232.895 48.1973 232.836 48.4325 232.654 48.541L213.064 60.244C212.883 60.3525 212.648 60.2933 212.539 60.1116C212.431 59.93 212.49 59.6948 212.672 59.5863L232.261 47.8833C232.443 47.7747 232.678 47.834 232.787 48.0157Z" fill="#632B4B"/>
<path fill-rule="evenodd" clip-rule="evenodd" d="M234.494 63.0704C234.509 63.2815 234.349 63.4641 234.138 63.4783L215.184 64.7504C214.973 64.7645 214.79 64.6049 214.776 64.3938C214.762 64.1827 214.922 64.0001 215.133 63.9859L234.087 62.7139C234.298 62.6997 234.48 62.8593 234.494 63.0704Z" fill="#632B4B"/>
<path d="M116.827 84.7205C106.905 77.9786 92.022 68.3108 79.8101 67.2932C67.8526 66.2755 48.5172 45.5407 30.7081 43.5054C5.77553 40.7069 -2.87456 68.3108 0.814453 81.0315C0.94166 81.4132 1.06886 81.7948 1.19607 82.3036C5.90273 95.0243 16.5881 99.9854 28.9272 97.9501C45.337 95.1515 49.1532 81.922 64.2908 76.1977C80.319 70.0917 84.3896 84.4661 97.6191 93.4979C101.308 95.6604 120.262 87.0103 116.827 84.7205Z" fill="#EA0029"/>
<path d="M91.0019 92.4809C81.5886 54.8276 49.4052 75.8168 27.9071 76.4528C3.61055 77.216 10.4797 56.9901 20.9107 48.976C21.2924 48.7216 58.5641 40.326 70.9032 42.8701C112.246 51.1386 93.9277 104.311 91.0019 92.4809Z" fill="#8B1332"/>
<path d="M213.167 195.01C217.491 169.189 177.886 78.4882 151.936 70.7286C122.297 61.9513 118.735 63.7322 104.488 64.8771C104.488 64.8771 135.399 78.8699 112.375 86.7567C112.375 86.7567 82.6082 68.3117 71.0324 69.3293C-6.05516 75.8169 -9.10815 181.526 14.5524 198.19L36.0504 195.01C32.743 202.388 38.0857 210.784 46.227 211.038L161.858 214.6C169.236 214.727 208.29 224.125 213.167 195.01Z" fill="#EA0029"/>
<path d="M127.13 27.4768C125.094 11.9575 111.738 0 95.7096 0C91.2573 0 86.9323 0.890452 82.9888 2.41694C69.7593 7.75964 66.7063 7.75964 53.4768 2.41694C49.5334 0.763245 45.2083 0 40.7561 0C24.3463 0 10.7352 12.4663 9.20869 28.4944C9.20869 28.6216 9.08148 28.7488 9.08148 28.876V31.5474V33.0739V35.7452C9.08148 35.8724 9.20869 35.9996 9.20869 36.1268C10.7352 52.155 24.3463 64.6213 40.7561 64.6213C45.2083 64.6213 49.5334 63.7308 53.4768 62.2043C66.7063 56.8616 69.7593 56.8616 82.9888 62.2043C86.9323 63.858 91.2573 64.6213 95.7096 64.6213C111.738 64.6213 125.094 52.6638 127.13 37.1445C127.257 36.6357 127.384 36.1269 127.384 35.618V32.9467V31.6746V29.0032C127.511 28.3672 127.384 27.9856 127.13 27.4768Z" fill="#F299B6"/>
<path d="M116.189 88.2828C122.55 92.3534 121.914 82.9401 122.041 75.4348C122.168 63.4774 122.168 48.8485 122.168 48.8485C122.168 43.1242 110.592 42.2338 104.868 42.2338C99.1434 42.2338 91.8926 34.7285 91.8926 40.4529L80.444 71.6186C80.444 71.4914 105.122 81.1592 116.189 88.2828Z" fill="#C17A9F"/>
<path d="M126.622 28.4964C124.078 23.2809 118.354 20.4823 112.629 21.7544C108.05 22.7721 102.071 23.4081 94.8203 19.5919C91.2585 17.6838 87.6967 23.0265 88.5872 26.9699C89.6048 31.1677 89.9865 36.256 88.2056 40.8355C89.4776 43.5068 89.9865 50.8849 93.6755 54.7011C97.7461 58.8989 121.534 57.8813 121.534 57.8813C121.534 57.8813 126.241 56.3547 128.785 51.9025C131.583 47.323 131.71 39.309 126.622 28.4964Z" fill="#C17A9F"/>
<path d="M96.5999 41.7247C82.9887 29.004 73.4482 41.3431 80.8262 48.3395C82.8615 50.2476 86.4233 52.1557 91.13 53.9366L96.5999 41.7247Z" fill="#C17A9F"/>
<path fill-rule="evenodd" clip-rule="evenodd" d="M91.9629 52.3464C92.349 52.1733 92.8022 52.346 92.9753 52.7321C93.7046 54.3591 95.2881 55.796 97.4902 56.9527C99.6815 58.1037 102.412 58.9373 105.308 59.3966C111.138 60.3212 117.407 59.6974 121.126 57.3581C121.484 57.1328 121.957 57.2405 122.182 57.5987C122.408 57.9568 122.3 58.4298 121.942 58.6551C117.774 61.2769 111.068 61.8615 105.068 60.9098C102.048 60.431 99.15 59.5552 96.7777 58.3092C94.4163 57.0688 92.5015 55.4209 91.5772 53.3589C91.4041 52.9728 91.5768 52.5195 91.9629 52.3464Z" fill="#632B4B"/>
<path d="M200.147 236.606C202.691 237.115 204.981 234.698 205.108 232.027C205.744 220.833 200.147 191.957 194.677 166.133C186.79 128.735 132.345 124.791 132.345 124.791C102.452 119.957 64.035 141.964 77.2645 189.921C77.2645 189.921 85.0242 213.963 89.3492 215.49C106.904 221.977 162.112 228.847 200.147 236.606Z" fill="#854868"/>
<path d="M134.762 225.158C144.939 201.243 125.349 138.53 90.7486 135.859C90.7486 135.859 72.6851 149.852 74.8477 172.495C76.883 204.424 87.5684 217.271 116.826 221.851L134.762 225.158Z" fill="#F299B6"/>
<path d="M193.405 161.299L114.155 160.281C107.413 160.281 103.724 168.168 108.049 173.383L109.194 175.164C118.48 189.411 131.964 200.606 147.738 206.839C151.427 208.365 155.625 209.765 160.204 211.037L204.091 217.779C199.638 190.429 198.493 181.016 193.405 161.299Z" fill="#2D2E32"/>
<path d="M130.946 170.331C124.458 163.971 114.663 174.02 121.151 180.381C127.638 186.741 137.433 176.564 130.946 170.331Z" fill="#F299B6"/>
<path opacity="0.36" d="M186.635 178.211C187.938 177.98 189.174 178.901 189.395 180.269L193.942 208.436C194.163 209.805 193.286 211.102 191.982 211.334C190.679 211.566 189.443 210.644 189.222 209.276L186.948 195.193L184.675 181.109C184.454 179.741 185.331 178.443 186.635 178.211Z" fill="white"/>
<path opacity="0.36" d="M184.122 171.952C186.127 171.952 187.753 170.326 187.753 168.321C187.753 166.316 186.127 164.691 184.122 164.691C182.117 164.691 180.491 166.316 180.491 168.321C180.491 170.326 182.117 171.952 184.122 171.952Z" fill="white"/>
<path d="M76.3736 176.056L90.2392 186.105L104.614 199.462C105.504 200.225 106.903 200.861 108.303 201.497C114.663 204.169 121.532 205.314 128.274 203.66C138.451 201.116 153.003 196.718 150.41 205.146C148.335 211.888 139.468 214.727 131.073 216.762C129.292 217.144 129.165 219.561 130.818 220.324C136.67 222.614 147.991 225.667 161.602 228.974C165.291 229.865 165.8 234.826 162.493 236.607C158.295 238.769 152.571 239.66 152.571 239.66C151.553 246.91 140.486 246.274 140.486 246.274C136.415 248.564 130.691 250.854 123.695 250.091C114.281 249.073 99.6525 243.603 91.2569 239.66C83.4972 235.971 74.9743 233.172 67.4691 229.737C45.9711 219.942 18.876 203.405 18.876 203.405C17.4767 202.388 16.2046 201.243 15.0598 199.971C6.9185 190.685 10.9891 176.056 22.565 171.858C26.6356 170.332 31.9783 168.932 38.7203 167.915C61.872 164.734 76.3736 176.056 76.3736 176.056Z" fill="#C17A9F"/>
<path fill-rule="evenodd" clip-rule="evenodd" d="M33.8716 155.548C47.0308 154.219 61.7748 157.381 70.6617 163.048L70.1335 163.877C61.4658 158.35 46.9521 155.215 33.9703 156.526C20.9741 157.838 9.75274 163.565 7.27503 175.52L6.31299 175.32C8.92356 162.724 20.7267 156.875 33.8716 155.548Z" fill="#8B1332"/>
<path fill-rule="evenodd" clip-rule="evenodd" d="M118.152 27.9339L119.032 28.311C119.415 28.4751 119.592 28.9187 119.428 29.3017C119.264 29.6848 118.82 29.8622 118.437 29.6981L117.547 29.3164C117.54 29.3133 117.532 29.31 117.525 29.3067C116.012 28.6007 114.162 29.3017 113.44 30.8501L113.431 30.8685L112.922 31.8861C112.736 32.2588 112.282 32.4099 111.91 32.2235C111.537 32.0372 111.386 31.5839 111.572 31.2112L112.077 30.2023C113.136 27.9447 115.854 26.8693 118.152 27.9339Z" fill="#632B4B"/>
<path fill-rule="evenodd" clip-rule="evenodd" d="M110.462 35.2926C110.853 35.1492 111.286 35.35 111.43 35.7413L112.394 38.3706C112.715 38.0529 113.116 37.7021 113.567 37.4057C114.16 37.0163 114.919 36.6693 115.746 36.702C116.623 36.7367 117.428 37.1901 118.079 38.1091L118.086 38.1191L118.086 38.1191C118.606 38.879 118.742 39.6433 118.552 40.355C118.408 40.8969 118.094 41.3408 117.752 41.6896C118.62 41.9243 119.56 42.4742 119.852 43.7151L119.854 43.7242L119.854 43.7242C120.21 45.3264 119.195 46.6256 117.83 47.1519C116.454 47.683 114.651 47.4966 113.059 46.2659C112.729 46.0111 112.668 45.5372 112.923 45.2074C113.178 44.8777 113.652 44.8169 113.981 45.0718C115.187 46.0035 116.438 46.0716 117.287 45.744C118.147 45.4124 118.532 44.7421 118.382 44.0562C118.238 43.4552 117.72 43.1618 116.925 43.0624C116.547 43.0152 116.173 43.0246 115.887 43.0479C115.745 43.0594 115.63 43.0739 115.552 43.0851C115.513 43.0908 115.483 43.0956 115.464 43.0987L115.445 43.1021L115.443 43.1024C115.443 43.1024 115.443 43.1024 115.443 43.1025C115.443 43.1024 115.443 43.1024 115.301 42.3614C115.043 41.6581 115.041 41.6531 115.041 41.6532C115.041 41.6532 115.041 41.6532 115.041 41.6532L115.044 41.6519L115.067 41.643C115.089 41.6344 115.123 41.6208 115.167 41.6022C115.254 41.5648 115.381 41.5079 115.529 41.4326C115.83 41.2792 116.197 41.0613 116.506 40.7911C116.822 40.5154 117.023 40.2351 117.094 39.9673C117.155 39.7377 117.148 39.4222 116.844 38.9763C116.415 38.373 116.014 38.2229 115.686 38.2099C115.309 38.195 114.868 38.3568 114.395 38.6671C113.933 38.9708 113.515 39.3683 113.205 39.7024C113.052 39.8671 112.93 40.0113 112.847 40.113C112.806 40.1637 112.775 40.2036 112.755 40.2298L112.733 40.2584L112.729 40.2642L112.729 40.2643L112.728 40.2646C112.564 40.4883 112.29 40.6034 112.015 40.5643C111.739 40.5252 111.508 40.3379 111.412 40.077L110.013 36.2608C109.87 35.8696 110.07 35.4361 110.462 35.2926ZM115.041 41.6532C115.041 41.6532 115.04 41.6533 115.04 41.6533C114.672 41.7889 114.469 42.1847 114.574 42.5632C114.679 42.9419 115.057 43.1764 115.443 43.1025" fill="#632B4B"/>
<path d="M121.15 24.6805C124.712 19.8466 130.945 20.2283 133.998 23.7901C134.38 24.1717 134.889 24.1717 135.143 23.7901C138.45 20.6099 145.574 17.3025 149.39 25.1893C153.843 33.8394 133.998 48.2138 133.998 48.2138C133.617 48.4683 133.108 48.4683 132.853 48.2138L132.217 47.069C129.292 41.9807 125.73 37.274 122.041 32.8218C120.133 30.532 118.861 27.6063 121.15 24.6805Z" fill="#EA0029"/>
<path d="M101.179 32.3119C103.723 31.4215 105.249 35.3649 102.705 36.2554C100.034 37.273 98.6344 33.3296 101.179 32.3119Z" fill="#632B4B"/>
<path d="M77.6473 55.7187L74.0855 60.4254C73.5767 61.1886 74.0855 62.2063 75.1031 62.079L80.7003 61.3158C80.9547 61.3158 81.2091 61.443 81.4635 61.5702L85.4069 66.2769C86.043 67.0401 87.1878 66.6585 87.315 65.7681L88.0783 60.1709C88.0783 59.9165 88.3327 59.6621 88.5871 59.5349L93.5482 57.2452C94.4386 56.8636 94.4386 55.7187 93.6754 55.3371L89.3503 53.8106C89.0959 53.6834 88.9687 53.429 88.8415 53.1745L88.0783 46.8142C87.9511 45.9237 86.9334 45.5421 86.2974 46.1781L82.4812 50.1216C82.2267 50.376 81.9723 50.5032 81.7179 50.376L77.2657 49.6128C76.3752 49.4855 75.7392 50.376 76.1208 51.1392L78.0289 54.9555C77.9017 55.2099 77.7745 55.4643 77.6473 55.7187Z" fill="#F5C240"/>
<path fill-rule="evenodd" clip-rule="evenodd" d="M131.763 235.007C131.874 234.827 132.11 234.771 132.29 234.881C135.845 237.064 140.93 238.201 145.165 238.788C147.276 239.08 149.162 239.234 150.52 239.315C151.199 239.356 151.745 239.378 152.122 239.39C152.31 239.396 152.455 239.4 152.553 239.402C152.602 239.403 152.64 239.403 152.664 239.404L152.692 239.404L152.701 239.404C152.912 239.406 153.082 239.579 153.08 239.791C153.078 240.003 152.905 240.172 152.694 240.17L152.697 239.844C152.694 240.17 152.694 240.17 152.694 240.17L152.691 240.17L152.683 240.17L152.653 240.17C152.627 240.169 152.588 240.169 152.538 240.168C152.437 240.166 152.288 240.162 152.097 240.156C151.714 240.144 151.161 240.121 150.474 240.08C149.101 239.998 147.195 239.842 145.06 239.547C140.805 238.957 135.586 237.804 131.889 235.534C131.709 235.424 131.653 235.188 131.763 235.007Z" fill="#632B4B"/>
<path fill-rule="evenodd" clip-rule="evenodd" d="M123.727 242.686C123.812 242.492 124.038 242.403 124.232 242.488C128.261 244.251 132.359 245.134 135.454 245.576C137 245.797 138.294 245.908 139.199 245.963C139.652 245.99 140.008 246.004 140.249 246.011C140.37 246.014 140.462 246.016 140.524 246.017L140.593 246.018L140.61 246.018L140.614 246.018L140.615 246.018L140.615 246.018C140.615 246.018 140.615 246.018 140.615 246.018" fill="#632B4B"/>
</svg>
