<svg width="30" height="30" viewBox="0 0 30 30" fill="none" xmlns="http://www.w3.org/2000/svg">
<path d="M14.2631 8.98437L14.3269 10.0381L13.2656 9.90937C9.40311 9.41437 6.02811 7.73625 3.16249 4.9175L1.76249 3.51875L1.39999 4.55187C0.636235 6.85375 1.12436 9.28562 2.71624 10.9206C3.56499 11.8244 3.37436 11.9531 1.90999 11.4156C1.39999 11.2431 0.95436 11.1144 0.91186 11.1787C0.763735 11.3294 1.27311 13.2875 1.67624 14.0619C2.22811 15.1375 3.35311 16.1919 4.58373 16.8162L5.62498 17.3106L4.39373 17.3325C3.20561 17.3325 3.16311 17.3537 3.29061 17.8056C3.71498 19.2044 5.39186 20.6887 7.25936 21.3344L8.57561 21.7863L7.42936 22.475C5.73123 23.4644 3.73623 24.0238 1.74124 24.0669C0.786235 24.0887 0.000610352 24.1744 0.000610352 24.2388C0.000610352 24.4544 2.58999 25.6594 4.09686 26.1325C8.61811 27.5312 13.9881 26.9287 18.0206 24.54C20.8862 22.84 23.7519 19.4625 25.0887 16.1919C25.81 14.4494 26.5325 11.265 26.5325 9.73687C26.5325 8.7475 26.5956 8.61812 27.7844 7.435C28.4844 6.74625 29.1425 5.99312 29.27 5.77875C29.4825 5.36937 29.4612 5.36937 28.3787 5.735C26.5744 6.38062 26.32 6.29437 27.2112 5.32625C27.8694 4.63812 28.655 3.39 28.655 3.02437C28.655 2.95937 28.3362 3.0675 27.975 3.26062C27.5937 3.47625 26.7437 3.79875 26.1075 3.99187L24.9612 4.35812L23.9212 3.64812C23.3481 3.26062 22.5419 2.83062 22.1169 2.70125C21.0344 2.4 19.3794 2.44312 18.4025 2.7875C15.7494 3.75625 14.0725 6.25125 14.2637 8.98437H14.2631Z" fill="#717171"/>
</svg>
