<svg width="30" height="30" viewBox="0 0 30 30" fill="none" xmlns="http://www.w3.org/2000/svg">
<path d="M29.375 7.75C29.2222 7.09927 28.8983 6.5012 28.4368 6.0177C27.9753 5.53419 27.3929 5.18284 26.75 5C24.375 4.375 15 4.375 15 4.375C15 4.375 5.625 4.375 3.25 5C2.60708 5.18284 2.02471 5.53419 1.56318 6.0177C1.10166 6.5012 0.777752 7.09927 0.625 7.75C0 10.125 0 15.125 0 15.125C0 15.125 0 20.125 0.625 22.625C0.787541 23.2642 1.11581 23.8493 1.57669 24.3212C2.03757 24.793 2.61475 25.135 3.25 25.3125C5.625 25.9375 15 25.9375 15 25.9375C15 25.9375 24.375 25.9375 26.75 25.3125C27.4008 25.1245 27.9885 24.7637 28.4507 24.2685C28.9128 23.7733 29.2323 23.1622 29.375 22.5C30 20.125 30 15.0625 30 15.0625C30 15.0625 30 10.0625 29.375 7.6875V7.75Z" fill="#717171"/>
<path d="M12.1875 20.3125V10.9375L19.6875 15.625L12.1875 20.3125Z" fill="white"/>
</svg>
