<svg width="30" height="30" viewBox="0 0 30 30" fill="none" xmlns="http://www.w3.org/2000/svg">
<path d="M21.2687 0H8.10625C3.63625 0 0 3.63688 0 8.10625V21.2687C0 25.7375 3.63625 29.375 8.10625 29.375H21.2687C25.7375 29.375 29.375 25.7375 29.375 21.2687V8.10625C29.375 3.6375 25.7375 0 21.2687 0ZM26.7688 21.2687C26.7688 24.3012 24.3012 26.7688 21.2687 26.7688H8.10625C5.07375 26.7688 2.60625 24.3012 2.60625 21.2687V8.10625C2.60625 5.07375 5.07375 2.60625 8.10625 2.60625H21.2687C24.3012 2.60625 26.7688 5.07375 26.7688 8.10625V21.2687Z" fill="#717171"/>
<path d="M14.6875 7.11874C10.5138 7.11874 7.11877 10.5144 7.11877 14.6875C7.11877 18.8612 10.5138 22.2562 14.6875 22.2562C18.8613 22.2562 22.2563 18.8612 22.2563 14.6875C22.2563 10.5144 18.8613 7.11874 14.6875 7.11874ZM14.6875 19.65C11.9513 19.65 9.72502 17.4237 9.72502 14.6875C9.72502 11.9512 11.9506 9.725 14.6875 9.725C17.4238 9.725 19.65 11.9512 19.65 14.6875C19.65 17.4237 17.4238 19.65 14.6875 19.65ZM22.5738 4.90874C22.0676 4.90984 21.5824 5.11089 21.2238 5.46812C20.8656 5.82699 20.6638 6.31295 20.6625 6.81999C20.6625 7.32249 20.8675 7.81562 21.2238 8.17187C21.5828 8.52846 22.0678 8.72941 22.5738 8.73125C23.0781 8.73125 23.5694 8.52624 23.9256 8.17187C24.2819 7.81562 24.485 7.32187 24.485 6.81999C24.485 6.31624 24.2819 5.82249 23.9256 5.46812C23.5665 5.1105 23.0806 4.90941 22.5738 4.90874Z" fill="#717171"/>
</svg>
