<svg width="49" height="43" viewBox="0 0 49 43" fill="none" xmlns="http://www.w3.org/2000/svg">
<path d="M11.34 21.34C19.83 21.34 25.71 13.63 25.71 7.34C25.71 2.76 21.36 0.75 17.22 0.75C7.91998 0.75 2.84999 9.05 2.84999 14.75C2.84999 19.34 7.24999 21.35 11.35 21.35L11.34 21.34ZM34 21.34C42.49 21.34 48.37 13.63 48.37 7.34C48.37 2.76 44.01 0.75 39.88 0.75C30.58 0.75 25.51 9.05 25.51 14.75C25.51 19.34 29.91 21.35 34.01 21.35L34 21.34ZM37.92 35.76C32.67 40.21 25.65 42.5 18.02 42.02C13.7726 41.756 9.73331 40.0883 6.53672 37.2791C3.34014 34.4699 1.16744 30.6783 0.359985 26.5H0.819985C2.12887 29.2135 4.10398 31.5511 6.56092 33.2945C9.01785 35.038 11.8765 36.1305 14.87 36.47C21.33 37.18 29.24 34.27 33.58 30.13L28.71 26.46L43.18 26.5L40.07 41.75L37.91 35.77L37.92 35.76Z" fill="#EA1D2C"/>
</svg>
