<svg width="12" height="12" viewBox="0 0 12 12" fill="#ea1d2c" xmlns="http://www.w3.org/2000/svg"><path fill-rule="evenodd" clip-rule="evenodd" d="M7.274.633a1.6 1.6 0 0 0-2.55 0l-.613.808-1.005-.138a1.6 1.6 0 0 0-1.803 1.803l.138 1.005-.808.613a1.6 1.6 0 0 0 0 2.55l.808.613-.138 1.004a1.6 1.6 0 0 0 1.803 1.803l1.005-.138.613.808a1.6 1.6 0 0 0 2.55 0l.613-.808 1.004.138a1.6 1.6 0 0 0 1.803-1.803l-.138-1.004.808-.613a1.6 1.6 0 0 0 0-2.55l-.808-.613.138-1.005a1.6 1.6 0 0 0-1.803-1.803l-1.004.138-.613-.808zM3.922 5.9a.51.51 0 0 1 .728 0l.64.647L7.329 4.19a.51.51 0 0 1 .726-.049c.213.19.235.518.048.734L5.34 8.07 3.922 6.635a.524.524 0 0 1 0-.735z"></path></svg>