<svg width="400" height="217" viewBox="0 0 400 217" fill="none" xmlns="http://www.w3.org/2000/svg">
<path fill-rule="evenodd" clip-rule="evenodd" d="M400 0.480001C393.29 0.480001 374.95 -0.339999 369.52 0.810001L362.49 37.27C352.32 36.02 345.43 35.29 336.14 38.92C318.26 45.92 302.37 66 296 85.74C293.67 92.95 291.73 103.09 294.23 111.09C301.47 134.27 331.29 125.32 342.01 115.21C346.81 110.69 345.09 108.51 349.13 107.94L345.79 125.47L375.8 125.51L400 0.480001V0.480001Z" fill="#ED3237"/>
<path fill-rule="evenodd" clip-rule="evenodd" d="M199.57 69.36C201.09 53.45 193.7 44.93 182.98 39.86C152.31 25.36 106.9 50.32 103.01 92.9C100.29 122.77 132.65 132.27 158.84 122.48C178.06 115.3 197.15 94.61 199.57 69.36V69.36Z" fill="#ED3237"/>
<path fill-rule="evenodd" clip-rule="evenodd" d="M295.23 73.03C304.55 19.85 210.54 22.69 199.63 89.19C196.88 105.92 202.79 114.8 212.89 120.79C223.47 127.06 239.57 127.41 252.24 123.41C272.82 116.92 291.02 97.05 295.23 73.03Z" fill="#ED3237"/>
<path fill-rule="evenodd" clip-rule="evenodd" d="M63.92 37.86H53.52L50.33 55.42L60.47 55.43L42.29 147.95L72.81 147.97L91.26 55.56L113.62 55.4L116.98 37.87L95.01 37.86C94.58 29.9 98.85 21.01 104.93 18.96C113.01 16.25 123.11 19.13 130.12 21.41L133.79 3.1C129.93 2.42 126.61 0.840003 122.28 0.540003C109.75 -0.349997 96.83 0.0100031 86.68 6.23C78.24 11.41 72.07 18.97 67.86 27.8C66.4 30.86 65.33 35.4 63.92 37.86V37.86Z" fill="#ED3237"/>
<path fill-rule="evenodd" clip-rule="evenodd" d="M212.91 148.49C214.95 150.87 220.34 154.53 223.02 156.59C225.39 158.42 231.81 163.14 233.01 164.9C230.8 166.55 228.86 168.54 226.37 170.42C196.3 193.06 151.12 201.9 118.9 178.64C109.63 171.94 104.2 165.53 98.38 156.3C94.83 150.68 95.75 148.48 92.86 147.94C91.16 151.35 98.53 168.22 100.31 171.54C104.54 179.4 108.66 184.58 113.39 190.28C122.09 200.77 138.84 210.7 153.17 214.2C179.8 220.68 209.24 214.55 232.61 202.37C240.57 198.22 250.4 190.04 251.46 189.53C252.85 191.69 255.05 198.94 256.05 201.92C256.81 204.17 259.31 212.19 260.64 214.11C261.74 211.9 273.61 152.94 273.74 148.61L212.91 148.49V148.49Z" fill="#ED3237"/>
<path fill-rule="evenodd" clip-rule="evenodd" d="M47.22 37.85L16.74 38.09L0 125.47L30.27 125.43L47.22 37.85Z" fill="#ED3237"/>
<path fill-rule="evenodd" clip-rule="evenodd" d="M19.46 25.37L50.15 25.39L54.84 0.499996L24.23 0.479996L19.46 25.37Z" fill="#ED3237"/>
</svg>
