<svg width="339" height="252" viewBox="0 0 339 252" fill="none" xmlns="http://www.w3.org/2000/svg">
<path d="M154.48 250.76C134.854 250.466 88.7508 249.975 46.6284 249.582C28.113 249.386 11.8194 238.092 4.13556 220.122C-3.36317 202.544 -0.493285 182.609 11.3566 168.272C12.7452 166.603 14.2264 165.13 15.4299 164.049C37.3707 145.686 54.59 120.252 65.1437 90.6938C74.494 64.5725 98.1937 32.461 157.906 28.533C158.461 28.533 159.017 28.533 159.572 28.533H160.961C185.679 28.533 209.749 22.15 230.486 9.67856C241.225 3.29554 253.538 0.0549316 265.943 0.0549316C267.054 0.0549316 268.35 0.0549316 269.461 0.251332C307.788 2.21534 338.246 35.3088 338.986 75.7674C339.449 100.808 328.247 124.573 309.176 139.499C286.125 157.372 266.221 179.565 249.65 205.195C230.116 235.637 201.417 251.055 164.108 251.055C163.923 250.957 160.405 250.957 154.48 250.76Z" fill="#FFEEEE"/>
</svg>
