<svg width="265" height="231" viewBox="0 0 265 231" fill="none" xmlns="http://www.w3.org/2000/svg">
<path d="M201.808 78.0098L201.802 77.6276L201.797 77.2454L203.687 29.49C201.665 27.4231 196.371 28.4071 191.313 28.5046C186.255 28.602 185.187 30.3646 182.063 33.3201C177.063 38.0743 174.134 45.9972 174.383 54.7864C174.526 65.1054 179.322 72.9663 184.946 76.7435C187.375 78.3803 190.047 79.2508 192.578 79.1031C193.718 79.0939 202.075 79.0269 202.958 78.765C204.096 78.6285 198.009 78.0403 201.808 78.0098Z" fill="#FCBB00"/>
<path d="M194.985 74.7267C189.486 71.0752 185.822 62.8214 185.821 53.6462C185.861 47.4016 187.427 41.5271 190.409 37.2979C193.267 33.1971 196.909 30.8741 200.837 30.8426C202.865 30.8263 204.901 31.4472 206.692 32.7072C212.192 36.3587 215.856 44.6125 215.857 53.7877C215.817 60.0323 214.251 65.9068 211.269 70.136C208.411 74.2368 204.769 76.5598 200.841 76.5913C198.687 76.6086 196.777 75.9867 194.985 74.7267Z" fill="#DCDCDC"/>
<path d="M205.703 34.2408C210.82 37.6408 214.095 45.2611 214.087 53.7999C214.12 65.2695 208.043 74.8764 200.819 74.9343C199.172 74.9475 197.517 74.451 195.854 73.3173C190.736 69.9174 187.461 62.2971 187.469 53.7583C187.514 47.8956 188.959 42.4039 191.69 38.3039C194.173 34.5881 197.442 32.6503 200.739 32.7513C202.386 32.7381 204.168 33.2336 205.703 34.2408ZM207.563 31.2947C205.516 29.9093 203.224 29.163 200.816 29.1823C191.562 29.129 183.984 40.1498 184.047 53.7857C184.061 63.8536 188.237 72.4863 194.12 76.2624C196.167 77.6479 198.586 78.3932 200.994 78.3739C210.247 78.4271 217.825 67.4063 217.762 53.7704C217.624 43.8309 213.448 35.1983 207.563 31.2947Z" fill="#DCDCDC"/>
<path fill-rule="evenodd" clip-rule="evenodd" d="M188.891 37.6895C186.164 42.0444 184.473 48.0478 184.818 54.6721C185.037 61.2974 187.147 67.1428 190.372 71.1952C193.472 75.376 197.562 77.7646 201.996 77.6016C206.303 77.4397 210.195 74.7322 213.049 70.3762C215.777 66.0213 217.468 60.0179 217.122 53.3936C216.903 46.7683 214.794 40.9228 211.569 36.8705C208.468 32.6897 204.379 30.3011 199.945 30.4641C195.511 30.627 191.619 33.3345 188.891 37.6895Z" fill="#999999"/>
<path d="M207.69 31.4216C205.261 29.9117 202.714 29.0399 199.798 29.0633C194.857 29.2303 190.717 32.3223 187.739 36.9343C184.761 41.5464 183.2 47.8039 183.423 54.6843C183.772 61.5638 185.885 67.6644 189.241 71.9708C190.662 73.8711 192.204 75.3881 193.995 76.5208C196.424 78.0307 198.971 78.9025 201.887 78.8791C206.828 78.7121 210.968 75.6201 213.946 71.0081C216.924 66.396 218.485 60.1385 218.262 53.2581C218.039 46.3776 215.801 40.4054 212.444 35.9716C211.152 34.1977 209.481 32.5543 207.69 31.4216Z" fill="#FCBB00" stroke="#F2F2F2" stroke-width="2" stroke-miterlimit="10"/>
<path fill-rule="evenodd" clip-rule="evenodd" d="M200.78 41.9483C200.78 41.9483 200.907 41.9473 200.78 41.9483L200.914 42.4561L200.78 41.9483Z" fill="#DADADA"/>
<path fill-rule="evenodd" clip-rule="evenodd" d="M201.367 61.4069L201.5 61.7875L201.367 61.4069Z" fill="#DADADA"/>
<path d="M194.884 20.3084C192.603 20.3121 190.693 18.3736 190.682 16.0438L190.639 7.11285C190.628 4.78303 192.519 2.83846 194.8 2.83477C197.081 2.83109 198.991 4.76954 199.002 7.09935L199.044 15.8362C199.246 18.3598 197.355 20.3044 194.884 20.3084Z" fill="#EA1D2C"/>
<path d="M176.769 27.5454C175.626 27.5472 174.672 27.1603 173.715 26.1905L167.781 19.9839C166.059 18.2384 166.045 15.5189 167.751 13.768C169.456 12.017 172.122 12.0128 173.845 13.7583L179.779 19.9649C181.501 21.7104 181.515 24.4299 179.809 26.1808C179.051 26.959 177.911 27.5436 176.769 27.5454Z" fill="#EA1D2C"/>
<path d="M211.89 27.4379C210.748 27.4397 209.603 27.053 208.836 26.0829C207.114 24.3374 207.101 21.6178 208.806 19.8668L214.87 13.6409C216.576 11.8899 219.242 11.8857 220.965 13.6313C222.687 15.3768 222.7 18.0964 220.995 19.8474L214.931 26.0732C214.173 26.8515 213.033 27.436 211.89 27.4379Z" fill="#EA1D2C"/>
<path d="M202.66 53.8901C204.11 53.8293 205.122 54.1059 205.733 54.646C206.192 55.0786 206.434 55.7349 206.462 56.7249L206.47 56.9815C206.753 60.3884 202.891 60.7093 202.891 60.7093L200.249 60.7532L195.935 60.8616C195.191 60.874 194.649 61.4699 194.67 62.2033C194.691 62.9366 195.302 63.4767 196.046 63.4643L200.36 63.3559L200.403 64.8592C200.424 65.5926 201.035 66.1327 201.779 66.1203C202.523 66.1079 203.064 65.512 203.044 64.7787L203.001 63.2754C206.497 63.1806 209.245 60.347 209.11 56.901L209.103 56.6443C209.055 54.9577 208.535 53.6824 207.503 52.7458C206.395 51.737 204.743 51.2142 202.66 51.2855C202.623 51.2862 202.623 51.2862 202.586 51.2868L199.944 51.3307L199.498 51.3381C197.712 51.3678 196.184 49.9625 196.134 48.2025L196.13 48.0925C196.08 46.3326 197.49 44.8418 199.275 44.8121L199.722 44.8047L202.363 44.7608L206.194 44.6605C206.938 44.6481 207.48 44.0522 207.459 43.3188C207.438 42.5855 206.864 42.0448 206.121 42.0938L202.252 42.1581L202.209 40.6548C202.189 39.9215 201.578 39.3814 200.834 39.3938C200.09 39.4061 199.548 40.0021 199.569 40.7354L199.612 42.2387L199.165 42.2461C195.929 42.2999 193.362 44.9838 193.49 48.1731L193.493 48.2831C193.621 51.4724 196.336 54.0318 199.61 53.9774L200.057 53.97L202.882 53.8497" fill="#F2F2F2"/>
<path d="M228.792 225.248C211.969 225.248 122.424 225.248 45.5352 225.248V135.034C133.221 135.034 135.722 138.656 151.398 138.656C157.185 138.656 239.274 145.203 239.274 149.411V217.589C239.274 221.797 234.579 225.248 228.792 225.248Z" fill="#8B1332"/>
<path d="M258.212 225.444H150.538V138.187H251.105C258.212 138.187 258.033 144.381 258.212 147.8C259.529 172.976 258.212 197.431 258.212 225.444Z" fill="#ECA6B2"/>
<path d="M220.459 183.982L220.3 223.495H248.423V183.188C248.423 181.125 246.905 179.459 244.987 179.459H224.374C224.374 179.38 220.3 179.221 220.459 183.982Z" fill="#8B1332"/>
<path d="M169.848 183.982L169.677 223.495H199.676V183.188C199.676 181.125 198.056 179.459 196.011 179.459H174.024C174.024 179.38 169.678 179.221 169.848 183.982Z" fill="#8B1332"/>
<path d="M200.486 154.265H157.224C156.069 154.176 155.448 155.154 155.448 157.286V158.707L202.53 159.418L202.441 158.085C202.441 155.953 202.085 154.265 200.486 154.265Z" fill="#C40029"/>
<path d="M211.236 180.826L202.53 158.973C202.353 158.44 201.908 158.085 201.464 158.085H186.362L195.69 180.826H180.411L171.083 158.085H155.803C155.537 158.085 155.448 158.44 155.537 158.707L163.887 180.116C164.42 180.56 164.687 181.359 164.687 182.159" fill="#E90029"/>
<path d="M180.144 180.738L180.233 182.603C180.766 188.289 184.231 192.553 188.228 192.553C192.226 192.553 195.513 188.2 196.046 182.515L195.868 181.004" fill="#E90029"/>
<path d="M163.977 180.382C164.421 180.827 164.687 181.448 164.687 182.159V182.337C164.687 188.733 168.152 192.73 172.505 192.73C176.502 192.73 179.789 188.378 180.322 182.692C180.411 182.692 180.5 180.915 180.5 180.915L163.977 180.382Z" fill="#FDEFE1"/>
<path d="M196.134 182.337C196.134 188.733 200.398 192.642 204.751 192.642C206.972 192.642 209.015 191.131 210.17 188.733C212.036 185.002 211.325 180.827 211.325 180.827C208.927 180.827 195.957 180.915 195.957 180.915L196.134 182.337Z" fill="#FDEFE1"/>
<path d="M186.895 158.174H171.083L180.41 180.827L195.867 180.915L186.895 158.174Z" fill="#FDEFE1"/>
<path d="M253.698 154.265H210.436C209.281 154.176 208.659 155.154 208.659 157.286V158.707L255.741 159.418L255.653 158.085C255.741 155.953 255.297 154.265 253.698 154.265Z" fill="#C40029"/>
<path d="M264.536 180.826L255.831 158.973C255.653 158.44 255.209 158.085 254.765 158.085H239.663L248.991 180.826H233.711L224.383 158.085H209.104C208.838 158.085 208.749 158.44 208.838 158.707L217.188 180.116C217.721 180.56 217.987 181.359 217.987 182.159" fill="#E90029"/>
<path d="M233.444 180.738L233.533 182.603C234.066 188.289 237.53 192.553 241.528 192.553C245.525 192.553 248.812 188.2 249.345 182.515L249.167 181.004" fill="#E90029"/>
<path d="M217.187 180.382C217.631 180.827 217.898 181.448 217.898 182.159V182.337C217.898 188.733 221.362 192.73 225.715 192.73C229.713 192.73 233 188.378 233.533 182.692C233.622 182.692 233.71 180.915 233.71 180.915L217.187 180.382Z" fill="#FDEFE1"/>
<path d="M249.345 182.337C249.345 188.733 253.609 192.642 257.962 192.642C260.183 192.642 262.226 191.131 263.381 188.733C265.246 185.002 264.536 180.827 264.536 180.827C262.137 180.827 249.167 180.915 249.167 180.915L249.345 182.337Z" fill="#FDEFE1"/>
<path d="M240.106 158.174H224.294L233.71 180.827L249.078 180.915L240.106 158.174Z" fill="#FDEFE1"/>
<path d="M45.5352 89.1873L45.5352 142.428C106.946 142.428 106.946 142.428 114.577 142.428L115.044 89.7032C114.967 89.7032 81.2249 89.7032 45.5352 89.1873Z" fill="#8B1332"/>
<path d="M105.752 92.371L42.0334 92.2261C40.1508 92.2261 38.413 89.9091 40.73 86.2887C47.2468 75.9343 64.7695 45.5229 64.7695 45.5229C65.6384 44.1472 67.159 43.3507 68.7519 43.3507L137.395 43.1335C137.395 43.0611 105.173 92.9502 105.752 92.371Z" fill="#B72436"/>
<path fill-rule="evenodd" clip-rule="evenodd" d="M103.344 92.7384L135.561 43.7736C136.255 42.6773 137.95 42.6043 138.798 43.7005L174.22 92.7384C171.728 92.5887 168.804 92.6231 166.22 92.7158V138.272H110.242L110.515 92.7388C107.03 92.7406 104.772 92.7484 103.36 92.7579C103.378 92.7521 103.374 92.7457 103.344 92.7384ZM101.55 92.7993C101.008 92.7932 101.07 92.7733 103.36 92.7579C103.237 92.7977 102.092 92.8054 101.55 92.7993Z" fill="#ECA6B2"/>
<ellipse cx="140.951" cy="86.9687" rx="7.3946" ry="11.0919" fill="#8B1332"/>
<path d="M9.399 176.07L8.79541 228.657C8.79541 229.487 9.47444 230.091 10.3798 230.091C63.2685 230.241 68.3989 230.241 68.3989 230.241L83.0357 168.903C83.0357 168.903 9.399 173.731 9.399 176.07Z" fill="#8B1332"/>
<path d="M119.401 228.506V181.276L54.4409 180.446L54.1392 230.242H117.666C118.647 230.242 119.401 229.487 119.401 228.506Z" fill="#ECA6B2"/>
<path d="M79.8662 201.572L79.7908 230.242H101.52V201.043C101.52 199.685 100.388 198.554 99.0299 198.554H82.7332C82.6578 198.478 79.7153 198.403 79.8662 201.572Z" fill="#8B1332"/>
<path d="M19.4326 209.72C19.4326 213.719 22.6769 216.887 26.6756 216.887H33.6922C37.6909 216.887 40.9351 213.643 40.9351 209.72C40.9351 205.721 37.6909 202.552 33.6922 202.552H26.6756C22.6769 202.401 19.4326 205.646 19.4326 209.72Z" fill="#ECA6B2"/>
<path d="M1.85358 179.768C2.23082 178.787 14.906 161.811 21.0172 153.738C22.3753 151.928 24.4124 150.871 26.5249 150.871H68.3227C72.3215 162.641 54.8931 192.066 54.365 187.162C54.2895 187.162 54.2895 187.162 54.2141 187.162C53.6105 192.066 49.8381 195.838 45.2359 195.838C40.6336 195.838 36.8612 192.066 36.2576 187.086C36.1821 187.086 36.1822 187.086 36.1067 187.086C35.5031 191.99 31.7308 195.838 27.1285 195.838C22.5262 195.838 18.6783 191.99 18.1502 187.086C18.0748 187.086 18.0748 187.086 17.9993 187.086C17.3958 192.368 13.1707 196.366 8.11571 195.838C3.81521 195.385 0.420065 191.538 0.0428284 186.86C-0.183514 184.144 0.570979 181.654 1.85358 179.768Z" fill="#912A37"/>
<path d="M45.2361 195.838C49.8384 195.838 53.6107 192.065 54.2143 187.161C54.2898 187.161 54.2897 187.161 54.3652 187.161C54.5161 188.142 55.2706 187.689 56.4777 186.18L62.2872 150.871H47.424L36.2578 187.086C36.8614 191.99 40.6338 195.838 45.2361 195.838Z" fill="#C6BDB5"/>
<path d="M26.5249 150.872C24.4124 150.872 22.3753 151.928 21.0173 153.739C14.906 161.812 2.15544 178.863 1.85365 179.769C0.495594 181.655 -0.183451 184.145 0.0428911 186.785C0.420128 191.538 3.89072 195.311 8.11578 195.763C13.0953 196.292 17.3958 192.293 17.9994 187.012C18.0748 187.012 18.0748 187.012 18.1503 187.012L34.4469 150.797H26.5249V150.872Z" fill="#C6BDB5"/>
<path d="M96.7667 150.871H58.2885C57.2322 164.15 54.4407 184.445 54.4407 185.803C54.4407 191.311 58.5148 195.838 63.4944 195.838C68.0967 195.838 71.869 192.065 72.4726 187.161C72.5481 187.161 72.5481 187.161 72.6235 187.161C73.2271 192.065 90.6554 187.161 90.7309 187.161C91.3345 192.065 95.1068 195.913 99.7091 195.913C104.311 195.913 108.159 192.065 108.687 187.161" fill="#E90029"/>
<path d="M81.6772 195.838C86.2795 195.838 90.0519 192.065 90.6555 187.086L84.4688 150.871H72.7745L72.5481 187.161C73.0008 191.99 77.0749 195.838 81.6772 195.838Z" fill="#FDEFE1"/>
<path d="M108.839 187.614C109.669 192.518 113.818 196.139 118.571 195.611C122.872 195.159 126.267 191.311 126.644 186.633C126.871 183.992 126.116 181.503 124.833 179.616C124.532 178.711 113.139 163.697 106.726 152.984C105.745 151.399 103.784 150.72 102.048 150.72H95.2581L108.839 187.01V187.614Z" fill="#FDEFE1"/>
<path d="M77.1873 29.5973H69.9443V54.9476H77.1873V29.5973Z" fill="#8B1332"/>
<path d="M84.355 29.5973H77.1121V54.9476H84.355V29.5973Z" fill="#ECA6B2"/>
<path d="M61.8716 27.2584C61.8716 28.8428 63.1542 30.3518 64.9649 30.3518H78.9981C80.5825 30.3518 82.0915 29.0692 82.0915 27.2584C82.0915 25.674 80.8089 24.1651 78.9981 24.1651H64.9649C63.3051 24.1651 61.8716 25.4477 61.8716 27.2584Z" fill="#912A37"/>
<path d="M73.1885 27.2585C73.1885 28.8429 74.4711 30.3518 76.2818 30.3518H90.315C91.8994 30.3518 93.4084 29.0692 93.4084 27.2585C93.4084 25.6741 92.1258 24.1651 90.315 24.1651H76.2818C74.622 24.1651 73.1885 25.4477 73.1885 27.2585Z" fill="#E90029"/>
</svg>
