<svg width="717" height="532" viewBox="0 0 717 532" fill="none" xmlns="http://www.w3.org/2000/svg">
<g clip-path="url(#clip0_1:125)">
<path d="M358.5 532C556.329 532 716.702 412.908 716.702 266C716.702 119.092 556.329 0 358.5 0C160.671 0 0.298401 119.092 0.298401 266C0.298401 412.908 160.671 532 358.5 532Z" fill="#FDEDEE"/>
<path d="M428.5 427.741C453.608 426.679 473.853 423.018 473.7 419.595C473.56 416.158 453.077 414.243 427.969 415.305C402.861 416.381 382.616 420.028 382.769 423.451C382.909 426.888 403.392 428.802 428.5 427.741Z" fill="#BB202B" fill-opacity="0.701961"/>
<path fill-rule="evenodd" clip-rule="evenodd" d="M443.52 331.361C443.52 331.361 438.392 331.082 438.266 333.667C438.266 333.667 442.081 332.283 443.744 333.778L443.52 331.361V331.361Z" fill="#EFA14D"/>
<path d="M454.6 410.122L466.476 417.206C468.32 418.295 467.859 421.118 465.722 421.523C458.568 422.906 446.342 421.691 443.744 416.228C442.304 413.168 444.093 409.717 445.197 409.717L454.6 410.122V410.122Z" fill="#C8002D"/>
<path d="M395.358 407.76C395.358 407.76 376.552 419.511 380.646 421.635C386.011 424.401 402.107 420.14 402.107 420.14L402.568 420.084C404.007 419.916 405.278 419.162 406.089 418.016C408.101 415.124 410.755 409.717 403.378 408.152L395.358 407.76Z" fill="#C8002D"/>
<path d="M455.578 410.695C454.991 410.345 454.712 409.717 454.823 409.074L458.917 382.122C459.322 378.894 456.612 380.333 454.712 377.679L446.231 365.062C444.554 362.701 443.813 359.305 441.438 360.968L439.706 362.24L422.115 361.778L395.358 407.76C395.358 407.76 386.36 413.978 390.622 414.383C393.849 414.719 399.969 413.461 403.029 411.617C404.007 411.044 404.873 410.234 405.558 409.311L419.642 389.723C420.047 389.15 420.508 388.633 421.025 388.116L436.422 372.956C436.827 372.327 436.995 369.673 437.456 370.245L443.813 379.062C444.554 380.166 444.903 381.479 444.736 382.806L445.252 410.066C445.252 411.267 446.063 412.357 447.209 412.818C450.562 414.09 457.534 416.563 460.706 416.283C464.115 415.934 458.051 412.134 455.578 410.695V410.695Z" fill="#AF709E"/>
<path d="M478.073 335.567L476.047 329.699C475.586 328.371 474.496 327.505 473.336 327.673C472.652 327.784 472.009 328.245 471.674 328.944C471.324 329.629 471.213 330.551 471.38 331.417L472.135 331.249C472.009 330.607 472.065 329.978 472.358 329.461C472.596 328.944 473.057 328.651 473.462 328.595C474.203 328.483 474.957 329.056 475.306 330.034L477.318 335.916C477.374 336.084 477.556 336.21 477.724 336.21C477.779 336.21 477.779 336.21 477.835 336.14C478.073 336.028 478.129 335.804 478.073 335.567V335.567Z" fill="#9A1919"/>
<path fill-rule="evenodd" clip-rule="evenodd" d="M470.57 333.206C471.436 331.543 470.807 329.629 470.807 329.168C470.807 328.595 470.57 329.349 470.402 328.595C470.402 328.134 470.919 327.337 471.087 326.876C472.009 324.445 470.402 323.984 469.648 325.605C468.949 326.988 465.666 330.495 465.316 332.06L464.925 333.904C464.688 334.826 464.282 335.679 463.71 336.433L458.805 342.651C457.366 344.495 455.34 345.878 453.091 346.521H441.103L442.416 358.956L458.694 352.85C460.077 352.333 461.223 351.411 462.089 350.196L473.113 334.756L470.57 333.206V333.206Z" fill="#AF709E"/>
<path fill-rule="evenodd" clip-rule="evenodd" d="M470.276 328.371C469.536 329.517 468.781 331.082 468.209 332.339C467.286 334.365 468.963 337.872 469.759 337.761C469.759 337.761 473.225 334.757 473.63 333.373C473.518 331.138 470.276 329.573 470.276 328.371Z" fill="#77486F"/>
<path d="M478.59 335.455L476.564 329.573C476.103 328.246 475.013 327.393 473.853 327.561C473.169 327.673 472.526 328.134 472.191 328.832C471.841 329.517 471.73 330.439 471.897 331.305L472.652 331.138C472.526 330.495 472.596 329.866 472.875 329.349C473.113 328.832 473.574 328.539 473.979 328.483C474.72 328.371 475.474 328.944 475.823 329.922L477.835 335.804C477.891 335.972 478.073 336.084 478.241 336.084C478.296 336.084 478.296 336.084 478.352 336.028C478.59 335.916 478.646 335.623 478.59 335.455V335.455Z" fill="#C13547"/>
<path d="M472.414 329.238L470.402 335.106C470.346 335.287 470.165 335.399 469.997 335.399C469.941 335.399 469.941 335.399 469.885 335.343C469.704 335.218 469.592 334.994 469.704 334.756L471.73 328.888L472.414 329.238V329.238Z" fill="#9A1919"/>
<path d="M473.923 328.427C473.169 328.315 472.414 328.888 472.065 329.866L470.053 335.735C469.997 335.916 469.815 336.028 469.648 336.028C469.592 336.028 469.592 336.028 469.536 335.972C469.354 335.86 469.243 335.623 469.354 335.399L471.38 329.517C471.841 328.19 472.931 327.337 474.091 327.505L473.923 328.427Z" fill="#C13547"/>
<path fill-rule="evenodd" clip-rule="evenodd" d="M473.336 331.99C473.686 332.228 474.314 333.611 473.225 334.016C472.47 334.239 469.48 334.128 469.48 334.128C469.48 334.128 468.097 334.128 468.488 332.912C468.837 331.934 470.626 331.99 470.626 331.99L472.819 332.06L473.336 331.99Z" fill="#AF709E"/>
<path fill-rule="evenodd" clip-rule="evenodd" d="M469.997 331.934C469.997 331.934 473.336 332.283 473.853 331.711C474.203 331.305 474.203 330.551 473.742 330.327C473.057 329.978 470.807 329.922 470.807 329.922H470.863C470.276 329.922 469.704 330.16 469.424 330.495C469.075 330.9 469.075 331.473 469.997 331.934V331.934Z" fill="#AF709E"/>
<path fill-rule="evenodd" clip-rule="evenodd" d="M470.919 329.922C470.919 329.922 473.057 330.607 473.686 330.216C474.147 329.922 474.314 329 473.979 328.651C473.462 328.134 471.953 328.19 471.213 328.19C470.682 328.245 469.354 329.293 470.919 329.922Z" fill="#AF709E"/>
<path fill-rule="evenodd" clip-rule="evenodd" d="M473.504 331.99C473.504 332.046 473.462 332.088 473.406 332.102C472.847 332.13 471.995 332.13 471.282 332.116C470.933 332.116 470.598 332.116 470.374 332.102C470.249 332.102 470.165 332.102 470.095 332.102H470.011H469.997V331.99V331.892H470.025H470.095C470.165 331.906 470.262 331.906 470.374 331.906C470.612 331.906 470.933 331.92 471.282 331.92C471.995 331.92 472.847 331.92 473.392 331.892C473.448 331.892 473.49 331.934 473.504 331.99V331.99ZM469.899 331.99C469.899 331.934 469.941 331.892 469.997 331.892V331.99V332.102C469.941 332.102 469.885 332.046 469.899 331.99Z" fill="#89567E"/>
<path fill-rule="evenodd" clip-rule="evenodd" d="M470.472 329.838C470.486 329.782 470.542 329.755 470.598 329.768L470.57 329.866L470.542 329.964C470.5 329.95 470.458 329.894 470.472 329.838V329.838ZM470.57 329.866L470.542 329.964H470.556H470.57C470.584 329.978 470.598 329.978 470.626 329.978C470.682 329.992 470.751 330.006 470.849 330.034C471.031 330.062 471.282 330.118 471.59 330.16C472.191 330.271 472.959 330.369 473.63 330.369C473.686 330.369 473.728 330.327 473.728 330.271C473.728 330.216 473.686 330.174 473.63 330.174C472.973 330.174 472.219 330.062 471.618 329.964C471.324 329.922 471.059 329.866 470.877 329.824C470.793 329.81 470.724 329.796 470.668 329.782C470.64 329.782 470.626 329.768 470.612 329.768H470.598L470.57 329.866V329.866Z" fill="#89567E"/>
<path fill-rule="evenodd" clip-rule="evenodd" d="M482.977 355.966H465.61C464.925 355.966 464.394 355.449 464.394 354.75L465.442 335.287C465.442 334.589 465.959 334.072 466.644 334.072H481.985C482.684 334.072 483.201 334.589 483.201 335.287L484.235 354.75C484.179 355.393 483.662 355.966 482.977 355.966V355.966Z" fill="#EC1D2C"/>
<path fill-rule="evenodd" clip-rule="evenodd" d="M453.035 346.451C446.063 348.477 433.6 346.689 426.907 342.483C422.464 345.934 422.632 352.683 419.53 364.028C418.482 367.717 436.422 368.289 446.119 366.166C447.39 357.755 451.414 351.872 453.035 346.451V346.451Z" fill="#AF709E"/>
<path fill-rule="evenodd" clip-rule="evenodd" d="M427.131 318.06C427.131 318.004 427.536 317.082 427.885 316.327C428.807 314.078 427.718 313.267 426.278 315.754L424.546 318.633L427.131 318.06V318.06Z" fill="#AF709E"/>
<path fill-rule="evenodd" clip-rule="evenodd" d="M422.925 318.06C421.947 318.339 421.71 318.982 421.947 319.555L423.274 323.705C423.442 324.277 424.029 324.333 424.602 324.166L433.488 321.218C434.061 321.05 434.354 320.421 434.117 319.834L432.845 315.978C432.678 315.405 432.035 315.056 431.462 315.238L422.925 318.06V318.06Z" fill="#9A1919"/>
<path fill-rule="evenodd" clip-rule="evenodd" d="M421.71 323.872C423.163 323.062 424.825 323.523 425.231 323.523C426.153 323.467 427.885 322.838 428.458 322.727C428.989 322.601 429.562 322.838 429.394 323.299C429.268 323.705 427.368 324.515 425.929 325.2C425.286 325.549 424.141 326.234 423.847 326.876L419.991 336.084C419.642 336.782 419.642 336.782 420.676 337.984L434.69 344.956C435.388 345.138 431.462 354.583 423.219 353.256L412.25 342.19C410.127 340.178 408.744 337.523 411.622 333.723L420.047 320.826L421.71 323.872V323.872Z" fill="#AF709E"/>
<path fill-rule="evenodd" clip-rule="evenodd" d="M423.163 323.411C422.813 323.593 421.542 323.928 421.025 324.515C420.27 325.367 417.742 324.962 417.672 324.571L421.486 317.934L423.163 323.411V323.411Z" fill="#77486F"/>
<path fill-rule="evenodd" clip-rule="evenodd" d="M423.163 317.305C423.093 316.9 422.464 315.754 421.598 316.844C421.193 317.361 420.27 319.261 420.27 319.261C420.27 319.261 419.809 320.365 420.857 320.477C421.71 320.533 422.352 319.094 422.352 319.094L423.163 317.305V317.305Z" fill="#AF709E"/>
<path fill-rule="evenodd" clip-rule="evenodd" d="M422.464 318.633C422.464 318.633 423.736 315.978 424.364 315.866C424.825 315.81 425.412 316.16 425.412 316.551C425.412 317.25 424.364 318.912 424.364 318.912V318.856C424.141 319.261 423.68 319.611 423.274 319.667C422.869 319.778 422.408 319.555 422.464 318.633V318.633Z" fill="#AF709E"/>
<path fill-rule="evenodd" clip-rule="evenodd" d="M423.205 317.222C423.247 317.249 423.261 317.305 423.233 317.347C423.009 317.78 422.827 318.214 422.688 318.549C422.632 318.717 422.576 318.87 422.548 318.968C422.52 319.01 422.52 319.052 422.506 319.08L422.492 319.108V319.122L422.408 319.094L423.205 317.222V317.222ZM422.408 319.094L422.324 319.066V319.052L422.338 319.024C422.352 318.996 422.352 318.954 422.38 318.912C422.408 318.8 422.464 318.661 422.52 318.493C422.66 318.158 422.841 317.697 423.079 317.263C423.107 317.222 423.163 317.208 423.205 317.222L422.408 319.094V319.094Z" fill="#89567E"/>
<path fill-rule="evenodd" clip-rule="evenodd" d="M457.478 374.507L449.57 367.884C447.502 366.166 446.692 363.399 447.502 360.856L448.885 356.427L447.446 353.605H447.502L445.993 350.894L443.981 346.451H442.765C442.765 346.451 444.666 353.884 440.292 353.423C436.129 352.962 433.656 348.295 433.949 347.555L434.983 345.194L432.678 344.09L429.324 350.084C426.278 354.066 421.947 352.222 421.947 352.222L419.348 364.084L404.929 390.645C403.546 393.23 405.111 396.401 407.989 396.806C426.558 399.573 446.636 396.527 453.901 395.2C455.69 394.85 457.129 393.523 457.534 391.735C458.75 387.194 460.245 378.545 457.478 374.507V374.507Z" fill="#C8002D"/>
<path fill-rule="evenodd" clip-rule="evenodd" d="M443.352 333.667C442.542 333.038 442.36 331.822 443.059 331.012C443.059 331.012 448.885 323.006 450.841 324.222C452.28 325.367 451.135 326.932 450.492 327.729L446.063 333.373C445.364 334.184 444.149 334.365 443.352 333.667V333.667Z" fill="#EFA14D"/>
<path fill-rule="evenodd" clip-rule="evenodd" d="M442.877 333.038C442.416 332.116 442.821 330.956 443.744 330.495L449.696 327.561C451.819 326.639 453.384 328.246 450.674 330.09L445.42 333.904C444.442 334.365 443.352 333.96 442.877 333.038Z" fill="#EFA14D"/>
<path fill-rule="evenodd" clip-rule="evenodd" d="M437.177 340.234L434.634 346.06C434.466 346.395 434.229 347.443 434.578 347.555C436.478 348.24 442.36 350.727 442.821 349.735L442.877 340.695L437.177 340.234V340.234Z" fill="#AF709E"/>
<path fill-rule="evenodd" clip-rule="evenodd" d="M439.594 342.832C443.227 342.776 446.119 338.333 446.063 335.679C446.063 333.778 444.149 333.317 442.416 332.982C437.749 331.99 434.634 337.188 434.634 339.605C434.69 341.449 437.861 342.832 439.594 342.832Z" fill="#AF709E"/>
<path fill-rule="evenodd" clip-rule="evenodd" d="M445.308 340.234C446.524 340.234 447.376 339.088 447.376 338.166C447.376 337.523 446.747 337.243 446.119 337.243C444.791 337.243 444.037 338.445 444.037 339.311C444.037 340.01 444.666 340.289 445.308 340.234V340.234Z" fill="#AF709E"/>
<path fill-rule="evenodd" clip-rule="evenodd" d="M442.821 334.24C441.843 333.904 440.516 332.689 440.865 331.711L444.037 321.218C444.386 320.24 445.714 318.577 447.39 319.261C449.807 320.295 449.165 321.399 448.829 322.433L445.993 333.373C444.959 334.477 442.821 334.24 442.821 334.24V334.24Z" fill="#EFA14D"/>
<path fill-rule="evenodd" clip-rule="evenodd" d="M436.604 341.91C437.344 342.539 438.728 342.371 440.46 342.427C440.642 342.427 440.698 342.707 440.516 342.776L436.017 343.922C435.905 343.978 435.793 343.81 435.849 343.699L436.478 342.022C436.422 341.966 436.534 341.91 436.604 341.91V341.91Z" fill="#77486F"/>
<path fill-rule="evenodd" clip-rule="evenodd" d="M442.654 333.778C442.654 333.778 445.937 334.756 444.791 337.816C444.791 337.816 445.071 337.299 446.175 337.299C446.175 337.299 447.32 334.882 445.364 333.038L442.654 333.778V333.778Z" fill="#EFA14D"/>
<path fill-rule="evenodd" clip-rule="evenodd" d="M437.945 335.092C437.987 334.938 438.141 334.854 438.294 334.896L440.418 335.539C440.432 335.539 440.446 335.539 440.46 335.553L444.847 337.565C444.987 337.635 445.043 337.788 444.973 337.928C444.917 338.068 444.75 338.124 444.61 338.068L440.251 336.056L438.141 335.427C437.987 335.385 437.903 335.232 437.945 335.092V335.092Z" fill="#9A1919"/>
<path fill-rule="evenodd" clip-rule="evenodd" d="M435.905 336.489C437.582 336.489 438.672 334.994 438.672 333.723C438.672 332.856 437.805 332.465 436.995 332.465C435.207 332.465 434.229 334.128 434.229 335.218C434.229 336.14 435.095 336.489 435.905 336.489Z" fill="#9A1919"/>
<path fill-rule="evenodd" clip-rule="evenodd" d="M439.314 338.04C441.103 338.04 442.249 336.433 442.249 335.162C442.249 334.24 441.326 333.834 440.46 333.834C438.56 333.834 437.526 335.567 437.526 336.727C437.582 337.649 438.504 338.04 439.314 338.04Z" fill="#9A1919"/>
<path fill-rule="evenodd" clip-rule="evenodd" d="M438.672 338.962C438.672 338.962 437.749 337.984 436.883 337.467C435.682 336.727 435.5 338.222 435.5 338.222C435.5 338.222 435.5 338.222 435.556 338.222C435.682 338.571 436.478 340.695 438.56 339.032C438.616 339.032 438.672 338.962 438.672 338.962Z" fill="#C8002D"/>
<path fill-rule="evenodd" clip-rule="evenodd" d="M471.841 344.216C473.392 344.216 474.496 342.776 474.44 341.617C474.44 340.806 473.63 340.415 472.819 340.471C471.087 340.471 470.165 342.022 470.221 343.056C470.276 343.866 471.087 344.216 471.841 344.216ZM478.702 341.561C478.702 342.707 477.668 344.16 476.103 344.16C475.362 344.16 474.552 343.81 474.496 343C474.496 341.966 475.418 340.415 477.095 340.415C477.891 340.345 478.702 340.695 478.702 341.561ZM473.113 347.96C474.496 348.016 475.767 347.611 476.69 346.745L477.095 347.834L477.612 345.068L475.013 345.138L475.935 345.766C475.181 346.521 473.742 347.094 472.526 346.982C471.324 346.856 470.346 346.116 469.941 345.25H469.885C470.109 346.577 471.324 347.904 473.113 347.96Z" fill="white"/>
<path fill-rule="evenodd" clip-rule="evenodd" d="M416.065 396.988V377.623C416.065 377.399 416.177 377.162 416.344 377.05L427.885 369.505C428.067 369.393 428.179 369.156 428.179 368.918V355.966C428.179 355.784 428.235 355.617 428.346 355.505L434.005 349.916C434.284 349.623 434.746 349.679 435.039 349.972C435.388 350.489 436.017 351.244 436.827 351.872C437.065 352.04 437.177 352.333 437.065 352.571C436.66 354.122 434.229 356.539 433.418 357.405C433.25 357.573 433.195 357.866 433.25 358.09L436.827 369.561C436.939 369.84 436.827 370.134 436.534 370.301L425.119 377.79C424.951 377.916 424.825 378.14 424.825 378.377V397.617C424.825 398.022 424.49 398.301 424.085 398.301L416.638 397.673C416.344 397.673 416.065 397.323 416.065 396.988V396.988Z" fill="#E6C7CB" fill-opacity="0.419608"/>
<path d="M275.38 433.455C298.923 433.455 318.009 429.92 318.009 425.561C318.009 421.202 298.923 417.667 275.38 417.667C251.837 417.667 232.751 421.202 232.751 425.561C232.751 429.92 251.837 433.455 275.38 433.455Z" fill="#BB202B" fill-opacity="0.701961"/>
<path fill-rule="evenodd" clip-rule="evenodd" d="M297.987 398.245C292.049 417.317 270.881 425.156 256.867 420.824C246.71 417.667 245.326 406.545 248.205 397.212C254.73 376.407 276.708 370.707 289.338 374.633C299.426 377.735 300.879 389.038 297.987 398.245Z" fill="#F8EDED"/>
<path fill-rule="evenodd" clip-rule="evenodd" d="M267.276 378.433C259.829 381.758 253.137 387.99 250.077 397.784C248.708 402.2 248.4 406.908 249.518 410.792C250.622 414.593 253.067 417.611 257.44 418.98C263.909 420.964 272.195 420.182 279.6 416.563C286.977 412.958 293.334 406.615 296.129 397.673C297.484 393.327 297.791 388.605 296.66 384.693C295.556 380.864 293.097 377.818 288.765 376.491C282.939 374.689 274.779 375.066 267.276 378.433V378.433ZM289.911 372.774C283.093 370.651 273.955 371.168 265.684 374.884C257.356 378.615 249.797 385.643 246.346 396.625V396.639C244.823 401.557 244.39 407.076 245.773 411.868C247.185 416.758 250.51 420.88 256.28 422.683L256.294 422.697C263.839 425.016 273.145 424.038 281.304 420.056C289.506 416.06 296.702 408.948 299.845 398.832C301.368 393.956 301.801 388.423 300.404 383.603C298.979 378.713 295.682 374.549 289.911 372.774V372.774Z" fill="#9A1919"/>
<path fill-rule="evenodd" clip-rule="evenodd" d="M279.991 358.271C279.991 358.271 263.099 363.273 263.616 373.822C263.616 373.822 262.107 392.713 282.995 379.299L279.991 358.271Z" fill="#77486F"/>
<path fill-rule="evenodd" clip-rule="evenodd" d="M316.207 352.529C316.765 353.451 316.472 354.653 315.564 355.212L306.915 360.465L306.748 385.88C306.734 386.956 305.853 387.808 304.777 387.808C303.702 387.794 302.835 386.928 302.849 385.852L303.017 359.347C303.031 358.677 303.38 358.048 303.953 357.699L313.538 351.886C314.446 351.327 315.648 351.621 316.207 352.529V352.529Z" fill="#9A1919"/>
<path fill-rule="evenodd" clip-rule="evenodd" d="M304.274 349.776C304.708 350.768 304.247 351.914 303.254 352.333L293.935 356.329L293.767 381.549C293.753 382.625 292.887 383.491 291.811 383.491C290.736 383.477 289.869 382.597 289.869 381.535L290.037 355.03C290.051 354.248 290.512 353.563 291.225 353.255L301.718 348.756C302.71 348.337 303.855 348.798 304.274 349.776V349.776Z" fill="#9A1919"/>
<path fill-rule="evenodd" clip-rule="evenodd" d="M286.39 384.357L267.416 387.305C264.706 387.711 262.512 389.778 261.939 392.489L256.923 416.8L286.39 384.357V384.357Z" fill="#AF709E"/>
<path d="M263.839 418.24L250.063 415.417L255.079 391.106C256.225 385.573 260.724 381.255 266.382 380.389L285.356 377.455L287.494 391.329L268.799 394.222L263.839 418.24Z" fill="#7F5376"/>
<path fill-rule="evenodd" clip-rule="evenodd" d="M265.921 379.635C265.921 379.635 269.554 382.401 270.937 395.074L291.35 382.639L289.45 376.24L265.921 379.635V379.635Z" fill="#720D2E"/>
<path d="M250.063 415.417L263.322 416.563C263.322 416.563 264.999 419.972 265.348 423.2C265.572 425.561 263.672 427.517 261.31 427.517C255.358 427.461 242.266 427.405 238.117 425.044C237.139 424.513 242.322 421.23 243.482 420.433C244.572 419.679 250.063 415.417 250.063 415.417V415.417Z" fill="#E2BFBF"/>
<path d="M272.264 418.407L255.023 415.585L261.939 392.433C263.099 386.9 268.911 385.112 274.514 384.246L293.488 381.311L295.626 395.2L276.931 398.078L272.264 418.407Z" fill="#AF709E"/>
<path d="M255.023 415.641L272.264 418.463C272.264 418.463 273.941 421.872 274.276 425.1C274.514 427.461 272.614 429.417 270.239 429.417C264.538 429.361 252.648 429.012 247.688 427.168C246.486 426.707 244.237 425.617 248.093 422.096C255.023 415.641 255.023 415.641 255.023 415.641V415.641Z" fill="#F8EDED"/>
<path fill-rule="evenodd" clip-rule="evenodd" d="M272.558 383.561C272.558 383.561 278.147 387.068 279.53 399.741L299.957 387.305L298.043 380.906L272.558 383.561Z" fill="#720D2E"/>
<path fill-rule="evenodd" clip-rule="evenodd" d="M295.514 385.74C289.338 376.351 274.053 379.705 274.975 369.267C275.492 363.329 278.496 357.629 283.805 356.245C292.566 354.01 299.314 354.345 303.408 364.14C305.714 369.505 302.668 396.639 295.514 385.74V385.74Z" fill="#C8002D"/>
<path fill-rule="evenodd" clip-rule="evenodd" d="M271.454 384.707L267.472 385.112C265.516 385.349 263.728 383.91 263.49 381.884L262.288 370.134C262.051 368.178 263.49 366.389 265.516 366.166L269.498 365.761C271.454 365.523 273.243 366.962 273.48 368.988L274.682 380.739C274.919 382.695 273.48 384.483 271.454 384.707Z" fill="#9A1919"/>
<path fill-rule="evenodd" clip-rule="evenodd" d="M268.855 385L264.887 385.405C262.917 385.629 261.129 384.19 260.905 382.178L259.69 370.427C259.452 368.457 260.905 366.683 262.917 366.445L266.899 366.04C268.855 365.816 270.644 367.255 270.881 369.267L272.097 381.018C272.32 382.988 270.881 384.762 268.855 385Z" fill="#EFA14D"/>
<path d="M301.62 387.361C301.047 387.417 300.474 387.417 299.957 387.305C299.957 387.305 286.055 384.357 282.129 381.884C277.574 378.95 277.518 378.196 278.091 375.15C278.72 372.146 277.462 372.733 280.452 373.361L290.889 375.038C292.803 375.317 294.298 373.361 293.544 371.573L290.428 364.601C290.093 361.555 291.42 359.194 294.466 358.844C297.526 358.495 301.047 359.194 303.408 364.14C303.408 364.14 306.985 377.162 302.891 381.423C301.676 382.695 306.063 384.832 304.791 385.978C303.925 386.788 302.835 387.25 301.62 387.361V387.361Z" fill="#AF709E"/>
<path d="M284.378 377.511C285.761 380.739 286.516 381.2 284.434 382.751C283.051 383.784 277.853 376.994 272.153 379.355C270.071 380.389 270.127 379.299 271.049 377.86C268.799 378.894 269.093 377.79 270.364 376.24C268.282 376.645 267.765 375.96 268.799 375.094C269.316 374.633 272.726 372.383 273.592 371.866C273.997 371.629 273.536 370.888 273.759 370.134C273.759 370.078 273.815 370.078 273.885 370.078C276.247 370.944 280.452 373.25 280.452 373.25C282.352 375.15 284.141 376.938 284.378 377.511V377.511Z" fill="#AF709E"/>
<path fill-rule="evenodd" clip-rule="evenodd" d="M275.017 375.681C275.045 375.806 274.961 375.918 274.835 375.946C273.578 376.17 272.684 376.673 272.097 377.134C271.789 377.371 271.58 377.581 271.44 377.735C271.37 377.818 271.314 377.874 271.286 377.916C271.258 377.944 271.258 377.958 271.245 377.972H271.231V377.986C271.161 378.084 271.021 378.112 270.923 378.042C270.825 377.972 270.797 377.832 270.867 377.735L271.049 377.86C270.867 377.735 270.867 377.735 270.867 377.735V377.721H270.881V377.707C270.895 377.693 270.909 377.665 270.937 377.651C270.979 377.595 271.035 377.525 271.105 377.441C271.259 377.259 271.496 377.036 271.817 376.784C272.46 376.295 273.424 375.737 274.765 375.499C274.877 375.485 275.003 375.569 275.017 375.681Z" fill="#77486F"/>
<path fill-rule="evenodd" clip-rule="evenodd" d="M274.207 373.99C274.235 374.102 274.179 374.228 274.053 374.269C272.935 374.605 272.041 375.164 271.412 375.639C271.105 375.876 270.867 376.1 270.714 376.254C270.63 376.323 270.574 376.393 270.532 376.435C270.504 376.463 270.49 376.477 270.49 376.491H270.476V376.505C270.476 376.505 270.476 376.505 270.308 376.351L270.141 376.212C270.057 376.309 270.071 376.449 270.155 376.519C270.253 376.603 270.392 376.589 270.476 376.505L274.207 373.99V373.99ZM270.308 376.351C270.141 376.212 270.141 376.212 270.141 376.212L270.155 376.198C270.169 376.184 270.183 376.156 270.211 376.142C270.252 376.086 270.308 376.016 270.406 375.932C270.574 375.764 270.825 375.541 271.147 375.289C271.803 374.786 272.74 374.2 273.927 373.836C274.053 373.808 274.165 373.864 274.207 373.99L270.308 376.351V376.351Z" fill="#77486F"/>
<path d="M294.536 353.605C299.845 353.605 304.163 349.287 304.163 343.978C304.163 338.669 299.845 334.365 294.536 334.365C289.213 334.365 284.895 338.669 284.895 343.978C284.895 349.287 289.213 353.605 294.536 353.605Z" fill="#C29B9B"/>
<path fill-rule="evenodd" clip-rule="evenodd" d="M294.871 344.551C294.298 344.327 294.131 345.194 293.32 345.417C293.264 343.978 292.622 342.651 291.127 341.966C287.899 340.583 281.961 341.449 279.712 346.745C278.664 349.106 278.72 352.04 281.318 353.2C284.49 354.583 289.45 353.549 291.993 349.86C293.32 350.321 298.742 345.99 294.871 344.551Z" fill="#AF709E"/>
<path fill-rule="evenodd" clip-rule="evenodd" d="M292.049 345.766C292.51 345.878 294.648 344.956 294.871 344.551C296.199 342.19 295.682 338.739 292.803 338.04C286.628 336.489 285.007 337.411 281.318 341.156C279.474 341.505 278.384 341.323 275.031 341.561C272.264 341.729 274.514 343 274.919 343.112C278.957 343.922 288.877 345.138 292.049 345.766Z" fill="#C8002D"/>
<path fill-rule="evenodd" clip-rule="evenodd" d="M289.045 345.194C289.045 345.194 293.376 345.417 296.255 343.629C296.771 344.034 296.492 346.172 296.492 346.172C296.492 346.172 295.165 344.16 292.51 347.373C292.51 347.373 291.294 348.421 289.045 345.194Z" fill="#C29B9B"/>
<path fill-rule="evenodd" clip-rule="evenodd" d="M284.602 352.794L282.813 358.09C282.534 358.956 283.219 359.822 284.141 359.711C286.055 359.473 289.045 358.844 291.7 356.762L292.859 349.05L284.602 352.794V352.794Z" fill="#AF709E"/>
<path fill-rule="evenodd" clip-rule="evenodd" d="M290.093 351.816C290.093 351.816 285.929 353.549 284.322 353.605L283.219 356.762L290.093 351.816Z" fill="#77486F"/>
<path fill-rule="evenodd" clip-rule="evenodd" d="M320.314 406.657C314.376 425.729 293.195 433.567 279.181 429.249C269.037 426.078 267.654 414.956 270.532 405.623C277.057 384.832 299.021 379.118 311.666 383.044C321.753 386.146 323.193 397.435 320.314 406.657V406.657Z" fill="#F8EDED"/>
<path fill-rule="evenodd" clip-rule="evenodd" d="M300.53 406.196C299.314 410.122 294.997 411.729 292.105 410.806C290.023 410.178 289.744 407.872 290.316 405.972C291.644 401.711 296.143 400.551 298.742 401.361C300.823 402.046 301.103 404.351 300.53 406.196Z" fill="#C8002D"/>
<path d="M282.087 349.148C282.31 348.617 282.296 348.114 282.059 348.016C281.821 347.918 281.458 348.267 281.235 348.798C281.011 349.315 281.025 349.832 281.262 349.93C281.5 350.028 281.863 349.679 282.087 349.148Z" fill="#78252B"/>
<path d="M284.169 349.315C284.42 348.729 284.406 348.17 284.141 348.058C283.875 347.946 283.456 348.337 283.219 348.924C282.967 349.511 282.981 350.07 283.247 350.182C283.512 350.293 283.931 349.916 284.169 349.315Z" fill="#78252B"/>
<path fill-rule="evenodd" clip-rule="evenodd" d="M282.38 351.816C282.38 351.635 282.52 351.495 282.702 351.495H283.4C283.582 351.495 283.722 351.635 283.722 351.816C283.722 351.998 283.582 352.138 283.4 352.138H282.702C282.52 352.138 282.38 351.998 282.38 351.816Z" fill="#78252B"/>
<path d="M347.602 466.052C391.586 466.052 427.256 462 427.256 457.012C427.256 452.01 391.586 447.972 347.602 447.972C303.604 447.972 267.933 452.01 267.933 457.012C267.933 462 303.604 466.052 347.602 466.052Z" fill="#BB202B" fill-opacity="0.701961"/>
<path d="M387.45 439.896C387.45 439.896 410.7 445.778 411.789 452.695C412.712 458.563 385.55 459.778 373.031 458.563C368.532 458.102 364.843 454.483 364.382 449.984C364.033 446.184 367.149 441.573 368.644 440.874L387.45 439.896V439.896Z" fill="#AF709E"/>
<path d="M333.811 433.916C333.811 433.916 352.841 448.489 351.109 455.279C349.67 461.05 324.171 451.479 313.161 445.429C309.179 443.236 307.278 438.457 308.606 434.14C309.752 430.507 314.432 427.517 316.095 427.461L333.811 433.916V433.916Z" fill="#AF709E"/>
<path fill-rule="evenodd" clip-rule="evenodd" d="M334.217 434.14C331.967 434.768 329.368 441.852 329.368 441.852C327.063 441.224 312.35 436.04 312.35 436.04L308.606 434.084C307.223 438.401 305.085 440.944 309.067 443.124C320.077 449.174 349.558 460.98 350.997 455.168C352.562 449.006 337.151 436.445 334.217 434.14Z" fill="#C8002D"/>
<path fill-rule="evenodd" clip-rule="evenodd" d="M387.911 440.022C386.067 441.517 386.528 449.006 386.528 449.006C384.167 449.285 368.588 450.333 368.588 450.333L364.326 449.984C364.787 454.483 363.809 457.641 368.364 458.102C380.883 459.317 412.6 458.563 411.678 452.639C410.644 446.351 391.544 440.944 387.911 440.022Z" fill="#C8002D"/>
<path d="M315.41 423.144L332.54 399.573C333.406 398.134 333.7 396.457 333.406 394.85L328.67 367.661L350.48 363.86L357.061 401.641L336.41 435.984C332.135 435.928 321.753 430.744 316.444 427.922C314.712 427 314.195 424.75 315.41 423.144Z" fill="#9A1919"/>
<path d="M362.999 435.872L358.151 405.385C357.69 403.317 356.879 401.361 355.664 399.629L328.446 365.76L355.734 360.745L376.44 395.2C377.306 396.695 377.991 398.245 378.396 399.978L387.855 439.952L368.588 440.944C365.821 441 363.46 438.639 362.999 435.872V435.872Z" fill="#C8002D"/>
<path fill-rule="evenodd" clip-rule="evenodd" d="M373.017 323.844L373.506 318.367C373.506 318.367 373.31 316.509 372.137 318.13C370.977 319.751 367.722 324.473 366.869 326.834L368.364 330.579L373.017 323.844V323.844Z" fill="#DCA1A7"/>
<path fill-rule="evenodd" clip-rule="evenodd" d="M370.013 330.285C370.013 330.285 372.109 323.537 370.223 319.541C368.322 315.489 369.859 319.681 366.59 326.82C366.534 326.751 369.915 329.265 370.013 330.285V330.285Z" fill="#DCA1A7"/>
<path fill-rule="evenodd" clip-rule="evenodd" d="M372.528 326.751L376.258 322.699C376.258 322.699 377.223 321.148 375.294 321.665C373.366 322.252 367.889 323.984 365.821 325.325L364.732 329.196L372.528 326.751V326.751Z" fill="#DCA1A7"/>
<path fill-rule="evenodd" clip-rule="evenodd" d="M366.227 333.206C366.227 333.206 368.322 326.457 366.436 322.461C364.55 318.409 366.073 322.601 362.803 329.741C362.803 329.741 366.185 332.241 366.227 333.206V333.206Z" fill="#DCA1A7"/>
<path fill-rule="evenodd" clip-rule="evenodd" d="M362.44 330.369C362.44 330.369 369.51 325.717 374.931 326.667C380.31 327.659 374.847 327.156 367.791 333.345C367.749 333.401 363.628 330.146 362.44 330.369Z" fill="#DCA1A7"/>
<path d="M351.388 334.253C347.252 338.711 347.169 344.677 351.207 347.597C355.258 350.531 361.881 349.287 366.017 344.83C370.153 340.373 370.223 334.407 366.185 331.487C362.147 328.553 355.524 329.796 351.388 334.253Z" fill="#EFA14D"/>
<path d="M339.065 324.445C346.009 324.445 351.64 318.828 351.64 311.884C351.64 304.954 346.009 299.337 339.065 299.337C332.121 299.337 326.49 304.954 326.49 311.884C326.49 318.828 332.121 324.445 339.065 324.445Z" fill="#C29B9B"/>
<path d="M348.538 321.469C350.452 314.79 345.436 307.511 337.318 305.178C329.201 302.858 321.069 306.379 319.155 313.044C317.241 319.709 322.27 327.002 330.374 329.335C338.492 331.655 346.624 328.134 348.538 321.469Z" fill="#C29B9B"/>
<path fill-rule="evenodd" clip-rule="evenodd" d="M345.869 329.629C340.155 327.91 338.31 323.523 339.582 319.317C343.27 318.689 341.706 314.483 344.598 314.944C352.73 316.271 354.001 323.244 352.897 326.988C351.975 329.978 348.636 330.495 345.869 329.629Z" fill="#AF709E"/>
<path fill-rule="evenodd" clip-rule="evenodd" d="M339.177 318.745C341.314 319.387 341.999 321.05 341.538 322.601C340.155 322.838 340.728 324.445 339.638 324.277C336.578 323.76 336.117 321.162 336.522 319.723C336.927 318.633 338.129 318.465 339.177 318.745Z" fill="#AF709E"/>
<path fill-rule="evenodd" clip-rule="evenodd" d="M346.666 328.134L345.059 338.683C344.821 340.178 343.27 341.1 341.831 340.639L333.811 337.872L339.456 323.872L346.666 328.134V328.134Z" fill="#AF709E"/>
<path fill-rule="evenodd" clip-rule="evenodd" d="M341.887 375.15C327.817 370.888 320.021 355.156 323.137 344.844C325.386 337.411 335.306 332.8 342.181 334.882C357.522 339.549 362.021 359.417 359.185 368.695C356.991 376.016 348.692 377.162 341.887 375.15V375.15Z" fill="#C8002D"/>
<path d="M374.596 371.056L348.859 371.922C346.903 371.922 342.977 370.371 343.033 368.457L348.286 342.315C348.342 340.471 345.003 338.166 346.847 338.166L370.264 337.355C371.131 337.355 371.885 337.984 371.997 338.85L374.763 364.894L375.923 369.617C376.035 370.371 375.392 371.056 374.596 371.056V371.056Z" fill="#EC1D2C"/>
<path d="M348.859 371.922L340.448 373.529C339.861 373.529 341.077 370.762 341.189 368.457C341.538 362.812 341.706 347.834 341.706 340.988C341.706 339.255 343.159 337.872 344.891 337.984L348.286 338.166C348.748 338.166 349.097 338.501 349.153 338.906C349.153 338.906 348.985 348.882 349.376 365.76C349.446 367.311 350.131 368.918 350.187 370.595C350.243 371.293 349.67 371.922 348.859 371.922V371.922Z" fill="#9A1919"/>
<path fill-rule="evenodd" clip-rule="evenodd" d="M359.31 354.75C361.322 354.695 362.706 352.85 362.65 351.355C362.594 350.265 361.56 349.804 360.568 349.86C358.318 349.916 357.173 351.928 357.229 353.255C357.229 354.289 358.318 354.75 359.31 354.75ZM368.183 351.188C368.239 352.683 366.855 354.527 364.843 354.583C363.865 354.583 362.761 354.178 362.761 353.088C362.706 351.76 363.921 349.735 366.115 349.679C367.093 349.623 368.127 350.084 368.183 351.188V351.188ZM360.917 359.585C362.706 359.655 364.382 359.068 365.598 357.978L366.115 359.361L366.743 355.784L363.348 355.854L364.494 356.651C363.516 357.629 361.672 358.383 360.107 358.271C358.556 358.146 357.284 357.112 356.712 356.022H356.6C357.061 357.81 358.668 359.473 360.917 359.585V359.585Z" fill="white"/>
<path fill-rule="evenodd" clip-rule="evenodd" d="M361.434 368.918C362.077 370.595 357.117 371.629 356.139 371.922C356.25 372.034 360.177 371.224 360.233 371.293C361.266 371.629 356.53 377.273 350.312 377.05C350.075 377.05 345.869 376.882 345.869 376.882L340.448 371.81C340.448 371.81 347.532 368.345 348.063 368.122C351.919 366.222 354.169 365.984 355.328 366.096C356.25 366.222 355.552 367.479 354.923 367.828C352.562 369.156 353.079 369.323 353.246 369.449C355.272 369.784 360.805 367.256 361.434 368.918V368.918Z" fill="#AF709E"/>
<path d="M320.887 349.399C320.943 349.343 320.943 349.218 320.999 349.162C325.736 336.545 334.496 340.527 334.496 340.527C338.422 342.022 337.612 351.984 335.083 355.323L331.268 361.261C330.919 361.778 330.989 362.477 331.324 362.994C333.001 365.355 338.827 370.134 345.227 369.044C346.149 368.862 346.959 369.617 346.959 370.539C346.959 372.271 346.498 374.507 346.149 375.834C345.981 376.421 345.52 376.882 344.891 376.994C340.322 377.623 328.74 378.95 320.943 374.395C310.157 368.122 320.021 350.894 320.887 349.399V349.399Z" fill="#AF709E"/>
<path fill-rule="evenodd" clip-rule="evenodd" d="M343.438 328.539C344.416 329.112 345.688 329.629 346.736 329.573L345.869 333.611L342.921 329.056C342.642 328.776 343.033 328.371 343.438 328.539Z" fill="#77486F"/>
<path fill-rule="evenodd" clip-rule="evenodd" d="M373.492 372.495C373.604 373.138 373.199 375.373 371.242 374.046C370.32 373.417 367.847 370.832 367.847 370.832C367.847 370.832 366.52 369.267 368.183 368.583C369.566 368.01 371.354 370.022 371.354 370.022L373.492 372.495V372.495Z" fill="#AF709E"/>
<path fill-rule="evenodd" clip-rule="evenodd" d="M370.67 369.617C370.67 369.617 374.135 373.25 375.28 373.068C376.091 372.956 376.845 372.09 376.552 371.405C376.147 370.371 373.604 368.122 373.604 368.122L373.674 368.178C373.087 367.605 372.109 367.311 371.48 367.423C370.726 367.549 370.153 368.234 370.726 369.729L370.67 369.617Z" fill="#AF709E"/>
<path fill-rule="evenodd" clip-rule="evenodd" d="M372.919 367.828C372.919 367.828 376.384 371.461 377.53 371.293C378.34 371.168 379.095 370.301 378.801 369.617C378.396 368.583 375.853 366.333 375.853 366.333L375.923 366.389C375.336 365.816 374.358 365.523 373.73 365.635C372.975 365.761 372.402 366.445 372.975 367.94L372.919 367.828Z" fill="#AF709E"/>
<path fill-rule="evenodd" clip-rule="evenodd" d="M370.572 369.044C370.642 368.988 370.74 369.002 370.781 369.058L370.67 369.156L370.544 369.254C370.502 369.184 370.502 369.086 370.572 369.044ZM370.67 369.156L370.544 369.254L370.572 369.267L370.628 369.337C370.67 369.407 370.74 369.491 370.823 369.603C371.005 369.826 371.256 370.12 371.536 370.469C372.095 371.154 372.807 371.992 373.38 372.607C373.436 372.663 373.534 372.663 373.604 372.607C373.66 372.551 373.66 372.453 373.604 372.397C373.031 371.796 372.332 370.958 371.759 370.273C371.48 369.938 371.242 369.631 371.061 369.407C370.977 369.309 370.907 369.212 370.865 369.156L370.809 369.086L370.781 369.058L370.67 369.156V369.156Z" fill="#89567E"/>
<path fill-rule="evenodd" clip-rule="evenodd" d="M359.087 373.445C359.129 373.515 359.115 373.613 359.045 373.655C358.5 374.018 357.648 374.255 356.949 374.395C356.6 374.479 356.292 374.521 356.055 374.563C355.943 374.577 355.845 374.591 355.789 374.591C355.761 374.591 355.734 374.605 355.72 374.605H355.692C355.692 374.605 355.692 374.605 355.664 374.451L355.692 374.605C355.608 374.619 355.524 374.549 355.524 374.465C355.51 374.395 355.566 374.311 355.65 374.311H355.664L355.678 374.297C355.692 374.297 355.72 374.297 355.747 374.297C355.817 374.283 355.901 374.269 356.013 374.255C356.237 374.228 356.558 374.172 356.893 374.102C357.592 373.962 358.388 373.739 358.877 373.403C358.947 373.361 359.045 373.375 359.087 373.445V373.445Z" fill="#89567E"/>
<path fill-rule="evenodd" clip-rule="evenodd" d="M372.807 367.731C372.849 367.675 372.947 367.661 373.017 367.717L372.919 367.828L372.821 367.94C372.751 367.898 372.751 367.8 372.807 367.731ZM372.919 367.828L372.821 367.94L372.849 367.968L372.919 368.024C372.989 368.08 373.073 368.164 373.185 368.248C373.422 368.443 373.73 368.709 374.093 369.016C374.791 369.617 375.644 370.357 376.217 370.93C376.272 370.986 376.37 370.986 376.426 370.93C376.482 370.874 376.482 370.776 376.426 370.721C375.839 370.134 374.987 369.393 374.288 368.778C373.925 368.485 373.618 368.206 373.38 368.024C373.268 367.926 373.171 367.842 373.115 367.8L373.045 367.731L373.017 367.717L372.919 367.828Z" fill="#89567E"/>
<path fill-rule="evenodd" clip-rule="evenodd" d="M376.552 366.906L375.225 362.645C375.225 362.645 374.358 361.317 374.302 363.05L374.819 366.906H376.552Z" fill="#AF709E"/>
<path fill-rule="evenodd" clip-rule="evenodd" d="M366.185 340.234C366.506 340.303 366.702 340.625 366.632 340.946C365.877 344.271 364.913 346.437 363.837 347.667C363.292 348.295 362.692 348.701 362.049 348.868C361.406 349.05 360.763 348.966 360.191 348.701C359.059 348.184 358.109 347.01 357.452 345.627C356.781 344.216 356.348 342.511 356.292 340.834C356.278 340.499 356.53 340.234 356.865 340.22C357.187 340.206 357.466 340.457 357.48 340.792C357.536 342.301 357.927 343.852 358.528 345.11C359.143 346.381 359.911 347.275 360.68 347.611C361.043 347.778 361.392 347.82 361.742 347.723C362.091 347.625 362.51 347.373 362.943 346.884C363.823 345.878 364.732 343.95 365.472 340.681C365.542 340.359 365.863 340.164 366.185 340.234V340.234Z" fill="#78252B"/>
<path fill-rule="evenodd" clip-rule="evenodd" d="M346.037 317.557C344.71 317.557 343.634 318.633 343.634 319.96C343.634 321.287 344.71 322.363 346.037 322.363C347.364 322.363 348.44 321.287 348.44 319.96C348.44 318.633 347.364 317.557 346.037 317.557ZM342.446 319.96C342.446 317.976 344.053 316.369 346.037 316.369C348.021 316.369 349.628 317.976 349.628 319.96C349.628 321.944 348.021 323.551 346.037 323.551C344.053 323.551 342.446 321.944 342.446 319.96Z" fill="white"/>
<path fill-rule="evenodd" clip-rule="evenodd" d="M352.674 317.557C351.346 317.557 350.27 318.633 350.27 319.96C350.27 321.287 351.346 322.363 352.674 322.363C354.001 322.363 355.077 321.287 355.077 319.96C355.077 318.633 354.001 317.557 352.674 317.557ZM349.083 319.96C349.083 317.976 350.69 316.369 352.674 316.369C354.658 316.369 356.264 317.976 356.264 319.96C356.264 321.944 354.658 323.551 352.674 323.551C350.69 323.551 349.083 321.944 349.083 319.96Z" fill="white"/>
<path fill-rule="evenodd" clip-rule="evenodd" d="M384.46 238.727C381.107 238.727 378.047 239.872 375.63 241.786C373.436 236.659 368.308 233.026 362.356 233.026C355.734 233.026 350.075 237.511 348.398 243.617C344.654 245.754 342.167 249.792 342.167 254.389C342.167 261.082 347.476 266.545 354.169 266.782C354.225 266.782 354.28 266.782 354.28 266.782C354.28 266.782 383.929 266.838 384.46 266.838C392.243 266.838 398.586 260.509 398.586 252.727C398.586 245 392.243 238.727 384.46 238.727Z" fill="white"/>
<path fill-rule="evenodd" clip-rule="evenodd" d="M255.428 292.309C254.436 292.309 253.57 292.645 252.885 293.162C252.243 291.667 250.803 290.689 249.071 290.689C247.171 290.689 245.564 291.96 245.089 293.749C243.999 294.377 243.314 295.537 243.314 296.85C243.314 298.751 244.809 300.371 246.765 300.427C246.765 300.427 246.765 300.427 246.821 300.427C246.821 300.427 255.302 300.427 255.484 300.427C257.734 300.427 259.522 298.639 259.522 296.389C259.452 294.084 257.664 292.309 255.428 292.309V292.309Z" fill="white"/>
<path fill-rule="evenodd" clip-rule="evenodd" d="M288.905 385.377C281.472 388.717 274.779 394.948 271.706 404.743C270.336 409.158 270.029 413.866 271.147 417.751C272.251 421.537 274.696 424.555 279.069 425.924C285.538 427.922 293.823 427.14 301.229 423.521C308.606 419.916 314.977 413.573 317.757 404.617C319.127 400.271 319.42 395.549 318.288 391.637C317.185 387.808 314.726 384.776 310.394 383.435C304.582 381.633 296.408 382.01 288.905 385.377ZM311.54 379.719C304.736 377.609 295.584 378.126 287.312 381.828C278.985 385.559 271.426 392.587 267.989 403.583L267.975 403.597C266.466 408.515 266.019 414.02 267.402 418.826C268.827 423.717 272.139 427.838 277.909 429.641H277.923C285.468 431.974 294.787 430.996 302.947 427.014C311.135 423.004 318.33 415.892 321.474 405.776C323.011 400.9 323.43 395.381 322.033 390.561C320.622 385.657 317.31 381.493 311.54 379.719Z" fill="#9A1919"/>
</g>
<defs>
<clipPath id="clip0_1:125">
<rect width="717" height="532" fill="white"/>
</clipPath>
</defs>
</svg>
