<svg width="1520" height="1503" viewBox="0 0 1520 1503" fill="none" xmlns="http://www.w3.org/2000/svg">
<g clip-path="url(#clip0_1:2)">
<path d="M759.983 1502.91C1179.69 1495.68 1519.93 1153.39 1519.93 738.397C1519.93 323.401 1179.69 -7.1552 759.983 0.0791293C340.275 7.31346 0.0349579 349.599 0.0349579 764.595C0.0349579 1179.59 340.275 1510.15 759.983 1502.91Z" fill="#FDEDEE"/>
<path d="M1042.67 1021.76C1092.62 1019.63 1132.84 1012.44 1132.53 1005.55C1132.33 998.758 1091.5 994.908 1041.55 997.036C991.605 999.163 951.282 1006.46 951.586 1013.25C951.89 1020.14 992.618 1023.88 1042.67 1021.76Z" fill="#BB202B" fill-opacity="0.701961"/>
<path fill-rule="evenodd" clip-rule="evenodd" d="M1072.56 829.968C1072.56 829.968 1062.32 829.461 1062.12 834.628C1062.12 834.628 1069.62 831.792 1072.96 834.831L1072.56 829.968V829.968Z" fill="#EFA14D"/>
<path d="M1094.54 986.702L1118.15 1000.78C1121.9 1003.01 1120.98 1008.59 1116.73 1009.4C1102.44 1012.13 1078.13 1009.8 1072.96 998.859C1070.12 992.78 1073.67 985.891 1075.8 985.891L1094.54 986.702V986.702Z" fill="#C8002D"/>
<path d="M976.712 982.041C976.712 982.041 939.225 1005.44 947.432 1009.6C958.07 1015.17 990.085 1006.66 990.085 1006.66L990.997 1006.56C993.935 1006.15 996.367 1004.74 997.988 1002.41C1002.04 996.732 1007.31 985.891 992.618 982.852L976.712 982.041V982.041Z" fill="#C8002D"/>
<path d="M1096.47 987.816C1095.35 987.208 1094.74 985.891 1095.05 984.675L1103.15 930.979C1103.96 924.596 1098.59 927.433 1094.74 922.164L1077.92 897.038C1074.58 892.378 1073.06 885.59 1068.4 888.933L1064.96 891.466L1029.9 890.554L976.712 982.041C976.712 982.041 958.779 994.401 967.289 995.212C973.672 995.921 985.83 993.388 991.909 989.64C993.935 988.525 995.657 986.904 996.975 985.081L1025.04 946.176C1025.85 944.96 1026.76 943.947 1027.77 942.934L1058.37 912.742C1059.18 911.526 1059.59 906.258 1060.5 907.372L1073.06 924.9C1074.58 927.129 1075.29 929.763 1074.89 932.397L1076 986.6C1076 989.032 1077.52 991.159 1079.85 992.071C1086.54 994.604 1100.42 999.568 1106.7 998.961C1113.49 998.251 1101.43 990.754 1096.47 987.816V987.816Z" fill="#AF709E"/>
<path d="M1141.25 838.377L1137.3 826.726C1136.28 823.99 1134.15 822.369 1131.82 822.673C1130.51 822.876 1129.19 823.788 1128.48 825.206C1127.87 826.523 1127.57 828.448 1127.97 830.069L1129.49 829.765C1129.19 828.55 1129.29 827.233 1129.9 826.219C1130.41 825.206 1131.32 824.598 1132.13 824.497C1133.55 824.294 1135.07 825.409 1135.78 827.334L1139.73 839.086C1139.93 839.39 1140.23 839.593 1140.54 839.593C1140.74 839.593 1140.74 839.593 1140.84 839.492C1141.25 839.289 1141.35 838.782 1141.25 838.377V838.377Z" fill="#9A1919"/>
<path fill-rule="evenodd" clip-rule="evenodd" d="M1126.35 833.717C1128.08 830.373 1126.76 826.523 1126.76 825.612C1126.76 824.497 1126.35 826.017 1126.05 824.497C1126.05 823.585 1127.06 821.964 1127.37 821.052C1129.19 816.291 1126.05 815.379 1124.53 818.52C1123.11 821.255 1116.63 828.246 1115.92 831.386L1115.11 835.034C1114.6 836.857 1113.79 838.58 1112.68 840.099L1102.95 852.46C1100.01 856.107 1096.06 858.843 1091.6 860.16H1067.69L1070.33 884.88L1102.75 872.723C1105.48 871.71 1107.71 869.886 1109.43 867.454L1131.42 836.756L1126.35 833.717V833.717Z" fill="#AF709E"/>
<path fill-rule="evenodd" clip-rule="evenodd" d="M1125.75 823.991C1124.33 826.321 1122.81 829.462 1121.59 831.994C1119.77 835.946 1123.11 842.936 1124.73 842.734C1124.73 842.734 1131.62 836.756 1132.43 834.021C1132.23 829.563 1125.75 826.422 1125.75 823.991V823.991Z" fill="#77486F"/>
<path d="M1142.26 838.175L1138.31 826.422C1137.4 823.788 1135.17 822.066 1132.84 822.471C1131.52 822.673 1130.2 823.585 1129.6 825.004C1128.89 826.321 1128.68 828.144 1128.99 829.867L1130.51 829.563C1130.2 828.246 1130.41 827.03 1130.91 826.017C1131.42 825.004 1132.33 824.396 1133.14 824.294C1134.56 823.991 1136.08 825.206 1136.79 827.131L1140.84 838.782C1140.94 839.188 1141.25 839.39 1141.65 839.39C1141.75 839.39 1141.75 839.39 1141.85 839.289C1142.26 839.086 1142.46 838.479 1142.26 838.175V838.175Z" fill="#C13547"/>
<path d="M1130 825.713L1126.05 837.465C1125.85 837.769 1125.54 838.073 1125.24 838.073C1125.04 838.073 1125.04 838.073 1124.93 837.871C1124.63 837.668 1124.43 837.263 1124.63 836.756L1128.68 825.105L1130 825.713Z" fill="#9A1919"/>
<path d="M1133.04 824.193C1131.52 823.889 1130 825.105 1129.29 827.03L1125.34 838.681C1125.24 839.086 1124.83 839.289 1124.53 839.289C1124.43 839.289 1124.43 839.289 1124.33 839.188C1123.92 838.985 1123.72 838.479 1123.92 838.073L1127.97 826.321C1128.89 823.687 1131.01 821.964 1133.34 822.369L1133.04 824.193V824.193Z" fill="#C13547"/>
<path fill-rule="evenodd" clip-rule="evenodd" d="M1131.82 831.285C1132.53 831.69 1133.85 834.426 1131.62 835.236C1130.1 835.743 1124.12 835.54 1124.12 835.54C1124.12 835.54 1121.39 835.54 1122.2 833.109C1122.91 831.184 1126.45 831.285 1126.45 831.285L1130.81 831.386L1131.82 831.285V831.285Z" fill="#AF709E"/>
<path fill-rule="evenodd" clip-rule="evenodd" d="M1125.24 831.184C1125.24 831.184 1131.82 831.792 1132.84 830.677C1133.55 829.867 1133.55 828.448 1132.63 827.942C1131.32 827.233 1126.76 827.131 1126.76 827.131H1126.96C1125.75 827.131 1124.63 827.638 1124.02 828.246C1123.31 829.056 1123.31 830.272 1125.24 831.184V831.184Z" fill="#AF709E"/>
<path fill-rule="evenodd" clip-rule="evenodd" d="M1127.06 827.131C1127.06 827.131 1131.32 828.55 1132.53 827.739C1133.45 827.131 1133.85 825.308 1133.14 824.598C1132.13 823.585 1129.09 823.687 1127.57 823.687C1126.56 823.788 1123.92 825.915 1127.06 827.131V827.131Z" fill="#AF709E"/>
<path fill-rule="evenodd" clip-rule="evenodd" d="M1132.13 831.285C1132.13 831.387 1132.13 831.488 1132.03 831.488C1130.91 831.488 1129.19 831.488 1127.77 831.488C1127.06 831.488 1126.45 831.488 1125.95 831.488C1125.75 831.488 1125.54 831.488 1125.44 831.488H1125.24V831.285V831.083H1125.44C1125.54 831.083 1125.75 831.083 1125.95 831.083C1126.45 831.083 1127.06 831.083 1127.77 831.083C1129.19 831.083 1130.91 831.083 1131.93 831.083C1132.03 831.083 1132.13 831.184 1132.13 831.285V831.285ZM1125.04 831.285C1125.04 831.184 1125.14 831.083 1125.24 831.083V831.285V831.488C1125.04 831.488 1125.04 831.387 1125.04 831.285Z" fill="#89567E"/>
<path fill-rule="evenodd" clip-rule="evenodd" d="M1126.15 826.929C1126.15 826.827 1126.25 826.827 1126.35 826.827V827.03L1126.25 827.233C1126.15 827.233 1126.15 827.131 1126.15 826.929V826.929ZM1126.35 827.03L1126.25 827.233H1126.35H1126.45C1126.56 827.233 1126.66 827.334 1126.86 827.334C1127.26 827.435 1127.77 827.537 1128.38 827.638C1129.6 827.84 1131.11 828.043 1132.43 828.043C1132.53 828.043 1132.63 827.942 1132.63 827.84C1132.63 827.739 1132.53 827.638 1132.43 827.638C1131.11 827.638 1129.6 827.435 1128.38 827.233C1127.87 827.131 1127.37 827.03 1126.96 826.929C1126.76 826.929 1126.66 826.929 1126.56 826.827C1126.45 826.827 1126.45 826.827 1126.45 826.827H1126.35V827.03Z" fill="#89567E"/>
<path fill-rule="evenodd" clip-rule="evenodd" d="M1150.97 878.903H1116.42C1115.11 878.903 1114.09 877.89 1114.09 876.573L1116.12 837.769C1116.12 836.452 1117.13 835.439 1118.55 835.439H1149.05C1150.47 835.439 1151.48 836.452 1151.48 837.769L1153.51 876.573C1153.4 877.788 1152.39 878.903 1150.97 878.903Z" fill="#EC1D2C"/>
<path fill-rule="evenodd" clip-rule="evenodd" d="M1091.5 860.058C1077.52 864.01 1052.8 860.464 1039.43 852.156C1030.61 859.045 1030.91 872.419 1024.73 895.012C1022.71 902.307 1058.37 903.522 1077.72 899.267C1080.26 882.55 1088.26 870.798 1091.5 860.058Z" fill="#AF709E"/>
<path fill-rule="evenodd" clip-rule="evenodd" d="M1039.93 803.525C1039.93 803.424 1040.74 801.6 1041.45 800.08C1043.28 795.622 1041.05 794.001 1038.21 798.966L1034.76 804.639L1039.93 803.525V803.525Z" fill="#AF709E"/>
<path fill-rule="evenodd" clip-rule="evenodd" d="M1031.52 803.525C1029.6 804.133 1029.09 805.349 1029.6 806.463L1032.23 814.771C1032.54 815.885 1033.75 815.987 1034.87 815.683L1052.49 809.807C1053.71 809.503 1054.22 808.186 1053.81 807.071L1051.28 799.371C1050.98 798.257 1049.66 797.547 1048.54 797.953L1031.52 803.525Z" fill="#9A1919"/>
<path fill-rule="evenodd" clip-rule="evenodd" d="M1029.09 815.075C1032.03 813.454 1035.37 814.366 1036.08 814.366C1038.01 814.264 1041.45 813.049 1042.57 812.846C1043.58 812.542 1044.69 813.048 1044.39 813.96C1044.19 814.771 1040.34 816.392 1037.5 817.709C1036.28 818.418 1033.95 819.837 1033.35 821.052L1025.65 839.39C1025.04 840.809 1025.04 840.809 1027.06 843.139L1054.93 857.019C1056.34 857.424 1048.54 876.167 1032.13 873.533L1010.35 851.548C1006.09 847.495 1003.26 842.227 1009.03 834.73L1025.85 808.996L1029.09 815.075V815.075Z" fill="#AF709E"/>
<path fill-rule="evenodd" clip-rule="evenodd" d="M1032.03 814.163C1031.32 814.568 1028.79 815.176 1027.77 816.392C1026.25 818.114 1021.19 817.304 1021.09 816.493L1028.69 803.322L1032.03 814.163Z" fill="#77486F"/>
<path fill-rule="evenodd" clip-rule="evenodd" d="M1032.03 802.005C1031.93 801.195 1030.61 798.966 1028.89 801.093C1028.08 802.107 1026.25 805.957 1026.25 805.957C1026.25 805.957 1025.34 808.084 1027.37 808.287C1029.09 808.489 1030.41 805.551 1030.41 805.551L1032.03 802.005V802.005Z" fill="#AF709E"/>
<path fill-rule="evenodd" clip-rule="evenodd" d="M1030.61 804.639C1030.61 804.639 1033.14 799.371 1034.36 799.168C1035.37 799.067 1036.49 799.776 1036.49 800.587C1036.49 801.904 1034.36 805.247 1034.36 805.247V805.146C1033.95 805.957 1033.04 806.666 1032.23 806.767C1031.42 806.97 1030.51 806.463 1030.61 804.639V804.639Z" fill="#AF709E"/>
<path fill-rule="evenodd" clip-rule="evenodd" d="M1032.13 801.904C1032.13 801.904 1032.23 802.005 1032.13 802.107C1031.73 802.917 1031.32 803.829 1031.12 804.538C1030.91 804.842 1030.81 805.146 1030.81 805.349C1030.71 805.45 1030.71 805.551 1030.71 805.551V805.653L1030.51 805.551L1032.13 801.904V801.904ZM1030.51 805.551H1030.31L1030.41 805.45C1030.41 805.349 1030.41 805.349 1030.41 805.247C1030.51 805.045 1030.61 804.741 1030.71 804.437C1031.02 803.728 1031.42 802.816 1031.83 801.904C1031.93 801.904 1032.03 801.803 1032.13 801.904L1030.51 805.551V805.551Z" fill="#89567E"/>
<path fill-rule="evenodd" clip-rule="evenodd" d="M1100.32 915.883L1084.61 902.712C1080.46 899.267 1078.84 893.695 1080.46 888.73L1083.19 879.916L1080.36 874.242H1080.46L1077.42 868.873L1073.47 860.058H1071.04C1071.04 860.058 1074.78 874.85 1066.07 873.939C1057.86 873.027 1052.9 863.706 1053.51 862.186L1055.53 857.526L1050.98 855.297L1044.29 867.252C1038.21 875.154 1029.6 871.507 1029.6 871.507L1024.43 895.113L995.759 947.999C993.023 953.166 996.063 959.448 1001.84 960.258C1038.82 965.729 1078.74 959.651 1093.22 957.016C1096.77 956.307 1099.61 953.673 1100.42 950.127C1102.85 941.11 1105.79 923.887 1100.32 915.883V915.883Z" fill="#C8002D"/>
<path fill-rule="evenodd" clip-rule="evenodd" d="M1072.15 834.628C1070.53 833.311 1070.22 830.88 1071.64 829.36C1071.64 829.36 1083.19 813.352 1087.04 815.784C1089.98 818.114 1087.65 821.154 1086.44 822.775L1077.52 834.021C1076.2 835.642 1073.77 835.946 1072.15 834.628Z" fill="#EFA14D"/>
<path fill-rule="evenodd" clip-rule="evenodd" d="M1071.24 833.311C1070.33 831.488 1071.14 829.158 1072.96 828.246L1084.81 822.471C1089.07 820.647 1092.11 823.788 1086.74 827.435L1076.3 835.034C1074.38 835.946 1072.15 835.135 1071.24 833.311Z" fill="#EFA14D"/>
<path fill-rule="evenodd" clip-rule="evenodd" d="M1059.89 847.698L1054.83 859.248C1054.52 859.957 1054.01 861.983 1054.72 862.186C1058.47 863.604 1070.22 868.569 1071.14 866.543L1071.24 848.61L1059.89 847.698V847.698Z" fill="#AF709E"/>
<path fill-rule="evenodd" clip-rule="evenodd" d="M1064.75 852.865C1071.95 852.663 1077.72 843.848 1077.52 838.58C1077.52 834.831 1073.77 833.919 1070.33 833.21C1061.01 831.285 1054.83 841.619 1054.83 846.381C1054.93 850.028 1061.31 852.865 1064.75 852.865V852.865Z" fill="#AF709E"/>
<path fill-rule="evenodd" clip-rule="evenodd" d="M1076.1 847.698C1078.53 847.698 1080.15 845.368 1080.15 843.544C1080.15 842.227 1078.94 841.721 1077.72 841.721C1075.09 841.721 1073.57 844.152 1073.57 845.773C1073.57 847.192 1074.78 847.799 1076.1 847.698V847.698Z" fill="#AF709E"/>
<path fill-rule="evenodd" clip-rule="evenodd" d="M1071.14 835.743C1069.21 835.034 1066.58 832.602 1067.19 830.677L1073.57 809.806C1074.28 807.881 1076.91 804.538 1080.26 805.957C1085.02 807.983 1083.8 810.212 1083.09 812.238L1077.42 834.021C1075.39 836.148 1071.14 835.743 1071.14 835.743V835.743Z" fill="#EFA14D"/>
<path fill-rule="evenodd" clip-rule="evenodd" d="M1058.78 850.94C1060.19 852.257 1063.03 851.852 1066.48 852.055C1066.78 852.055 1066.88 852.561 1066.58 852.663L1057.56 854.993C1057.36 855.094 1057.16 854.79 1057.26 854.486L1058.47 851.244C1058.37 851.143 1058.67 850.94 1058.78 850.94V850.94Z" fill="#77486F"/>
<path fill-rule="evenodd" clip-rule="evenodd" d="M1070.83 834.831C1070.83 834.831 1077.32 836.756 1075.09 842.835C1075.09 842.835 1075.59 841.822 1077.82 841.822C1077.82 841.822 1080.05 836.959 1076.2 833.311L1070.83 834.831V834.831Z" fill="#EFA14D"/>
<path fill-rule="evenodd" clip-rule="evenodd" d="M1061.41 837.364C1061.51 837.161 1061.82 836.959 1062.12 837.06L1066.37 838.276C1066.37 838.276 1066.37 838.276 1066.48 838.377L1075.19 842.328C1075.39 842.43 1075.59 842.835 1075.39 843.038C1075.29 843.341 1074.99 843.443 1074.68 843.341L1065.97 839.39L1061.82 838.073C1061.51 837.972 1061.31 837.668 1061.41 837.364V837.364Z" fill="#9A1919"/>
<path fill-rule="evenodd" clip-rule="evenodd" d="M1057.36 840.201C1060.7 840.201 1062.83 837.263 1062.83 834.73C1062.83 833.007 1061.11 832.197 1059.59 832.197C1055.94 832.197 1054.01 835.54 1054.01 837.668C1054.01 839.492 1055.74 840.201 1057.36 840.201V840.201Z" fill="#9A1919"/>
<path fill-rule="evenodd" clip-rule="evenodd" d="M1064.15 843.342C1067.69 843.342 1070.02 840.099 1070.02 837.567C1070.02 835.743 1068.2 834.932 1066.48 834.932C1062.63 834.932 1060.6 838.377 1060.6 840.707C1060.7 842.531 1062.52 843.342 1064.15 843.342Z" fill="#9A1919"/>
<path fill-rule="evenodd" clip-rule="evenodd" d="M1062.83 845.165C1062.83 845.165 1061.01 843.139 1059.28 842.126C1056.95 840.707 1056.55 843.646 1056.55 843.646C1056.55 843.646 1056.55 843.646 1056.65 843.646C1056.95 844.355 1058.47 848.61 1062.63 845.267C1062.73 845.267 1062.83 845.165 1062.83 845.165V845.165Z" fill="#C8002D"/>
<path fill-rule="evenodd" clip-rule="evenodd" d="M1128.89 855.601C1131.93 855.601 1134.15 852.663 1134.05 850.434C1134.05 848.813 1132.43 848.002 1130.81 848.103C1127.37 848.103 1125.54 851.244 1125.64 853.27C1125.75 854.891 1127.37 855.601 1128.89 855.601ZM1142.56 850.332C1142.56 852.561 1140.44 855.499 1137.4 855.499C1135.88 855.499 1134.26 854.79 1134.15 853.169C1134.15 851.143 1135.98 848.002 1139.32 848.002C1140.94 847.901 1142.56 848.61 1142.56 850.332ZM1131.42 862.997C1134.15 863.098 1136.69 862.287 1138.51 860.565L1139.32 862.794L1140.33 857.323L1135.17 857.424L1136.99 858.64C1135.57 860.16 1132.63 861.274 1130.2 861.072C1127.87 860.869 1125.85 859.349 1125.04 857.627H1124.93C1125.44 860.261 1127.87 862.895 1131.42 862.997V862.997Z" fill="white"/>
<path fill-rule="evenodd" clip-rule="evenodd" d="M1017.85 960.562V922.063C1017.85 921.556 1018.15 921.151 1018.45 920.948L1041.45 905.853C1041.76 905.65 1041.96 905.245 1041.96 904.738V878.903C1041.96 878.599 1042.06 878.295 1042.36 877.991L1053.61 866.948C1054.12 866.34 1055.03 866.441 1055.64 867.049C1056.34 868.062 1057.56 869.582 1059.18 870.798C1059.69 871.203 1059.89 871.71 1059.69 872.216C1058.88 875.256 1054.01 880.119 1052.39 881.841C1052.09 882.145 1051.99 882.753 1052.09 883.158L1059.18 906.055C1059.38 906.562 1059.18 907.17 1058.68 907.474L1035.88 922.367C1035.58 922.671 1035.37 923.076 1035.37 923.583V961.879C1035.37 962.589 1034.66 963.197 1033.85 963.197L1019.06 961.981C1018.45 961.981 1017.85 961.272 1017.85 960.562V960.562Z" fill="#E6C7CB" fill-opacity="0.419608"/>
<path d="M737.914 1033.1C784.822 1033.1 822.714 1026.11 822.714 1017.4C822.714 1008.79 784.822 1001.7 737.914 1001.7C691.106 1001.7 653.113 1008.79 653.113 1017.4C653.113 1026.11 691.106 1033.1 737.914 1033.1Z" fill="#BB202B" fill-opacity="0.701961"/>
<path fill-rule="evenodd" clip-rule="evenodd" d="M782.897 963.095C771.145 1001.09 728.998 1016.59 701.136 1008.08C680.873 1001.7 678.138 979.61 683.913 961.069C696.881 919.631 740.548 908.284 765.674 916.085C785.835 922.266 788.672 944.757 782.897 963.095Z" fill="#F8EDED"/>
<path fill-rule="evenodd" clip-rule="evenodd" d="M721.805 923.684C707.013 930.269 693.74 942.63 687.56 962.183C684.825 970.998 684.217 980.319 686.446 988.019C688.675 995.617 693.538 1001.59 702.251 1004.33C715.118 1008.28 731.632 1006.76 746.323 999.568C761.013 992.375 773.678 979.711 779.25 961.981C781.985 953.268 782.492 943.845 780.263 936.146C778.034 928.446 773.171 922.468 764.559 919.834C753.009 916.187 736.799 916.997 721.805 923.684ZM766.889 912.438C753.313 908.183 735.077 909.196 718.664 916.592C702.048 923.988 687.054 937.969 680.164 959.853C677.125 969.681 676.314 980.623 679.05 990.247C681.887 999.974 688.472 1008.18 699.921 1011.73C715.016 1016.39 733.456 1014.46 749.767 1006.46C766.079 998.555 780.364 984.371 786.646 964.21C789.685 954.585 790.496 943.542 787.76 933.917C784.923 924.19 778.338 915.883 766.889 912.438Z" fill="#9A1919"/>
<path fill-rule="evenodd" clip-rule="evenodd" d="M747.133 883.563C747.133 883.563 713.497 893.492 714.51 914.464C714.51 914.464 711.572 952.052 753.111 925.406L747.133 883.563Z" fill="#77486F"/>
<path fill-rule="evenodd" clip-rule="evenodd" d="M819.168 872.115C820.282 873.939 819.674 876.37 817.851 877.485L800.728 887.92L800.323 938.476C800.323 940.603 798.601 942.326 796.473 942.326C794.346 942.326 792.623 940.603 792.623 938.375L792.927 885.691C792.927 884.374 793.636 883.057 794.852 882.449L813.899 870.798C815.723 869.683 818.053 870.291 819.168 872.115V872.115Z" fill="#9A1919"/>
<path fill-rule="evenodd" clip-rule="evenodd" d="M795.46 866.644C796.271 868.569 795.359 870.899 793.434 871.71L774.893 879.713L774.488 929.864C774.488 931.992 772.766 933.714 770.638 933.714C768.51 933.714 766.788 931.992 766.788 929.864L767.092 877.079C767.092 875.56 768.004 874.141 769.422 873.533L790.394 864.618C792.319 863.807 794.65 864.719 795.46 866.644V866.644Z" fill="#9A1919"/>
<path fill-rule="evenodd" clip-rule="evenodd" d="M759.899 935.436L722.108 941.313C716.739 942.123 712.382 946.277 711.167 951.647L701.238 999.974L759.899 935.436V935.436Z" fill="#AF709E"/>
<path d="M715.016 1002.91L687.56 997.238L697.59 948.911C699.819 937.868 708.836 929.256 720.082 927.534L757.771 921.759L762.026 949.316L724.844 955.091L715.016 1002.91Z" fill="#7F5376"/>
<path fill-rule="evenodd" clip-rule="evenodd" d="M719.069 926.116C719.069 926.116 726.364 931.586 729.099 956.814L769.726 931.992L765.978 919.327L719.069 926.116Z" fill="#720D2E"/>
<path d="M687.56 997.238L714.003 999.568C714.003 999.568 717.245 1006.36 717.955 1012.74C718.461 1017.4 714.611 1021.35 709.951 1021.35C698.097 1021.25 672.059 1021.15 663.751 1016.39C661.826 1015.37 672.16 1008.79 674.491 1007.27C676.618 1005.75 687.56 997.238 687.56 997.238Z" fill="#E2BFBF"/>
<path d="M731.733 1003.22L697.388 997.643L711.166 951.545C713.497 940.502 725.047 936.956 736.191 935.234L773.981 929.358L778.237 957.016L741.054 962.791L731.733 1003.22Z" fill="#AF709E"/>
<path d="M697.388 997.745L731.733 1003.32C731.733 1003.32 735.077 1010.11 735.786 1016.49C736.191 1021.25 732.442 1025.1 727.681 1025.1C716.333 1025 692.727 1024.29 682.798 1020.64C680.468 1019.73 676.01 1017.5 683.609 1010.51C697.388 997.745 697.388 997.745 697.388 997.745V997.745Z" fill="#F8EDED"/>
<path fill-rule="evenodd" clip-rule="evenodd" d="M732.341 933.815C732.341 933.815 743.486 940.806 746.221 966.033L786.848 941.313L783.1 928.547L732.341 933.815Z" fill="#720D2E"/>
<path fill-rule="evenodd" clip-rule="evenodd" d="M778.034 938.172C765.674 919.53 735.279 926.217 737.103 905.447C738.217 893.594 744.094 882.246 754.732 879.511C772.158 875.053 785.531 875.762 793.738 895.215C798.297 905.853 792.218 959.853 778.034 938.172V938.172Z" fill="#C8002D"/>
<path fill-rule="evenodd" clip-rule="evenodd" d="M730.112 936.146L722.21 936.956C718.36 937.463 714.713 934.525 714.307 930.573L711.876 907.17C711.47 903.218 714.307 899.672 718.36 899.267L726.262 898.457C730.112 897.95 733.658 900.888 734.165 904.839L736.596 928.243C737.002 932.093 734.165 935.74 730.112 936.146Z" fill="#9A1919"/>
<path fill-rule="evenodd" clip-rule="evenodd" d="M724.945 936.753L717.043 937.564C713.193 937.969 709.545 935.132 709.14 931.08L706.709 907.676C706.303 903.826 709.14 900.28 713.193 899.774L721.095 898.963C724.945 898.558 728.491 901.395 728.998 905.447L731.429 928.851C731.835 932.701 728.998 936.247 724.945 936.753Z" fill="#EFA14D"/>
<path d="M790.192 941.414C788.976 941.515 787.862 941.515 786.848 941.313C786.848 941.313 759.19 935.436 751.388 930.573C742.27 924.697 742.169 923.177 743.385 917.098C744.6 911.121 742.067 912.337 748.045 913.552L768.814 916.896C772.563 917.504 775.602 913.553 774.083 910.007L767.903 896.126C767.193 890.048 769.828 885.387 775.906 884.678C781.985 883.969 788.976 885.387 793.738 895.215C793.738 895.215 800.83 921.151 792.725 929.662C790.293 932.093 799.006 936.348 796.473 938.679C794.751 940.3 792.623 941.211 790.192 941.414Z" fill="#AF709E"/>
<path d="M755.846 921.86C758.582 928.243 760.101 929.155 755.948 932.296C753.212 934.322 742.878 920.746 731.531 925.508C727.377 927.534 727.478 925.406 729.302 922.468C724.844 924.596 725.452 922.367 727.985 919.327C723.831 920.138 722.818 918.72 724.844 916.997C725.857 916.085 732.645 911.627 734.368 910.614C735.178 910.108 734.266 908.689 734.773 907.17C734.773 907.068 734.874 907.068 734.975 907.068C739.636 908.791 748.045 913.35 748.045 913.35C751.794 917.099 755.34 920.644 755.846 921.86V921.86Z" fill="#AF709E"/>
<path fill-rule="evenodd" clip-rule="evenodd" d="M737.204 918.213C737.306 918.416 737.103 918.618 736.9 918.719C734.368 919.125 732.544 920.138 731.429 921.05C730.821 921.556 730.416 921.962 730.112 922.265C729.91 922.468 729.808 922.569 729.808 922.671C729.707 922.671 729.707 922.671 729.707 922.772C729.606 922.975 729.302 922.975 729.099 922.873C728.896 922.772 728.795 922.468 728.998 922.265L729.302 922.468C728.998 922.266 728.998 922.265 728.998 922.265C728.998 922.265 728.998 922.265 728.998 922.164C728.998 922.164 729.099 922.164 729.099 922.063C729.2 921.962 729.302 921.86 729.403 921.658C729.707 921.354 730.214 920.847 730.821 920.34C732.139 919.429 734.064 918.314 736.698 917.808C737.002 917.808 737.204 917.909 737.204 918.213V918.213Z" fill="#77486F"/>
<path fill-rule="evenodd" clip-rule="evenodd" d="M735.583 914.87C735.685 915.072 735.583 915.275 735.279 915.376C733.05 916.085 731.328 917.2 730.112 918.112C729.403 918.618 728.998 919.023 728.694 919.327C728.491 919.53 728.39 919.631 728.289 919.733C728.289 919.733 728.187 919.733 728.187 919.834C728.187 919.834 728.187 919.834 727.883 919.53L727.478 919.226C727.377 919.429 727.377 919.733 727.579 919.834C727.782 920.037 727.985 920.037 728.187 919.834L735.583 914.87V914.87ZM727.883 919.53C727.478 919.226 727.478 919.226 727.478 919.226H727.579C727.579 919.226 727.579 919.125 727.681 919.125C727.782 919.024 727.883 918.821 727.985 918.72C728.39 918.314 728.897 917.909 729.504 917.403C730.821 916.389 732.746 915.275 735.077 914.566C735.279 914.464 735.583 914.566 735.583 914.87L727.883 919.53V919.53Z" fill="#77486F"/>
<path d="M776.008 874.242C786.646 874.242 795.257 865.631 795.257 855.094C795.257 844.557 786.646 835.946 776.008 835.946C765.471 835.946 756.859 844.557 756.859 855.094C756.859 865.631 765.471 874.242 776.008 874.242Z" fill="#C29B9B"/>
<path fill-rule="evenodd" clip-rule="evenodd" d="M776.717 856.209C775.603 855.803 775.197 857.526 773.678 857.931C773.475 855.094 772.259 852.46 769.321 851.143C762.837 848.306 750.983 850.028 746.525 860.565C744.499 865.327 744.6 871.203 749.767 873.432C756.049 876.167 765.978 874.141 771.043 866.847C773.678 867.758 784.417 859.147 776.717 856.209V856.209Z" fill="#AF709E"/>
<path fill-rule="evenodd" clip-rule="evenodd" d="M771.145 858.64C772.056 858.843 776.312 857.019 776.717 856.208C779.351 851.548 778.338 844.659 772.563 843.342C760.304 840.201 757.062 842.024 749.767 849.522C746.12 850.13 743.891 849.826 737.204 850.332C731.733 850.636 736.191 853.169 737.002 853.372C745.107 854.993 764.762 857.424 771.145 858.64V858.64Z" fill="#C8002D"/>
<path fill-rule="evenodd" clip-rule="evenodd" d="M765.167 857.526C765.167 857.526 773.779 857.931 779.452 854.385C780.567 855.195 779.959 859.451 779.959 859.451C779.959 859.451 777.325 855.499 772.056 861.882C772.056 861.882 769.625 863.908 765.167 857.526V857.526Z" fill="#C29B9B"/>
<path fill-rule="evenodd" clip-rule="evenodd" d="M756.353 872.621L752.705 883.158C752.199 884.88 753.516 886.603 755.34 886.4C759.19 885.995 765.167 884.678 770.435 880.524L772.766 865.225L756.353 872.621Z" fill="#AF709E"/>
<path fill-rule="evenodd" clip-rule="evenodd" d="M767.193 870.696C767.193 870.696 758.987 874.141 755.745 874.242L753.516 880.524L767.193 870.696Z" fill="#77486F"/>
<path fill-rule="evenodd" clip-rule="evenodd" d="M827.374 979.812C815.52 1017.81 773.374 1033.41 745.512 1024.8C725.351 1018.41 722.514 996.326 728.289 977.786C741.257 936.348 785.025 925.001 810.151 932.802C830.211 938.982 833.048 961.474 827.374 979.812Z" fill="#F8EDED"/>
<path fill-rule="evenodd" clip-rule="evenodd" d="M787.963 978.9C785.531 986.702 776.92 989.944 771.246 988.12C767.092 986.803 766.484 982.244 767.7 978.495C770.334 969.985 779.25 967.654 784.417 969.275C788.571 970.694 789.179 975.253 787.963 978.9Z" fill="#C8002D"/>
<path d="M751.287 865.428C751.692 864.314 751.692 863.301 751.287 863.098C750.78 862.895 750.071 863.604 749.565 864.719C749.159 865.732 749.159 866.745 749.666 866.948C750.071 867.15 750.882 866.441 751.287 865.428V865.428Z" fill="#78252B"/>
<path d="M755.441 865.732C755.947 864.618 755.846 863.402 755.34 863.199C754.833 862.997 754.023 863.807 753.516 864.922C753.009 866.137 753.111 867.252 753.617 867.454C754.124 867.657 754.934 866.948 755.441 865.732Z" fill="#78252B"/>
<path fill-rule="evenodd" clip-rule="evenodd" d="M751.895 870.697C751.895 870.291 752.199 870.089 752.503 870.089H753.921C754.225 870.089 754.529 870.291 754.529 870.697C754.529 871.102 754.225 871.304 753.921 871.304H752.503C752.199 871.304 751.895 871.102 751.895 870.697Z" fill="#78252B"/>
<path d="M881.679 1098.05C969.214 1098.05 1040.13 1089.94 1040.13 1080.01C1040.13 1070.08 969.214 1061.98 881.679 1061.98C794.143 1061.98 723.122 1070.08 723.122 1080.01C723.122 1089.94 794.143 1098.05 881.679 1098.05Z" fill="#BB202B" fill-opacity="0.701961"/>
<path d="M960.907 1045.97C960.907 1045.97 1007.21 1057.62 1009.44 1071.4C1011.26 1083.15 957.158 1085.48 932.235 1083.15C923.319 1082.24 915.923 1074.95 915.011 1066.03C914.403 1058.43 920.584 1049.31 923.522 1047.9L960.907 1045.97Z" fill="#AF709E"/>
<path d="M854.222 1034.02C854.222 1034.02 892.114 1063.09 888.669 1076.57C885.731 1088.02 835.074 1068.97 813.089 1057.01C805.186 1052.66 801.438 1043.13 804.072 1034.52C806.301 1027.33 815.622 1021.35 818.965 1021.25L854.222 1034.02V1034.02Z" fill="#AF709E"/>
<path fill-rule="evenodd" clip-rule="evenodd" d="M855.033 1034.52C850.575 1035.74 845.408 1049.92 845.408 1049.92C840.748 1048.6 811.468 1038.27 811.468 1038.27L804.072 1034.42C801.336 1043.03 797.081 1048 804.984 1052.35C826.868 1064.41 885.529 1087.91 888.365 1076.36C891.506 1064.11 860.909 1039.08 855.033 1034.52Z" fill="#C8002D"/>
<path fill-rule="evenodd" clip-rule="evenodd" d="M961.92 1046.17C958.171 1049.21 959.083 1064.11 959.083 1064.11C954.422 1064.61 923.42 1066.74 923.42 1066.74L914.91 1066.03C915.822 1074.95 913.897 1081.33 922.914 1082.24C947.837 1084.57 1010.96 1083.15 1009.13 1071.3C1007.11 1058.84 969.113 1048 961.92 1046.17V1046.17Z" fill="#C8002D"/>
<path d="M817.547 1012.64L851.69 965.729C853.412 962.893 854.02 959.549 853.412 956.307L843.99 902.205L887.352 894.708L900.422 969.883L859.39 1038.17C850.879 1038.07 830.211 1027.73 819.674 1022.16C816.23 1020.34 815.216 1015.78 817.547 1012.64V1012.64Z" fill="#9A1919"/>
<path d="M912.276 1037.97L902.651 977.279C901.739 973.227 900.118 969.275 897.686 965.831L843.584 898.457L897.788 888.427L939.023 957.016C940.745 959.954 942.163 963.095 942.974 966.54L961.717 1046.07L923.42 1048C917.949 1048.2 913.187 1043.44 912.276 1037.97Z" fill="#C8002D"/>
<path fill-rule="evenodd" clip-rule="evenodd" d="M932.235 815.075L933.146 804.133C933.146 804.133 932.842 800.486 930.512 803.626C928.182 806.868 921.698 816.291 919.976 820.951L923.015 828.448L932.235 815.075V815.075Z" fill="#DCA1A7"/>
<path fill-rule="evenodd" clip-rule="evenodd" d="M926.257 827.84C926.257 827.84 930.411 814.467 926.662 806.463C922.914 798.459 925.953 806.767 919.469 820.951C919.368 820.85 926.054 825.814 926.257 827.84V827.84Z" fill="#DCA1A7"/>
<path fill-rule="evenodd" clip-rule="evenodd" d="M931.222 820.85L938.719 812.745C938.719 812.745 940.644 809.705 936.794 810.718C932.944 811.833 922.002 815.277 917.949 818.013L915.72 825.713L931.222 820.85Z" fill="#DCA1A7"/>
<path fill-rule="evenodd" clip-rule="evenodd" d="M918.76 833.717C918.76 833.717 922.914 820.242 919.165 812.339C915.416 804.234 918.456 812.542 911.87 826.726C911.87 826.726 918.658 831.792 918.76 833.717V833.717Z" fill="#DCA1A7"/>
<path fill-rule="evenodd" clip-rule="evenodd" d="M911.161 828.043C911.161 828.043 925.244 818.722 935.983 820.647C946.723 822.673 935.882 821.66 921.799 833.919C921.698 834.021 913.491 827.537 911.161 828.043Z" fill="#DCA1A7"/>
<path d="M889.176 835.743C880.97 844.659 880.767 856.512 888.872 862.287C896.876 868.164 910.047 865.631 918.253 856.816C926.561 847.901 926.662 836.047 918.658 830.272C910.553 824.396 897.382 826.929 889.176 835.743V835.743Z" fill="#EFA14D"/>
<path d="M864.658 816.291C878.437 816.291 889.683 805.045 889.683 791.266C889.683 777.487 878.437 766.241 864.658 766.241C850.879 766.241 839.633 777.487 839.633 791.266C839.633 805.045 850.879 816.291 864.658 816.291Z" fill="#C29B9B"/>
<path d="M883.502 810.313C887.352 797.041 877.322 782.553 861.213 777.892C845.003 773.333 828.894 780.324 825.044 793.596C821.194 806.868 831.224 821.356 847.434 825.915C863.543 830.576 879.754 823.585 883.502 810.313V810.313Z" fill="#C29B9B"/>
<path fill-rule="evenodd" clip-rule="evenodd" d="M878.234 826.523C866.785 823.079 863.138 814.366 865.671 806.058C873.067 804.741 869.926 796.433 875.701 797.345C891.81 799.979 894.343 813.859 892.215 821.255C890.392 827.233 883.705 828.246 878.234 826.523Z" fill="#AF709E"/>
<path fill-rule="evenodd" clip-rule="evenodd" d="M864.861 804.943C869.116 806.159 870.534 809.503 869.622 812.542C866.785 813.049 868.001 816.291 865.772 815.885C859.693 814.872 858.782 809.705 859.592 806.868C860.403 804.639 862.834 804.335 864.861 804.943Z" fill="#AF709E"/>
<path fill-rule="evenodd" clip-rule="evenodd" d="M879.855 823.585L876.613 844.557C876.106 847.495 873.067 849.42 870.129 848.509L854.222 842.936L865.468 815.075L879.855 823.585V823.585Z" fill="#AF709E"/>
<path fill-rule="evenodd" clip-rule="evenodd" d="M870.23 917.098C842.267 908.689 826.766 877.383 832.946 856.816C837.404 842.024 857.161 832.906 870.838 836.959C901.334 846.28 910.351 885.792 904.677 904.333C900.321 918.821 883.806 921.151 870.23 917.098V917.098Z" fill="#C8002D"/>
<path d="M935.375 908.993L884.212 910.716C880.26 910.716 872.459 907.575 872.56 903.826L882.996 851.751C883.097 848.103 876.512 843.544 880.159 843.544L926.764 841.923C928.486 841.923 930.006 843.139 930.208 844.861L935.679 896.734L938.01 906.157C938.212 907.575 936.996 908.993 935.375 908.993V908.993Z" fill="#EC1D2C"/>
<path d="M884.212 910.716L867.393 913.958C866.279 913.958 868.71 908.385 868.913 903.826C869.622 892.58 869.926 862.794 869.926 849.116C869.926 845.672 872.763 842.936 876.208 843.139L882.996 843.544C883.908 843.544 884.617 844.253 884.718 845.064C884.718 845.064 884.414 864.82 885.225 898.457C885.326 901.496 886.643 904.738 886.846 908.081C886.947 909.399 885.731 910.716 884.212 910.716Z" fill="#9A1919"/>
<path fill-rule="evenodd" clip-rule="evenodd" d="M904.981 876.573C908.932 876.471 911.668 872.723 911.566 869.785C911.465 867.556 909.439 866.644 907.514 866.846C902.955 866.948 900.726 870.899 900.827 873.533C900.827 875.661 902.955 876.573 904.981 876.573V876.573ZM922.61 869.481C922.711 872.419 919.976 876.066 915.923 876.167C913.998 876.167 911.87 875.357 911.87 873.229C911.668 870.595 914.099 866.543 918.456 866.441C920.482 866.34 922.508 867.252 922.61 869.481V869.481ZM908.122 886.198C911.668 886.299 915.011 885.184 917.443 882.956L918.456 885.691L919.773 878.599L912.985 878.7L915.315 880.321C913.289 882.246 909.641 883.766 906.501 883.563C903.461 883.259 900.928 881.233 899.814 879.106H899.51C900.422 882.652 903.664 885.995 908.122 886.198V886.198Z" fill="white"/>
<path fill-rule="evenodd" clip-rule="evenodd" d="M909.236 904.738C910.452 908.082 900.625 910.108 898.598 910.716C898.902 910.918 906.703 909.297 906.805 909.399C908.831 910.108 899.409 921.354 887.048 920.948C886.542 920.948 878.234 920.543 878.234 920.543L867.393 910.513C867.393 910.513 881.577 903.624 882.591 903.117C890.29 899.368 894.748 898.862 896.977 899.166C898.902 899.368 897.484 901.901 896.268 902.61C891.506 905.245 892.519 905.549 892.925 905.751C896.876 906.46 907.919 901.395 909.236 904.738V904.738Z" fill="#AF709E"/>
<path d="M828.489 865.833C828.59 865.732 828.59 865.529 828.691 865.428C838.114 840.302 855.54 848.205 855.54 848.205C863.442 851.244 861.821 871 856.755 877.687L849.157 889.541C848.448 890.554 848.549 891.871 849.258 892.986C852.601 897.646 864.151 907.17 876.917 904.941C878.741 904.637 880.362 906.157 880.362 907.98C880.362 911.425 879.45 915.883 878.741 918.517C878.437 919.631 877.525 920.543 876.208 920.746C867.191 922.063 844.091 924.697 828.59 915.68C807.111 903.117 826.766 868.873 828.489 865.833V865.833Z" fill="#AF709E"/>
<path fill-rule="evenodd" clip-rule="evenodd" d="M873.371 824.396C875.296 825.51 877.829 826.523 879.956 826.422L878.234 834.426L872.358 825.409C871.75 824.801 872.56 823.991 873.371 824.396V824.396Z" fill="#77486F"/>
<path fill-rule="evenodd" clip-rule="evenodd" d="M933.146 911.83C933.45 913.147 932.64 917.605 928.689 914.971C926.865 913.654 921.901 908.487 921.901 908.487C921.901 908.487 919.266 905.447 922.61 904.029C925.345 902.914 928.891 906.967 928.891 906.967L933.146 911.83V911.83Z" fill="#AF709E"/>
<path fill-rule="evenodd" clip-rule="evenodd" d="M927.574 906.157C927.574 906.157 934.464 913.35 936.692 913.046C938.313 912.742 939.833 911.02 939.225 909.703C938.415 907.575 933.45 903.117 933.45 903.117L933.552 903.218C932.336 902.104 930.411 901.496 929.195 901.8C927.675 902.003 926.561 903.32 927.675 906.359L927.574 906.157V906.157Z" fill="#AF709E"/>
<path fill-rule="evenodd" clip-rule="evenodd" d="M932.032 902.61C932.032 902.61 938.921 909.804 941.252 909.399C942.771 909.196 944.291 907.474 943.784 906.157C942.974 904.029 937.908 899.571 937.908 899.571L938.01 899.672C936.895 898.558 934.869 897.95 933.653 898.254C932.133 898.457 931.019 899.774 932.133 902.813L932.032 902.61V902.61Z" fill="#AF709E"/>
<path fill-rule="evenodd" clip-rule="evenodd" d="M927.372 904.941C927.473 904.839 927.675 904.839 927.777 905.042L927.574 905.245L927.27 905.346C927.169 905.245 927.27 905.042 927.372 904.941V904.941ZM927.574 905.245L927.27 905.346L927.372 905.447L927.473 905.549C927.574 905.65 927.675 905.853 927.878 906.055C928.182 906.562 928.689 907.17 929.297 907.778C930.411 909.196 931.829 910.817 932.944 912.033C933.045 912.134 933.248 912.134 933.349 912.033C933.552 911.931 933.552 911.729 933.349 911.628C932.235 910.412 930.816 908.791 929.702 907.474C929.195 906.764 928.689 906.157 928.385 905.751C928.182 905.549 928.081 905.346 927.979 905.245L927.777 905.042L927.574 905.245V905.245Z" fill="#89567E"/>
<path fill-rule="evenodd" clip-rule="evenodd" d="M904.474 913.755C904.576 913.856 904.576 914.059 904.373 914.16C903.36 914.87 901.638 915.376 900.219 915.68C899.611 915.781 898.902 915.883 898.497 915.984C898.294 915.984 898.092 915.984 897.99 915.984C897.889 915.984 897.788 916.085 897.788 916.085C897.788 916.085 897.788 916.085 897.686 915.781L897.788 916.085C897.585 916.085 897.382 915.984 897.382 915.781C897.382 915.579 897.484 915.477 897.686 915.477C897.788 915.477 897.788 915.477 897.889 915.477C897.99 915.376 898.193 915.376 898.396 915.376C898.801 915.275 899.51 915.173 900.118 915.072C901.536 914.768 903.056 914.363 904.069 913.654C904.272 913.552 904.373 913.654 904.474 913.755V913.755Z" fill="#89567E"/>
<path fill-rule="evenodd" clip-rule="evenodd" d="M931.829 902.408C931.931 902.205 932.133 902.205 932.235 902.307L932.032 902.61L931.829 902.813C931.728 902.712 931.728 902.509 931.829 902.408V902.408ZM932.032 902.61L931.829 902.813H931.931L932.032 902.914C932.133 903.016 932.336 903.218 932.539 903.421C933.045 903.826 933.653 904.333 934.362 904.941C935.781 906.157 937.402 907.575 938.617 908.791C938.719 908.892 938.921 908.892 939.023 908.791C939.124 908.588 939.124 908.385 939.023 908.284C937.807 907.17 936.186 905.65 934.768 904.434C934.058 903.826 933.45 903.32 932.944 902.914C932.741 902.712 932.539 902.611 932.437 902.509L932.235 902.408V902.307L932.032 902.61V902.61Z" fill="#89567E"/>
<path fill-rule="evenodd" clip-rule="evenodd" d="M939.225 900.686L936.591 892.276C936.591 892.276 934.869 889.642 934.768 893.087L935.781 900.686H939.225V900.686Z" fill="#AF709E"/>
<path fill-rule="evenodd" clip-rule="evenodd" d="M918.658 847.698C919.266 847.799 919.672 848.407 919.57 849.015C918.051 855.702 916.126 859.957 913.998 862.49C912.884 863.706 911.668 864.516 910.452 864.82C909.135 865.225 907.818 865.023 906.703 864.516C904.474 863.503 902.549 861.173 901.232 858.336C899.915 855.601 899.105 852.156 898.902 848.813C898.902 848.205 899.409 847.597 900.118 847.597C900.726 847.597 901.232 848.103 901.334 848.711C901.435 851.751 902.246 854.891 903.36 857.323C904.576 859.856 906.197 861.68 907.716 862.389C908.426 862.693 909.135 862.693 909.743 862.591C910.452 862.389 911.262 861.882 912.174 860.869C913.897 858.843 915.72 854.993 917.24 848.509C917.341 847.901 917.949 847.495 918.658 847.698V847.698Z" fill="#78252B"/>
<path fill-rule="evenodd" clip-rule="evenodd" d="M878.538 802.512C875.904 802.512 873.776 804.639 873.776 807.274C873.776 809.908 875.904 812.035 878.538 812.035C881.172 812.035 883.3 809.908 883.3 807.274C883.3 804.639 881.172 802.512 878.538 802.512ZM871.345 807.274C871.345 803.322 874.587 800.182 878.538 800.182C882.489 800.182 885.731 803.322 885.731 807.274C885.731 811.225 882.489 814.467 878.538 814.467C874.587 814.467 871.345 811.225 871.345 807.274Z" fill="white"/>
<path fill-rule="evenodd" clip-rule="evenodd" d="M891.709 802.512C889.075 802.512 886.947 804.639 886.947 807.274C886.947 809.908 889.075 812.035 891.709 812.035C894.343 812.035 896.572 809.908 896.572 807.274C896.572 804.639 894.343 802.512 891.709 802.512ZM884.617 807.274C884.617 803.322 887.758 800.182 891.709 800.182C895.66 800.182 898.902 803.322 898.902 807.274C898.902 811.225 895.66 814.467 891.709 814.467C887.758 814.467 884.617 811.225 884.617 807.274Z" fill="white"/>
<path fill-rule="evenodd" clip-rule="evenodd" d="M955.03 645.677C948.344 645.677 942.265 648.007 937.402 651.756C933.045 641.523 922.812 634.33 911.06 634.33C897.788 634.33 886.542 643.246 883.198 655.403C875.802 659.658 870.838 667.662 870.838 676.882C870.838 690.154 881.375 700.995 894.748 701.501C894.85 701.501 894.951 701.501 894.951 701.501C894.951 701.501 953.916 701.603 955.03 701.603C970.43 701.603 983.094 689.04 983.094 673.539C983.094 658.139 970.43 645.677 955.03 645.677V645.677Z" fill="white"/>
<path fill-rule="evenodd" clip-rule="evenodd" d="M698.198 752.26C696.273 752.26 694.551 752.969 693.133 753.982C691.917 751.044 689.08 749.119 685.635 749.119C681.785 749.119 678.645 751.551 677.733 755.097C675.504 756.414 674.085 758.744 674.085 761.378C674.085 765.127 677.125 768.369 680.975 768.47C680.975 768.47 680.975 768.47 681.177 768.47C681.177 768.47 697.996 768.47 698.3 768.47C702.859 768.47 706.405 764.924 706.405 760.466C706.303 755.806 702.656 752.26 698.198 752.26Z" fill="white"/>
<path fill-rule="evenodd" clip-rule="evenodd" d="M764.863 937.463C750.071 944.149 736.698 956.51 730.619 975.962C727.883 984.777 727.275 994.199 729.504 1001.9C731.733 1009.4 736.596 1015.47 745.309 1018.21C758.176 1022.16 774.589 1020.54 789.381 1013.35C804.072 1006.15 816.736 993.591 822.308 975.76C824.943 967.148 825.551 957.726 823.322 949.924C821.093 942.326 816.23 936.247 807.618 933.613C796.068 930.067 779.756 930.776 764.863 937.463ZM809.948 926.217C796.372 922.063 778.135 923.076 761.722 930.371C745.107 937.868 730.112 951.849 723.223 973.733C720.183 983.561 719.373 994.503 722.108 1004.03C724.844 1013.75 731.531 1021.96 742.979 1025.61C758.075 1030.17 776.514 1028.24 792.826 1020.34C809.138 1012.33 823.423 998.251 829.704 978.09C832.744 968.364 833.554 957.422 830.819 947.797C827.982 938.071 821.397 929.763 809.948 926.217Z" fill="#9A1919"/>
</g>
<defs>
<clipPath id="clip0_1:2">
<rect width="1520" height="1503" fill="white"/>
</clipPath>
</defs>
</svg>
