<svg width="164" height="163" viewBox="0 0 164 163" fill="none" xmlns="http://www.w3.org/2000/svg">
<path fill-rule="evenodd" clip-rule="evenodd" d="M91.1993 143.473V87.2296H82.5281C81.0048 87.2296 79.7159 85.9433 79.7159 84.3063L79.5987 73.198C79.5987 71.6779 80.8876 70.3917 82.5281 70.3917H91.1993V56.4771C91.1993 39.6392 101.394 30.5187 116.393 30.5187H128.696C130.22 30.5187 131.509 31.8049 131.509 33.4419V45.9534C131.509 47.5904 130.22 48.8766 128.696 48.8766H121.197C112.995 48.8766 111.471 52.7353 111.471 58.3479V70.3917H127.056C128.696 70.3917 129.985 71.6779 129.985 73.198C129.985 73.3149 129.985 73.4319 129.868 73.5488L128.111 84.6571C127.993 86.0603 126.822 87.1126 125.298 87.2296H111.471V143.473H91.1993ZM33.3132 1.52588e-05H130.688C148.968 1.52588e-05 163.967 14.967 163.967 33.208V129.792C163.967 148.033 148.968 163 130.688 163H33.3132C15.0334 163 0.0345764 148.033 0.0345764 129.792V33.208C0.0345764 14.967 15.0334 1.52588e-05 33.3132 1.52588e-05Z" fill="#FEFEFE"/>
</svg>
