<svg width="802" height="743" viewBox="0 0 802 743" fill="none" xmlns="http://www.w3.org/2000/svg">
<g clip-path="url(#clip0_508_3)">
<path d="M624.186 620.83C704.258 617.427 768.787 605.796 768.316 594.856C767.856 583.907 702.567 577.791 622.505 581.194C542.433 584.597 477.904 596.228 478.375 607.178C478.835 618.117 544.124 624.233 624.186 620.83Z" fill="#BB202B" fill-opacity="0.701961"/>
<path fill-rule="evenodd" clip-rule="evenodd" d="M672.079 313.553C672.079 313.553 655.715 312.632 655.344 320.899C655.344 320.899 667.485 316.485 672.81 321.26L672.079 313.553Z" fill="#EFA14D"/>
<path d="M707.391 564.649L745.275 587.239C751.161 590.723 749.689 599.731 742.883 601.012C720.083 605.426 681.088 601.562 672.81 584.117C668.216 574.378 673.921 563.358 677.414 563.358L707.391 564.649Z" fill="#C8002D"/>
<path d="M518.521 557.112C518.521 557.112 458.557 594.586 471.619 601.382C488.724 610.2 540.03 596.608 540.03 596.608L541.502 596.418C546.106 595.867 550.149 593.485 552.722 589.812C559.158 580.624 567.625 563.358 544.084 558.393L518.521 557.112Z" fill="#C8002D"/>
<path d="M710.514 566.481C708.682 565.38 707.762 563.358 708.132 561.336L721.184 475.379C722.475 465.089 713.827 469.684 707.762 461.226L680.727 421C675.392 413.473 673 402.633 665.463 407.958L659.949 412.002L603.848 410.53L518.521 557.112C518.521 557.112 489.825 576.95 503.437 578.232C513.737 579.343 533.224 575.299 542.973 569.424C546.106 567.582 548.858 565.01 551.07 562.077L595.941 499.621C597.232 497.779 598.703 496.127 600.355 494.476L649.459 446.162C650.75 444.151 651.301 435.693 652.772 437.535L673 465.64C675.392 469.123 676.493 473.357 675.943 477.581L677.594 564.459C677.594 568.323 680.177 571.806 683.85 573.277C694.52 577.321 716.77 585.218 726.889 584.297C737.739 583.196 718.421 571.075 710.514 566.481Z" fill="#AF709E"/>
<path d="M782.249 326.955L775.803 308.218C774.332 303.994 770.839 301.242 767.165 301.792C764.953 302.162 762.931 303.634 761.83 305.836C760.719 308.038 760.359 310.98 760.91 313.733L763.302 313.182C762.931 311.161 763.122 309.139 764.032 307.487C764.773 305.836 766.244 304.915 767.526 304.735C769.918 304.364 772.31 306.196 773.411 309.319L779.857 328.056C780.037 328.606 780.587 328.977 781.138 328.977C781.318 328.977 781.318 328.977 781.508 328.796C782.249 328.426 782.429 327.695 782.249 326.955Z" fill="#9A1919"/>
<path fill-rule="evenodd" clip-rule="evenodd" d="M758.337 319.428C761.09 314.103 759.068 308.038 759.068 306.566C759.068 304.735 758.337 307.117 757.787 304.735C757.787 303.263 759.438 300.691 759.989 299.22C762.931 291.503 757.787 290.031 755.395 295.176C753.183 299.59 742.703 310.79 741.602 315.755L740.311 321.63C739.57 324.573 738.289 327.325 736.448 329.717L720.813 349.545C716.219 355.43 709.783 359.834 702.607 361.856H664.352L668.586 401.532L720.453 382.064C724.867 380.413 728.54 377.47 731.303 373.617L766.424 324.382L758.337 319.428Z" fill="#AF709E"/>
<path fill-rule="evenodd" clip-rule="evenodd" d="M757.416 303.994C755.024 307.667 752.632 312.632 750.79 316.666C747.858 323.101 753.183 334.301 755.765 333.931C755.765 333.931 766.795 324.383 768.086 319.979C767.716 312.812 757.416 307.858 757.416 303.994Z" fill="#77486F"/>
<path d="M783.9 326.594L777.464 307.858C775.993 303.634 772.5 300.871 768.817 301.422C766.615 301.792 764.583 303.263 763.482 305.465C762.381 307.667 762.011 310.61 762.561 313.363L764.953 312.812C764.583 310.79 764.773 308.768 765.694 307.117C766.424 305.465 767.896 304.545 769.187 304.364C771.579 303.994 773.971 305.836 775.072 308.959L781.508 327.695C781.688 328.246 782.249 328.606 782.799 328.606C782.979 328.606 782.979 328.606 783.16 328.426C783.9 328.056 784.08 327.145 783.9 326.594Z" fill="#C13547"/>
<path d="M764.223 306.757L757.787 325.493C757.597 326.044 757.046 326.404 756.496 326.404C756.315 326.404 756.315 326.404 756.125 326.224C755.575 325.854 755.204 325.123 755.575 324.392L762.011 305.646L764.223 306.757Z" fill="#9A1919"/>
<path d="M768.997 304.184C766.615 303.814 764.222 305.646 763.122 308.768L756.676 327.505C756.496 328.056 755.945 328.426 755.395 328.426C755.204 328.426 755.204 328.426 755.024 328.246C754.474 327.876 754.103 327.135 754.474 326.404L760.91 307.667C762.381 303.444 765.874 300.691 769.557 301.242L768.997 304.184Z" fill="#C13547"/>
<path fill-rule="evenodd" clip-rule="evenodd" d="M767.165 315.564C768.266 316.305 770.288 320.709 766.795 322C764.403 322.731 754.834 322.371 754.834 322.371C754.834 322.371 750.43 322.371 751.711 318.507C752.822 315.384 758.517 315.564 758.517 315.564L765.504 315.755L767.165 315.564Z" fill="#AF709E"/>
<path fill-rule="evenodd" clip-rule="evenodd" d="M756.496 315.384C756.496 315.384 767.165 316.485 768.817 314.654C769.918 313.362 769.918 310.98 768.456 310.24C766.244 309.139 759.068 308.958 759.068 308.958H759.248C757.416 308.958 755.575 309.689 754.654 310.79C753.553 312.081 753.553 313.913 756.496 315.384Z" fill="#AF709E"/>
<path fill-rule="evenodd" clip-rule="evenodd" d="M759.438 308.959C759.438 308.959 766.244 311.161 768.266 309.88C769.738 308.959 770.288 306.016 769.187 304.915C767.525 303.264 762.751 303.444 760.359 303.444C758.708 303.634 754.474 306.937 759.438 308.959Z" fill="#AF709E"/>
<path fill-rule="evenodd" clip-rule="evenodd" d="M767.666 315.554C767.676 315.725 767.545 315.875 767.365 315.885C765.604 315.985 762.881 315.985 760.609 315.955C759.468 315.945 758.437 315.925 757.687 315.915C757.316 315.915 757.016 315.905 756.806 315.895H756.566L756.485 315.885L756.496 315.564L756.506 315.244H756.586L756.826 315.254C757.036 315.254 757.336 315.264 757.707 315.274C758.447 315.284 759.478 315.304 760.619 315.314C762.891 315.334 765.594 315.334 767.325 315.244C767.505 315.234 767.656 315.374 767.666 315.554ZM756.175 315.564C756.175 315.384 756.325 315.244 756.506 315.244L756.496 315.564L756.485 315.885C756.315 315.885 756.165 315.735 756.175 315.564Z" fill="#89567E"/>
<path fill-rule="evenodd" clip-rule="evenodd" d="M758.017 308.698C758.067 308.528 758.237 308.418 758.407 308.458L758.337 308.768L758.267 309.089C758.087 309.049 757.977 308.869 758.017 308.698ZM758.337 308.768L758.267 309.089H758.277L758.327 309.099C758.367 309.109 758.427 309.129 758.507 309.139C758.668 309.179 758.908 309.229 759.198 309.289C759.789 309.409 760.609 309.569 761.57 309.729C763.482 310.06 765.944 310.38 768.086 310.38C768.266 310.38 768.406 310.24 768.406 310.06C768.406 309.879 768.266 309.739 768.086 309.739C765.994 309.739 763.582 309.419 761.68 309.099C760.729 308.939 759.909 308.778 759.328 308.658C759.038 308.598 758.808 308.548 758.648 308.518C758.567 308.498 758.507 308.478 758.467 308.478L758.417 308.458H758.407L758.337 308.768Z" fill="#89567E"/>
<path fill-rule="evenodd" clip-rule="evenodd" d="M797.873 391.984H742.523C740.311 391.984 738.659 390.332 738.659 388.12L741.972 326.034C741.972 323.832 743.624 322.181 745.826 322.181H794.75C796.952 322.181 798.614 323.832 798.614 326.034L801.927 388.12C801.736 390.142 800.085 391.984 797.873 391.984Z" fill="#EC1D2C"/>
<path fill-rule="evenodd" clip-rule="evenodd" d="M702.427 361.676C680.177 368.102 640.451 362.407 619.112 349.005C604.949 360.015 605.509 381.514 595.57 417.697C592.267 429.457 649.459 431.289 680.357 424.493C684.4 397.679 697.272 378.942 702.427 361.676Z" fill="#AF709E"/>
<path fill-rule="evenodd" clip-rule="evenodd" d="M619.852 271.115C619.852 270.934 621.133 267.992 622.244 265.61C625.187 258.443 621.694 255.871 617.09 263.768L611.575 272.956L619.852 271.115Z" fill="#AF709E"/>
<path fill-rule="evenodd" clip-rule="evenodd" d="M606.43 271.114C603.297 272.035 602.567 274.057 603.297 275.889L607.531 289.121C608.082 290.952 609.913 291.142 611.755 290.592L640.081 281.224C641.922 280.673 642.843 278.651 642.102 276.81L638.059 264.508C637.508 262.667 635.486 261.566 633.645 262.116L606.43 271.114Z" fill="#9A1919"/>
<path fill-rule="evenodd" clip-rule="evenodd" d="M602.567 289.671C607.161 287.099 612.496 288.57 613.787 288.57C616.719 288.38 622.244 286.368 624.076 285.998C625.738 285.628 627.579 286.368 627.019 287.83C626.658 289.121 620.583 291.693 615.989 293.895C613.967 294.996 610.284 297.198 609.373 299.22L597.052 328.606C595.941 330.818 595.941 330.818 599.254 334.672L643.944 356.892C646.146 357.452 633.645 387.579 607.341 383.346L572.4 348.084C565.593 341.648 561.179 333.2 570.378 321.079L597.232 279.932L602.567 289.671Z" fill="#AF709E"/>
<path fill-rule="evenodd" clip-rule="evenodd" d="M607.161 288.2C606.06 288.75 602.016 289.851 600.355 291.693C597.963 294.445 589.875 293.164 589.685 291.873L601.826 270.754L607.161 288.2Z" fill="#77486F"/>
<path fill-rule="evenodd" clip-rule="evenodd" d="M607.161 268.732C606.981 267.441 604.949 263.768 602.196 267.261C600.905 268.913 597.963 274.978 597.963 274.978C597.963 274.978 596.491 278.461 599.804 278.832C602.567 279.012 604.588 274.428 604.588 274.428L607.161 268.732Z" fill="#AF709E"/>
<path fill-rule="evenodd" clip-rule="evenodd" d="M604.959 272.956C604.959 272.956 609.003 264.508 611.024 264.138C612.496 263.958 614.327 265.059 614.327 266.34C614.327 268.542 611.024 273.877 611.024 273.877V273.687C610.284 274.978 608.812 276.079 607.531 276.259C606.24 276.629 604.769 275.889 604.959 272.956Z" fill="#AF709E"/>
<path fill-rule="evenodd" clip-rule="evenodd" d="M607.291 268.482C607.431 268.552 607.481 268.722 607.411 268.863C606.68 270.224 606.09 271.635 605.68 272.716C605.469 273.246 605.309 273.697 605.199 274.007C605.149 274.167 605.109 274.297 605.079 274.377L605.049 274.478L605.039 274.498V274.508L604.769 274.428L607.291 268.482ZM604.769 274.428L604.499 274.337V274.327L604.509 274.307L604.549 274.207C604.569 274.117 604.619 273.987 604.669 273.827C604.779 273.507 604.939 273.056 605.149 272.506C605.57 271.425 606.17 269.984 606.911 268.592C606.991 268.462 607.161 268.412 607.291 268.482L604.769 274.428Z" fill="#89567E"/>
<path fill-rule="evenodd" clip-rule="evenodd" d="M716.589 451.127L691.397 430.008C684.771 424.493 682.198 415.675 684.771 407.598L689.185 393.455L684.591 384.447H684.771L679.986 375.819L673.551 361.676H669.687C669.687 361.676 675.763 385.368 661.78 383.896C648.538 382.435 640.631 367.551 641.552 365.159L644.865 357.633L637.508 354.139L626.839 373.247C617.09 385.918 603.297 380.043 603.297 380.043L595.02 417.877L549.048 502.563C544.634 510.821 549.599 520.93 558.797 522.211C618.011 531.029 682.008 521.29 705.189 517.066C710.884 515.965 715.488 511.742 716.77 506.046C720.633 491.533 725.417 463.988 716.589 451.127Z" fill="#C8002D"/>
<path fill-rule="evenodd" clip-rule="evenodd" d="M671.529 320.899C668.957 318.878 668.406 315.014 670.608 312.452C670.608 312.452 689.185 286.919 695.44 290.772C700.035 294.446 696.361 299.4 694.34 301.972L680.177 319.979C677.965 322.551 674.101 323.101 671.529 320.899Z" fill="#EFA14D"/>
<path fill-rule="evenodd" clip-rule="evenodd" d="M670.058 318.878C668.586 315.935 669.877 312.262 672.81 310.79L691.757 301.422C698.563 298.489 703.528 303.634 694.89 309.509L678.145 321.63C675.022 323.101 671.529 321.81 670.058 318.878Z" fill="#EFA14D"/>
<path fill-rule="evenodd" clip-rule="evenodd" d="M651.851 341.838L643.754 360.385C643.203 361.486 642.473 364.799 643.574 365.159C649.649 367.371 668.406 375.268 669.877 372.145L670.058 343.309L651.851 341.838Z" fill="#AF709E"/>
<path fill-rule="evenodd" clip-rule="evenodd" d="M659.578 350.106C671.159 349.915 680.357 335.773 680.177 327.325C680.177 321.26 674.101 319.788 668.586 318.687C653.693 315.564 643.754 332.099 643.754 339.816C643.944 345.692 654.063 350.106 659.578 350.106Z" fill="#AF709E"/>
<path fill-rule="evenodd" clip-rule="evenodd" d="M677.785 341.838C681.648 341.838 684.401 338.165 684.401 335.222C684.401 333.2 682.379 332.28 680.357 332.28C676.123 332.28 673.741 336.143 673.741 338.895C673.741 341.097 675.763 342.018 677.785 341.838Z" fill="#AF709E"/>
<path fill-rule="evenodd" clip-rule="evenodd" d="M669.877 322.731C666.745 321.63 662.521 317.777 663.622 314.654L673.741 281.224C674.842 278.101 679.066 272.766 684.401 274.978C692.128 278.281 690.106 281.774 689.005 285.077L679.987 319.979C676.684 323.472 669.877 322.731 669.877 322.731Z" fill="#EFA14D"/>
<path fill-rule="evenodd" clip-rule="evenodd" d="M650.01 347.163C652.402 349.185 656.816 348.634 662.331 348.815C662.881 348.815 663.071 349.735 662.521 349.916L648.168 353.589C647.808 353.779 647.437 353.219 647.617 352.858L649.649 347.533C649.459 347.343 649.829 347.163 650.01 347.163Z" fill="#77486F"/>
<path fill-rule="evenodd" clip-rule="evenodd" d="M669.327 321.26C669.327 321.26 679.806 324.392 676.123 334.121C676.123 334.121 677.044 332.47 680.547 332.47C680.547 332.47 684.22 324.753 677.965 318.877L669.327 321.26Z" fill="#EFA14D"/>
<path fill-rule="evenodd" clip-rule="evenodd" d="M654.323 325.423C654.464 324.963 654.944 324.693 655.414 324.833L662.21 326.855C662.251 326.865 662.291 326.885 662.331 326.895L676.303 333.331C676.744 333.531 676.934 334.051 676.734 334.492C676.533 334.922 676.013 335.112 675.573 334.912L661.66 328.516L654.914 326.514C654.454 326.374 654.183 325.884 654.323 325.423Z" fill="#9A1919"/>
<path fill-rule="evenodd" clip-rule="evenodd" d="M647.808 329.897C653.132 329.897 656.636 325.123 656.636 321.08C656.636 318.327 653.873 317.036 651.301 317.036C645.596 317.036 642.473 322.361 642.473 325.854C642.473 328.796 645.225 329.897 647.808 329.897Z" fill="#9A1919"/>
<path fill-rule="evenodd" clip-rule="evenodd" d="M658.657 334.852C664.352 334.852 668.036 329.717 668.036 325.674C668.036 322.731 665.093 321.45 662.331 321.45C656.265 321.45 652.952 326.955 652.952 330.628C653.132 333.571 656.075 334.852 658.657 334.852Z" fill="#9A1919"/>
<path fill-rule="evenodd" clip-rule="evenodd" d="M656.635 337.795C656.635 337.795 653.693 334.672 650.93 333.02C647.067 330.628 646.516 335.402 646.516 335.402C646.516 335.402 646.516 335.402 646.697 335.402C647.067 336.513 649.649 343.31 656.265 337.975C656.445 337.975 656.635 337.795 656.635 337.795Z" fill="#C8002D"/>
<path fill-rule="evenodd" clip-rule="evenodd" d="M762.381 354.51C767.345 354.51 770.839 349.915 770.658 346.242C770.658 343.67 768.086 342.389 765.504 342.569C759.989 342.569 757.046 347.533 757.236 350.836C757.416 353.409 759.989 354.51 762.381 354.51ZM784.271 346.062C784.271 349.735 780.958 354.329 775.983 354.329C773.601 354.329 771.029 353.218 770.839 350.656C770.839 347.343 773.781 342.389 779.116 342.389C781.688 342.198 784.271 343.309 784.271 346.062ZM766.425 366.45C770.838 366.631 774.892 365.349 777.825 362.597L779.116 366.08L780.767 357.262L772.5 357.452L775.443 359.474C773.05 361.856 768.456 363.698 764.583 363.328C760.719 362.957 757.597 360.575 756.315 357.813H756.125C756.866 362.036 760.719 366.27 766.425 366.45Z" fill="white"/>
<path fill-rule="evenodd" clip-rule="evenodd" d="M584.541 522.761V461.046C584.541 460.315 584.901 459.574 585.461 459.214L622.245 435.142C622.795 434.782 623.165 434.041 623.165 433.311V391.983C623.165 391.433 623.346 390.882 623.716 390.512L641.732 372.696C642.653 371.775 644.124 371.955 645.045 372.876C646.146 374.528 648.168 376.92 650.75 378.942C651.481 379.492 651.851 380.413 651.481 381.144C650.2 386.108 642.473 393.815 639.9 396.567C639.34 397.128 639.16 398.049 639.34 398.78L650.75 435.332C651.121 436.253 650.75 437.164 649.829 437.715L613.417 461.596C612.866 461.966 612.496 462.697 612.496 463.438V524.783C612.496 526.074 611.385 526.985 610.104 526.985L586.382 524.973C585.461 524.973 584.541 523.872 584.541 522.761Z" fill="#E6C7CB" fill-opacity="0.419608"/>
<path d="M135.986 639.036C211.044 639.036 271.889 627.766 271.889 613.873C271.889 599.971 211.044 588.701 135.986 588.701C60.9183 588.701 0.0734863 599.971 0.0734863 613.873C0.0734863 627.766 60.9183 639.036 135.986 639.036Z" fill="#BB202B" fill-opacity="0.701961"/>
<path fill-rule="evenodd" clip-rule="evenodd" d="M208.081 526.805C189.134 587.61 121.643 612.583 76.9528 598.81C44.5836 588.711 40.1696 553.249 49.3579 523.502C70.1466 457.192 140.21 439.006 180.486 451.497C212.675 461.416 217.269 497.419 208.081 526.805Z" fill="#F8EDED"/>
<path fill-rule="evenodd" clip-rule="evenodd" d="M110.163 463.608C86.4213 474.248 65.0921 494.096 55.2932 525.344C50.9493 539.406 49.9584 554.43 53.5316 566.801C57.0348 578.912 64.8518 588.531 78.7944 592.885C99.403 599.23 125.817 596.738 149.438 585.198C172.959 573.717 193.258 553.499 202.146 524.963V524.953C206.48 511.111 207.44 496.037 203.837 483.566C200.304 471.355 192.467 461.676 178.654 457.423L178.644 457.413C160.098 451.667 134.074 452.878 110.163 463.608ZM182.328 445.572C160.598 438.826 131.452 440.467 105.068 452.288C78.5142 464.189 54.4224 486.589 43.4325 521.64V521.67C38.5782 537.355 37.1769 554.93 41.6009 570.244C46.1049 585.828 56.6745 598.98 75.1011 604.725L75.1211 604.735C99.1928 612.152 128.87 609.049 154.893 596.348C181.027 583.586 203.947 560.906 214.006 528.657C218.871 513.113 220.212 495.487 215.768 480.123C211.254 464.509 200.704 451.237 182.328 445.572Z" fill="#9A1919"/>
<path fill-rule="evenodd" clip-rule="evenodd" d="M150.699 399.33C150.699 399.33 96.8107 415.304 98.4622 448.925C98.4622 448.925 93.6879 509.169 160.258 466.371L150.699 399.33Z" fill="#77486F"/>
<path fill-rule="evenodd" clip-rule="evenodd" d="M266.163 381.044C267.945 383.966 267.014 387.78 264.082 389.561L236.517 406.316L235.986 487.35C235.966 490.783 233.164 493.535 229.741 493.515C226.308 493.495 223.545 490.703 223.565 487.269L224.116 402.783C224.136 400.631 225.257 398.64 227.098 397.519L257.626 378.962C260.558 377.19 264.382 378.121 266.163 381.044Z" fill="#9A1919"/>
<path fill-rule="evenodd" clip-rule="evenodd" d="M228.129 372.276C229.48 375.418 228.019 379.062 224.866 380.413L195.129 393.144L194.609 473.577C194.589 477 191.786 479.763 188.353 479.743C184.93 479.723 182.168 476.92 182.188 473.497L182.738 389.001C182.758 386.538 184.23 384.316 186.502 383.336L219.972 369.013C223.125 367.661 226.778 369.123 228.129 372.276Z" fill="#9A1919"/>
<path fill-rule="evenodd" clip-rule="evenodd" d="M171.108 482.535L110.603 491.904C101.955 493.195 94.969 499.801 93.1274 508.439L77.1329 585.948L171.108 482.535Z" fill="#AF709E"/>
<path d="M99.2029 590.542L55.2433 581.544L71.2477 504.024C74.921 486.398 89.274 472.616 107.29 469.864L167.805 460.495L174.601 504.765L115.017 513.943L99.2029 590.542Z" fill="#7F5376"/>
<path fill-rule="evenodd" clip-rule="evenodd" d="M105.819 467.472C105.819 467.472 117.409 476.29 121.823 516.696L186.932 477.03L180.857 456.642L105.819 467.472Z" fill="#720D2E"/>
<path d="M55.2433 581.544L97.5414 585.218C97.5414 585.218 102.876 596.057 103.987 606.337C104.718 613.874 98.6524 620.119 91.1056 620.119C72.1685 619.929 30.4209 619.749 17.1789 612.222C14.0561 610.571 30.601 600.101 34.2844 597.529C37.7775 595.137 55.2433 581.544 55.2433 581.544Z" fill="#E2BFBF"/>
<path d="M126.047 591.093L71.0675 582.095L93.1274 508.248C96.8107 490.622 115.387 484.927 133.224 482.165L193.728 472.796L200.534 517.066L140.951 526.255L126.047 591.093Z" fill="#AF709E"/>
<path d="M71.0675 582.275L126.047 591.283C126.047 591.283 131.382 602.113 132.493 612.402C133.224 619.929 127.158 626.174 119.611 626.174C101.405 625.994 63.5207 624.893 47.7065 619.018C43.843 617.547 36.6765 614.054 48.9976 602.853C71.0675 582.275 71.0675 582.275 71.0675 582.275Z" fill="#F8EDED"/>
<path fill-rule="evenodd" clip-rule="evenodd" d="M126.968 479.963C126.968 479.963 144.814 491.173 149.228 531.579L214.327 491.904L208.261 471.515L126.968 479.963Z" fill="#720D2E"/>
<path fill-rule="evenodd" clip-rule="evenodd" d="M200.164 486.949C180.486 457.002 131.752 467.662 134.695 434.412C136.346 415.495 145.915 397.308 162.83 392.904C190.785 385.738 212.305 386.839 225.367 418.067C232.723 435.142 222.974 521.66 200.164 486.949Z" fill="#C8002D"/>
<path fill-rule="evenodd" clip-rule="evenodd" d="M123.475 483.636L110.783 484.927C104.538 485.658 98.8325 481.074 98.1018 474.638L94.2383 437.164C93.4977 430.919 98.1018 425.223 104.538 424.493L117.219 423.202C123.475 422.471 129.18 427.065 129.911 433.491L133.774 470.965C134.515 477.21 129.911 482.905 123.475 483.636Z" fill="#9A1919"/>
<path fill-rule="evenodd" clip-rule="evenodd" d="M115.197 484.557L102.516 485.848C96.2602 486.579 90.555 481.985 89.8244 475.559L85.9609 438.085C85.2202 431.839 89.8244 426.144 96.2602 425.414L108.952 424.123C115.197 423.392 120.902 427.986 121.643 434.412L125.497 471.886C126.237 478.131 121.643 483.826 115.197 484.557Z" fill="#EFA14D"/>
<path d="M219.661 492.084C217.82 492.274 215.988 492.274 214.327 491.904C214.327 491.904 170.007 482.535 157.505 474.638C142.972 465.269 142.792 462.887 144.624 453.149C146.646 443.6 142.602 445.432 152.171 447.453L185.451 452.778C191.526 453.699 196.3 447.453 193.918 441.758L183.979 419.538C182.878 409.799 187.112 402.263 196.861 401.162C206.61 400.061 217.82 402.263 225.367 418.067C225.367 418.067 236.767 459.574 223.705 473.167C219.852 477.21 233.824 484.006 229.781 487.68C227.018 490.252 223.525 491.723 219.661 492.084Z" fill="#AF709E"/>
<path d="M164.672 460.676C169.086 470.965 171.478 472.436 164.862 477.391C160.448 480.704 143.893 459.024 125.687 466.561C119.061 469.864 119.251 466.371 122.194 461.776C115.017 465.089 115.938 461.596 119.982 456.642C113.366 457.923 111.704 455.721 115.017 452.959C116.669 451.497 127.528 444.331 130.281 442.679C131.572 441.949 130.101 439.556 130.831 437.164C130.831 436.984 131.022 436.984 131.202 436.984C138.739 439.737 152.171 447.083 152.171 447.083C158.236 453.149 163.941 458.844 164.672 460.676Z" fill="#AF709E"/>
<path fill-rule="evenodd" clip-rule="evenodd" d="M134.835 454.86C134.905 455.241 134.655 455.611 134.264 455.681C130.261 456.392 127.378 458.033 125.497 459.494C124.556 460.225 123.865 460.906 123.415 461.396C123.194 461.646 123.024 461.847 122.924 461.987C122.864 462.057 122.824 462.107 122.804 462.137L122.774 462.177V462.187C122.554 462.507 122.113 462.587 121.793 462.367C121.463 462.147 121.383 461.706 121.613 461.386L122.194 461.776C121.613 461.386 121.613 461.386 121.613 461.386V461.376L121.623 461.356C121.633 461.346 121.643 461.326 121.663 461.306C121.693 461.256 121.743 461.196 121.803 461.116C121.933 460.956 122.123 460.726 122.374 460.455C122.864 459.905 123.615 459.164 124.626 458.373C126.658 456.802 129.75 455.05 134.024 454.29C134.405 454.22 134.775 454.48 134.835 454.86Z" fill="#77486F"/>
<path fill-rule="evenodd" clip-rule="evenodd" d="M132.243 449.455C132.363 449.826 132.143 450.216 131.772 450.336C128.199 451.407 125.336 453.189 123.355 454.72C122.374 455.481 121.613 456.171 121.103 456.672C120.842 456.922 120.652 457.122 120.522 457.262C120.452 457.332 120.412 457.382 120.382 457.412L120.342 457.452L120.332 457.462C120.332 457.462 120.332 457.462 119.801 457.002L119.261 456.542C119.011 456.842 119.041 457.282 119.341 457.543C119.631 457.793 120.082 457.763 120.332 457.462L132.243 449.455ZM119.801 457.002C119.261 456.542 119.261 456.542 119.261 456.542H119.271L119.281 456.522L119.321 456.482C119.361 456.432 119.411 456.372 119.481 456.301C119.631 456.141 119.832 455.931 120.112 455.661C120.652 455.13 121.453 454.4 122.494 453.599C124.566 451.998 127.578 450.116 131.362 448.985C131.742 448.865 132.133 449.085 132.243 449.455L119.801 457.002Z" fill="#77486F"/>
<path d="M197.041 384.447C214.006 384.447 227.759 370.714 227.759 353.779C227.759 336.834 214.006 323.101 197.041 323.101C180.076 323.101 166.323 336.834 166.323 353.779C166.323 370.714 180.076 384.447 197.041 384.447Z" fill="#C29B9B"/>
<path fill-rule="evenodd" clip-rule="evenodd" d="M198.142 355.611C196.31 354.88 195.75 357.632 193.178 358.363C192.997 353.779 190.976 349.545 186.191 347.343C175.892 342.939 156.945 345.692 149.779 362.587C146.466 370.124 146.646 379.492 154.923 383.165C165.042 387.579 180.857 384.266 188.954 372.506C193.178 373.977 210.463 360.205 198.142 355.611Z" fill="#AF709E"/>
<path fill-rule="evenodd" clip-rule="evenodd" d="M189.134 359.474C190.605 359.834 197.411 356.892 198.142 355.611C202.376 348.084 200.724 337.064 191.526 334.852C171.848 329.897 166.694 332.84 154.923 344.771C149.038 345.872 145.545 345.321 134.885 346.062C126.057 346.612 133.224 350.656 134.515 351.016C147.386 353.589 179.015 357.452 189.134 359.474Z" fill="#C8002D"/>
<path fill-rule="evenodd" clip-rule="evenodd" d="M179.565 357.632C179.565 357.632 193.368 358.363 202.556 352.668C204.218 353.959 203.297 360.755 203.297 360.755C203.297 360.755 199.063 354.329 190.605 364.619C190.605 364.619 186.742 367.922 179.565 357.632Z" fill="#C29B9B"/>
<path fill-rule="evenodd" clip-rule="evenodd" d="M165.413 381.884L159.707 398.78C158.787 401.532 160.999 404.285 163.941 403.924C170.007 403.184 179.565 401.162 188.033 394.556L191.706 369.944L165.413 381.884Z" fill="#AF709E"/>
<path fill-rule="evenodd" clip-rule="evenodd" d="M182.878 378.761C182.878 378.761 169.636 384.266 164.492 384.447L160.999 394.556L182.878 378.761Z" fill="#77486F"/>
<path fill-rule="evenodd" clip-rule="evenodd" d="M279.245 553.619C260.308 614.424 192.807 639.406 148.117 625.624C115.758 615.525 111.344 580.073 120.532 550.316C141.311 484.006 211.384 465.82 251.66 478.311C283.849 488.23 288.444 524.233 279.245 553.619Z" fill="#F8EDED"/>
<path d="M284.81 555.351C275.482 585.288 255.033 606.977 231.102 620.129C203.747 635.143 171.698 638.976 146.415 631.179H146.395C129.64 625.954 119.501 614.724 114.427 600.862C108.631 585.058 109.642 565.88 114.977 548.605V548.585C124.736 517.437 144.814 496.358 167.845 483.716C196.431 468.012 229.701 465.42 253.372 472.756L253.602 472.826C271.648 478.471 281.988 491.353 286.532 506.957C290.876 521.911 289.735 539.326 284.92 554.95L284.81 555.351ZM225.497 609.92C246.996 598.109 265.353 578.672 273.69 551.888L273.81 551.537C278.014 537.905 279.055 522.871 275.372 510.19C271.869 498.169 263.941 488.25 250.139 483.936L249.929 483.866C228.93 477.36 199.193 479.773 173.44 493.915C152.821 505.246 134.845 524.133 126.087 552.048C121.443 567.081 120.492 583.566 125.356 596.848C129.24 607.468 137.017 616.065 149.849 620.069C172.249 626.975 200.865 623.442 225.497 609.92Z" fill="#9A1919"/>
<path fill-rule="evenodd" clip-rule="evenodd" d="M216.168 552.158C212.305 564.649 198.512 569.784 189.314 566.851C182.698 564.829 181.777 557.483 183.619 551.417C187.843 537.825 202.196 534.152 210.463 536.724C217.089 538.926 218.01 546.273 216.168 552.158Z" fill="#C8002D"/>
<path d="M157.375 370.254C158.076 368.572 158.046 366.951 157.295 366.641C156.545 366.32 155.364 367.431 154.653 369.123C153.952 370.804 153.992 372.426 154.733 372.736C155.484 373.046 156.665 371.935 157.375 370.254Z" fill="#78252B"/>
<path d="M164.011 370.804C164.802 368.933 164.752 367.131 163.911 366.781C163.06 366.43 161.749 367.662 160.959 369.533C160.178 371.405 160.228 373.207 161.069 373.557C161.909 373.907 163.231 372.676 164.011 370.804Z" fill="#78252B"/>
<path fill-rule="evenodd" clip-rule="evenodd" d="M158.306 378.762C158.306 378.181 158.767 377.721 159.337 377.721H161.549C162.12 377.721 162.58 378.181 162.58 378.762C162.58 379.322 162.12 379.793 161.549 379.793H159.337C158.767 379.793 158.306 379.322 158.306 378.762Z" fill="#78252B"/>
<path d="M366.244 743C506.51 743 620.223 730.088 620.223 714.164C620.223 698.23 506.51 685.328 366.244 685.328C225.967 685.328 112.265 698.23 112.265 714.164C112.265 730.088 225.967 743 366.244 743Z" fill="#BB202B" fill-opacity="0.701961"/>
<path d="M493.318 659.615C493.318 659.615 567.435 678.342 570.928 700.381C573.871 719.128 487.253 722.982 447.347 719.128C432.994 717.657 421.233 706.077 419.762 691.754C418.651 679.633 428.58 664.94 433.364 662.738L493.318 659.615Z" fill="#AF709E"/>
<path d="M322.284 640.508C322.284 640.508 382.979 686.979 377.454 708.649C372.86 727.016 291.566 696.528 256.445 677.241C243.753 670.264 237.688 655.021 241.912 641.238C245.595 629.668 260.488 620.109 265.823 619.929L322.284 640.508Z" fill="#AF709E"/>
<path fill-rule="evenodd" clip-rule="evenodd" d="M323.575 641.238C316.399 643.26 308.121 665.85 308.121 665.85C300.765 663.829 253.872 647.304 253.872 647.304L241.912 641.058C237.498 654.831 230.701 662.918 243.383 669.894C278.515 689.181 372.489 726.835 377.093 708.289C382.058 688.631 332.954 648.585 323.575 641.238Z" fill="#C8002D"/>
<path fill-rule="evenodd" clip-rule="evenodd" d="M494.79 659.975C488.904 664.749 490.376 688.631 490.376 688.631C482.839 689.552 433.184 692.855 433.184 692.855L419.572 691.754C421.043 706.077 417.92 716.186 432.443 717.657C472.359 721.511 573.501 719.118 570.568 700.201C567.255 680.183 506.38 662.918 494.79 659.975Z" fill="#C8002D"/>
<path d="M263.621 606.157L318.24 531.029C320.993 526.435 321.914 521.11 320.993 515.965L305.919 429.267L375.432 417.146L396.401 537.645L330.562 647.124C316.949 646.933 283.849 630.399 266.924 621.4C261.409 618.458 259.758 611.301 263.621 606.157Z" fill="#9A1919"/>
<path d="M415.348 646.753L399.894 549.586C398.423 542.97 395.85 536.724 391.987 531.209L305.179 423.202L392.167 407.227L458.197 517.066C460.949 521.851 463.161 526.805 464.452 532.31L494.609 659.795L433.184 662.918C424.356 663.098 416.819 655.571 415.348 646.753Z" fill="#C8002D"/>
<path fill-rule="evenodd" clip-rule="evenodd" d="M447.277 289.571L448.838 272.115C448.838 272.115 448.228 266.2 444.494 271.355C440.771 276.509 430.402 291.583 427.709 299.09L432.463 311.061L447.277 289.571Z" fill="#DCA1A7"/>
<path fill-rule="evenodd" clip-rule="evenodd" d="M437.708 310.12C437.708 310.12 444.394 288.59 438.369 275.869C432.333 262.947 437.218 276.279 426.778 299.05C426.618 298.84 437.388 306.847 437.708 310.12Z" fill="#DCA1A7"/>
<path fill-rule="evenodd" clip-rule="evenodd" d="M445.725 298.829L457.636 285.908C457.636 285.908 460.709 280.983 454.553 282.625C448.388 284.476 430.932 290.011 424.366 294.315L420.873 306.626L445.725 298.829Z" fill="#DCA1A7"/>
<path fill-rule="evenodd" clip-rule="evenodd" d="M425.657 319.428C425.657 319.428 432.343 297.899 426.308 285.177C420.272 272.256 425.167 285.588 414.727 308.358C414.727 308.358 425.497 316.355 425.657 319.428Z" fill="#DCA1A7"/>
<path fill-rule="evenodd" clip-rule="evenodd" d="M413.596 310.36C413.596 310.36 436.087 295.547 453.392 298.579C470.538 301.752 453.132 300.131 430.652 319.888C430.502 320.029 417.35 309.649 413.596 310.36Z" fill="#DCA1A7"/>
<path d="M378.325 322.761C365.143 336.954 364.892 356.011 377.774 365.319C390.656 374.638 411.785 370.684 424.967 356.481C438.159 342.289 438.409 323.231 425.527 313.923C412.646 304.605 391.516 308.568 378.325 322.761Z" fill="#EFA14D"/>
<path d="M339.019 291.503C361.159 291.503 379.115 273.577 379.115 251.467C379.115 229.347 361.159 211.421 339.019 211.421C316.879 211.421 298.933 229.347 298.933 251.467C298.933 273.577 316.879 291.503 339.019 291.503Z" fill="#C29B9B"/>
<path d="M369.256 281.994C375.362 260.725 359.337 237.484 333.464 230.077C307.591 222.661 281.657 233.891 275.562 255.15C269.456 276.409 285.481 299.65 311.354 307.067C337.227 314.474 363.151 303.253 369.256 281.994Z" fill="#C29B9B"/>
<path fill-rule="evenodd" clip-rule="evenodd" d="M360.719 308.038C342.512 302.523 336.627 288.57 340.681 275.158C352.441 273.136 347.477 259.724 356.675 261.195C382.608 265.419 386.652 287.649 383.159 299.59C380.216 309.139 369.547 310.79 360.719 308.038Z" fill="#AF709E"/>
<path fill-rule="evenodd" clip-rule="evenodd" d="M339.389 273.326C346.196 275.338 348.398 280.673 346.926 285.627C342.512 286.368 344.354 291.503 340.861 290.952C331.112 289.301 329.641 281.033 330.932 276.439C332.213 272.956 336.076 272.406 339.389 273.326Z" fill="#AF709E"/>
<path fill-rule="evenodd" clip-rule="evenodd" d="M363.291 303.263L358.146 336.874C357.406 341.648 352.451 344.591 347.847 343.119L322.284 334.301L340.31 289.671L363.291 303.263Z" fill="#AF709E"/>
<path fill-rule="evenodd" clip-rule="evenodd" d="M348.027 453.149C303.157 439.556 278.334 389.411 288.263 356.532C295.43 332.84 327.068 318.137 348.948 324.753C397.872 339.636 412.215 403.003 403.207 432.58C396.221 455.901 369.737 459.574 348.027 453.149Z" fill="#C8002D"/>
<path d="M452.311 440.107L370.287 442.859C364.032 442.859 351.53 437.905 351.711 431.839L368.446 348.454C368.626 342.569 357.966 335.222 363.851 335.222L438.519 332.65C441.271 332.65 443.663 334.672 444.034 337.424L452.862 420.449L456.535 435.513C456.905 437.905 454.884 440.107 452.311 440.107Z" fill="#EC1D2C"/>
<path d="M370.287 442.859L343.433 448.004C341.601 448.004 345.455 439.186 345.825 431.84C346.926 413.843 347.477 366.08 347.477 344.22C347.477 338.716 352.081 334.302 357.596 334.672L368.446 335.222C369.917 335.222 371.018 336.323 371.208 337.615C371.208 337.615 370.658 369.393 371.939 423.212C372.119 428.166 374.331 433.311 374.511 438.636C374.701 440.838 372.86 442.859 370.287 442.859Z" fill="#9A1919"/>
<path fill-rule="evenodd" clip-rule="evenodd" d="M403.567 388.12C410.013 387.94 414.427 382.064 414.237 377.29C414.057 373.797 410.744 372.326 407.621 372.506C400.445 372.696 396.761 379.122 396.951 383.346C396.951 386.659 400.445 388.12 403.567 388.12ZM431.893 376.74C432.083 381.514 427.669 387.389 421.233 387.579C418.1 387.579 414.607 386.288 414.607 382.795C414.427 378.571 418.291 372.146 425.277 371.955C428.4 371.775 431.713 373.247 431.893 376.74ZM408.722 403.554C414.427 403.734 419.762 401.902 423.615 398.409L425.277 402.823L427.299 391.433L416.449 391.613L420.122 394.185C416.999 397.308 411.114 399.7 406.15 399.33C401.185 398.96 397.132 395.657 395.3 392.164H394.93C396.401 397.859 401.546 403.184 408.722 403.554Z" fill="white"/>
<path fill-rule="evenodd" clip-rule="evenodd" d="M410.373 433.311C412.395 438.635 396.581 441.938 393.458 442.859C393.829 443.23 406.33 440.657 406.52 440.837C409.823 441.938 394.749 459.945 374.881 459.204C374.141 459.204 360.719 458.653 360.719 458.653L343.433 442.489C343.433 442.489 366.054 431.479 367.705 430.738C380.036 424.673 387.203 423.942 390.886 424.313C393.829 424.683 391.617 428.717 389.595 429.817C382.058 434.041 383.709 434.592 384.26 434.962C390.696 436.063 408.352 427.986 410.373 433.311Z" fill="#AF709E"/>
<path d="M281.087 371.045C281.277 370.854 281.277 370.494 281.457 370.304C296.541 330.078 324.486 342.749 324.486 342.749C336.997 347.533 334.425 379.302 326.328 389.962L314.197 408.879C313.086 410.53 313.276 412.742 314.377 414.394C319.712 421.921 338.278 437.164 358.697 433.671C361.64 433.131 364.212 435.513 364.212 438.455C364.212 443.96 362.741 451.127 361.64 455.351C361.089 457.192 359.618 458.654 357.596 459.024C343.063 461.046 306.099 465.27 281.277 450.767C246.876 430.738 278.334 375.819 281.087 371.045Z" fill="#AF709E"/>
<path fill-rule="evenodd" clip-rule="evenodd" d="M352.992 304.545C356.125 306.386 360.168 308.038 363.481 307.858L360.719 320.709L351.34 306.206C350.419 305.285 351.711 303.994 352.992 304.545Z" fill="#77486F"/>
<path fill-rule="evenodd" clip-rule="evenodd" d="M448.818 444.701C449.188 446.713 447.897 453.879 441.642 449.655C438.699 447.634 430.792 439.366 430.792 439.366C430.792 439.366 426.558 434.412 431.893 432.21C436.307 430.368 442.012 436.804 442.012 436.804L448.818 444.701Z" fill="#AF709E"/>
<path fill-rule="evenodd" clip-rule="evenodd" d="M439.8 435.513C439.8 435.513 450.84 447.083 454.513 446.533C457.086 446.172 459.478 443.42 458.567 441.208C457.276 437.905 449.188 430.738 449.188 430.738L449.369 430.919C447.527 429.087 444.404 428.166 442.382 428.536C439.99 428.897 438.148 431.109 439.99 435.883L439.8 435.513Z" fill="#AF709E"/>
<path fill-rule="evenodd" clip-rule="evenodd" d="M446.976 429.818C446.976 429.818 458.006 441.388 461.69 440.838C464.262 440.477 466.654 437.715 465.733 435.513C464.452 432.21 456.355 425.043 456.355 425.043L456.535 425.223C454.703 423.392 451.571 422.471 449.549 422.841C447.157 423.202 445.315 425.414 447.157 430.188L446.976 429.818Z" fill="#AF709E"/>
<path fill-rule="evenodd" clip-rule="evenodd" d="M439.51 433.671C439.72 433.501 440.02 433.541 440.18 433.751L439.8 434.041L439.43 434.342C439.259 434.132 439.3 433.831 439.51 433.671ZM439.8 434.041L439.43 434.342L439.49 434.422L439.66 434.642C439.82 434.832 440.04 435.112 440.32 435.463C440.871 436.163 441.662 437.134 442.562 438.235C444.354 440.417 446.616 443.09 448.468 445.031C448.648 445.221 448.958 445.232 449.148 445.041C449.339 444.861 449.349 444.561 449.158 444.371C447.337 442.449 445.095 439.797 443.303 437.625C442.412 436.534 441.632 435.563 441.071 434.862C440.791 434.522 440.571 434.242 440.421 434.041L440.24 433.821L440.18 433.751L439.8 434.041Z" fill="#89567E"/>
<path fill-rule="evenodd" clip-rule="evenodd" d="M402.867 447.734C403.017 447.954 402.957 448.254 402.737 448.404C400.995 449.565 398.293 450.316 396.081 450.766C394.97 451.007 393.959 451.167 393.228 451.267C392.858 451.317 392.567 451.357 392.357 451.387C392.257 451.397 392.177 451.407 392.117 451.407L392.057 451.417H392.037C392.037 451.417 392.037 451.417 391.987 450.947L392.037 451.417C391.777 451.447 391.536 451.257 391.506 450.997C391.476 450.726 391.677 450.496 391.937 450.466H391.957L392.017 450.456C392.067 450.456 392.147 450.446 392.247 450.426C392.447 450.406 392.728 450.366 393.088 450.316C393.808 450.216 394.799 450.056 395.89 449.836C398.092 449.375 400.625 448.655 402.196 447.604C402.426 447.453 402.727 447.514 402.867 447.734Z" fill="#89567E"/>
<path fill-rule="evenodd" clip-rule="evenodd" d="M446.606 429.517C446.776 429.307 447.077 429.277 447.277 429.447L446.976 429.818L446.666 430.188C446.466 430.018 446.436 429.727 446.606 429.517ZM446.976 429.818L446.666 430.188L446.746 430.258L446.986 430.448C447.187 430.618 447.477 430.858 447.847 431.169C448.578 431.769 449.579 432.62 450.71 433.581C452.962 435.513 455.664 437.895 457.486 439.706C457.676 439.897 457.976 439.897 458.167 439.706C458.357 439.526 458.357 439.216 458.167 439.026C456.315 437.184 453.582 434.782 451.34 432.85C450.209 431.889 449.188 431.039 448.458 430.428C448.097 430.118 447.797 429.878 447.597 429.707L447.367 429.517L447.277 429.447L446.976 429.818Z" fill="#89567E"/>
<path fill-rule="evenodd" clip-rule="evenodd" d="M458.567 426.885L454.333 413.293C454.333 413.293 451.571 409.059 451.39 414.574L453.042 426.885H458.567Z" fill="#AF709E"/>
<path fill-rule="evenodd" clip-rule="evenodd" d="M425.507 341.818C426.538 342.049 427.179 343.069 426.938 344.09C424.526 354.71 421.464 361.616 418.02 365.54C416.279 367.521 414.367 368.823 412.325 369.363C410.253 369.914 408.232 369.653 406.38 368.823C402.777 367.201 399.784 363.418 397.672 359.004C395.53 354.53 394.139 349.095 393.949 343.74C393.919 342.699 394.729 341.818 395.78 341.778C396.831 341.738 397.712 342.559 397.742 343.61C397.922 348.444 399.183 353.359 401.095 357.372C403.047 361.446 405.519 364.279 407.941 365.36C409.092 365.88 410.223 366 411.334 365.7C412.475 365.4 413.777 364.619 415.158 363.037C417.98 359.825 420.873 353.669 423.235 343.25C423.475 342.229 424.486 341.588 425.507 341.818Z" fill="#78252B"/>
<path fill-rule="evenodd" clip-rule="evenodd" d="M361.279 269.523C357.035 269.523 353.612 272.946 353.612 277.18C353.612 281.404 357.035 284.837 361.279 284.837C365.503 284.837 368.936 281.404 368.936 277.18C368.936 272.946 365.503 269.523 361.279 269.523ZM349.809 277.18C349.809 270.854 354.943 265.729 361.279 265.729C367.605 265.729 372.729 270.854 372.729 277.18C372.729 283.506 367.605 288.63 361.279 288.63C354.943 288.63 349.809 283.506 349.809 277.18Z" fill="white"/>
<path fill-rule="evenodd" clip-rule="evenodd" d="M382.428 269.523C378.184 269.523 374.761 272.946 374.761 277.18C374.761 281.404 378.184 284.837 382.428 284.837C386.652 284.837 390.085 281.404 390.085 277.18C390.085 272.946 386.652 269.523 382.428 269.523ZM370.958 277.18C370.958 270.854 376.093 265.729 382.428 265.729C388.754 265.729 393.889 270.854 393.889 277.18C393.889 283.506 388.754 288.63 382.428 288.63C376.093 288.63 370.958 283.506 370.958 277.18Z" fill="white"/>
<path fill-rule="evenodd" clip-rule="evenodd" d="M483.76 18.1864C473.09 18.1864 463.341 21.8597 455.624 27.9252C448.628 11.5704 432.263 0 413.316 0C392.167 0 374.141 14.3229 368.816 33.8005C356.865 40.5966 348.948 53.4482 348.948 68.1414C348.948 89.4507 365.873 106.906 387.202 107.637C387.393 107.637 387.573 107.637 387.573 107.637C387.573 107.637 482.098 107.817 483.76 107.817C508.582 107.817 528.81 87.619 528.81 62.8166C528.81 38.2044 508.582 18.1864 483.76 18.1864Z" fill="white"/>
<path fill-rule="evenodd" clip-rule="evenodd" d="M72.3487 189.01C69.2259 189.01 66.4634 190.111 64.2614 191.763C62.2396 186.989 57.6354 183.866 52.1205 183.866C46.055 183.866 40.9003 187.909 39.429 193.604C35.9359 195.626 33.7339 199.3 33.7339 203.523C33.7339 209.579 38.5082 214.724 44.7638 214.914C44.7638 214.914 44.7638 214.914 44.944 214.914C44.944 214.914 71.9784 214.914 72.5389 214.914C79.7053 214.914 85.4105 209.219 85.4105 202.052C85.2203 194.705 79.5252 189.01 72.3487 189.01Z" fill="white"/>
</g>
<defs>
<clipPath id="clip0_508_3">
<rect width="802" height="743" fill="white"/>
</clipPath>
</defs>
</svg>
