<svg width="14" height="11" viewBox="0 0 14 11" fill="none" xmlns="http://www.w3.org/2000/svg">
<g clip-path="url(#clip0_204_254)">
<path fill-rule="evenodd" clip-rule="evenodd" d="M2.13293 5.16218C1.97676 5.01631 1.76626 4.9356 1.54772 4.93781C1.32919 4.94002 1.12052 5.02497 0.967632 5.17396C0.814743 5.32296 0.730152 5.52379 0.732468 5.73229C0.734785 5.94079 0.823819 6.13988 0.979985 6.28575L5.2294 10.285L13.7694 1.85432C13.8446 1.78003 13.9037 1.69234 13.9433 1.59626C13.9829 1.50018 14.0024 1.3976 14.0004 1.29436C13.9985 1.19112 13.9753 1.08925 13.9322 0.994567C13.889 0.899885 13.8267 0.814243 13.7488 0.742532C13.6709 0.670821 13.579 0.614445 13.4783 0.576622C13.3776 0.5388 13.2701 0.520271 13.1619 0.522095C13.0537 0.523919 12.9469 0.54606 12.8477 0.587253C12.7484 0.628446 12.6587 0.687884 12.5835 0.762175L5.20469 8.0536L2.13293 5.16218Z" fill="#50A773"/>
</g>
<defs>
<clipPath id="clip0_204_254">
<rect width="14" height="11" fill="white"/>
</clipPath>
</defs>
</svg>
