<svg width="32" height="32" viewBox="0 0 32 32" fill="none" xmlns="http://www.w3.org/2000/svg">
<path d="M10.3971 8.80107C9.9558 8.35977 9.24032 8.35977 8.79903 8.80107C8.35774 9.24236 8.35774 9.95784 8.79903 10.3991L21.5977 23.1978C22.039 23.6391 22.7544 23.6391 23.1957 23.1978C23.637 22.7565 23.637 22.041 23.1957 21.5997L10.3971 8.80107Z" fill="#757575"/>
<path d="M23.1955 10.3971C23.6368 9.9558 23.6368 9.24032 23.1955 8.79903C22.7542 8.35774 22.0387 8.35774 21.5975 8.79903L8.79882 21.5977C8.35753 22.039 8.35753 22.7544 8.79882 23.1957C9.24011 23.637 9.95559 23.637 10.3969 23.1957L23.1955 10.3971Z" fill="#757575"/>
</svg>
