<svg width="10" height="10" viewBox="0 0 10 10" fill="none" xmlns="http://www.w3.org/2000/svg">
<g clip-path="url(#clip0_204_270)">
<path d="M5.4833 0.313972L6.6113 2.70397C6.6483 2.78464 6.70461 2.85494 6.77525 2.90866C6.84589 2.96238 6.92868 2.99787 7.0163 3.01197L9.5383 3.39497C9.9803 3.46197 10.1563 4.02997 9.8373 4.35497L8.0123 6.21497C7.94923 6.28022 7.90234 6.35936 7.87542 6.44603C7.8485 6.5327 7.8423 6.62447 7.8573 6.71397L8.2873 9.33997C8.3633 9.79997 7.9013 10.151 7.5073 9.93397L5.2503 8.69397C5.17348 8.65142 5.08711 8.6291 4.9993 8.6291C4.91149 8.6291 4.82512 8.65142 4.7483 8.69397L2.4933 9.93397C2.0983 10.151 1.6363 9.79997 1.7113 9.33997L2.1423 6.71397C2.1573 6.62447 2.1511 6.5327 2.12418 6.44603C2.09726 6.35936 2.05037 6.28022 1.9873 6.21497L0.1633 4.35497C-0.1567 4.02897 0.0203 3.46197 0.4623 3.39497L2.9843 3.01197C3.07192 2.99787 3.15471 2.96238 3.22535 2.90866C3.29599 2.85494 3.3523 2.78464 3.3893 2.70397L4.5173 0.313972C4.55865 0.220348 4.62631 0.140758 4.71206 0.0848854C4.79781 0.0290132 4.89795 -0.000732422 5.0003 -0.000732422C5.10265 -0.000732422 5.20279 0.0290132 5.28854 0.0848854C5.37429 0.140758 5.44195 0.220348 5.4833 0.313972Z" fill="#E7A74E"/>
</g>
<defs>
<clipPath id="clip0_204_270">
<rect width="10" height="10" fill="white"/>
</clipPath>
</defs>
</svg>
