<svg width="16" height="16" viewBox="0 0 16 16" fill="none" xmlns="http://www.w3.org/2000/svg">
<path d="M12.9997 13.3335L11.9997 14.3335V13.3335H12.9997ZM4.33301 14.3335L3.33301 13.3335H4.33301V14.3335ZM11.9997 7.3335H12.9997V14.3335H3.33301V7.3335H4.33301V13.3335H11.9997V7.3335ZM4.33301 14.3335L3.33301 13.3335H4.33301V14.3335ZM12.9997 13.3335L11.9997 14.3335V13.3335H12.9997ZM4.33301 13.3335H11.9997V7.3335H12.9997V14.3335H3.33301V7.3335H4.33301V13.3335Z" fill="#3F3E3E"/>
<path d="M13.166 13.3335H3.16602C2.88987 13.3335 2.66602 13.5574 2.66602 13.8335C2.66602 14.1096 2.88987 14.3335 3.16602 14.3335H13.166C13.4422 14.3335 13.666 14.1096 13.666 13.8335C13.666 13.5574 13.4422 13.3335 13.166 13.3335Z" fill="#3F3E3E"/>
<path d="M10.4997 11H5.83301C5.55687 11 5.33301 11.2239 5.33301 11.5C5.33301 11.7761 5.55687 12 5.83301 12H10.4997C10.7758 12 10.9997 11.7761 10.9997 11.5C10.9997 11.2239 10.7758 11 10.4997 11Z" fill="#3F3E3E"/>
<path d="M5.94559 2.66675H3.81459L3.17626 5.76742C3.14553 5.91654 3.14839 6.07064 3.18463 6.21853C3.22087 6.36642 3.28958 6.50438 3.38577 6.62241C3.48197 6.74043 3.60323 6.83556 3.74077 6.90089C3.87831 6.96621 4.02866 7.0001 4.18092 7.00008C4.5957 7.00006 4.99466 6.84091 5.29557 6.55545C5.59648 6.26998 5.7764 5.87995 5.79826 5.46575L5.94559 2.66675ZM2.99959 1.66675H6.99959L6.79692 5.51808C6.76167 6.18809 6.47068 6.81904 5.98395 7.28083C5.49722 7.74263 4.85186 8.00007 4.18092 8.00008C3.88024 8.00008 3.58333 7.93314 3.31174 7.80412C3.04014 7.6751 2.80068 7.48723 2.61072 7.25416C2.42076 7.02108 2.28507 6.74864 2.2135 6.4566C2.14193 6.16456 2.13626 5.86025 2.19692 5.56575L2.99959 1.66675Z" fill="#3F3E3E"/>
<path d="M6.79595 5.55608C6.78588 5.74222 6.81386 5.92846 6.87816 6.10342C6.94247 6.27839 7.04175 6.43842 7.16996 6.57374C7.29816 6.70906 7.4526 6.81684 7.62384 6.89049C7.79508 6.96415 7.97954 7.00214 8.16595 7.00214C8.35236 7.00214 8.53681 6.96415 8.70805 6.89049C8.87929 6.81684 9.03373 6.70906 9.16193 6.57374C9.29014 6.43842 9.38942 6.27839 9.45373 6.10342C9.51803 5.92846 9.54601 5.74222 9.53595 5.55608L9.38395 2.66675H6.94795L6.79595 5.55608ZM5.99928 1.66675H10.3326L10.5346 5.50341C10.5517 5.82504 10.5031 6.14678 10.3917 6.44901C10.2804 6.75124 10.1087 7.02763 9.88707 7.26133C9.66544 7.49503 9.39854 7.68115 9.10264 7.80834C8.80673 7.93553 8.48803 8.00112 8.16595 8.00112C7.84386 8.00112 7.52516 7.93553 7.22925 7.80834C6.93335 7.68115 6.66645 7.49503 6.44482 7.26133C6.22319 7.02763 6.05148 6.75124 5.94015 6.44901C5.82882 6.14678 5.78021 5.82504 5.79728 5.50341L5.99928 1.66675Z" fill="#3F3E3E"/>
<path d="M10.5337 5.45108C10.5557 5.86923 10.7373 6.26299 11.0411 6.55119C11.3449 6.83939 11.7476 7.00006 12.1663 7.00008C12.3194 7.00014 12.4706 6.96604 12.6088 6.90024C12.747 6.83445 12.8688 6.73863 12.9652 6.61978C13.0617 6.50093 13.1304 6.36204 13.1663 6.21325C13.2023 6.06447 13.2046 5.90953 13.173 5.75975L12.5213 2.66675H10.3867L10.5333 5.45108H10.5337ZM9.33301 1.66675H13.333L14.1513 5.55342C14.2136 5.84881 14.2091 6.15439 14.1383 6.44784C14.0674 6.7413 13.932 7.01523 13.7418 7.24967C13.5516 7.48411 13.3114 7.67313 13.0389 7.80295C12.7663 7.93278 12.4682 8.00012 12.1663 8.00008C11.4915 8.00007 10.8423 7.74111 10.3527 7.27658C9.86312 6.81205 9.57044 6.17738 9.53501 5.50342L9.33301 1.66675Z" fill="#3F3E3E"/>
</svg>
