<svg width="15" height="14" viewBox="0 0 15 14" fill="none" xmlns="http://www.w3.org/2000/svg">
<path fill-rule="evenodd" clip-rule="evenodd" d="M8.66211 5.993H13.6661C14.2233 5.993 14.6753 6.437 14.6753 6.993C14.6753 7.545 14.2243 7.993 13.6661 7.993H8.66211V12.986C8.66211 13.2512 8.55652 13.5056 8.36857 13.6931C8.18062 13.8806 7.92571 13.986 7.65991 13.986C7.39411 13.986 7.1392 13.8806 6.95125 13.6931C6.7633 13.5056 6.65771 13.2512 6.65771 12.986V7.993H1.65374C1.52158 7.99379 1.39056 7.96851 1.26822 7.91862C1.14588 7.86873 1.03462 7.79522 0.940839 7.70229C0.847059 7.60937 0.772605 7.49887 0.721755 7.37715C0.670905 7.25542 0.644661 7.12487 0.644531 6.993C0.644531 6.441 1.09552 5.993 1.65374 5.993H6.65771V0.999999C6.65771 0.734783 6.7633 0.48043 6.95125 0.292893C7.1392 0.105357 7.39411 0 7.65991 0C7.92571 0 8.18062 0.105357 8.36857 0.292893C8.55652 0.48043 8.66211 0.734783 8.66211 0.999999V5.993Z" fill="#EA1D2C"/>
</svg>
