<svg width="16" height="16" viewBox="0 0 16 16" fill="none" xmlns="http://www.w3.org/2000/svg">
<g clip-path="url(#clip0_204_257)">
<path d="M11.7447 7.04602L10.0622 8.68975C10.0382 8.71312 10.0202 8.74196 10.0098 8.77378C9.99942 8.80561 9.99689 8.83948 10.0024 8.87251L10.3999 11.1936C10.4065 11.2316 10.4024 11.2708 10.3879 11.3066C10.3735 11.3424 10.3493 11.3734 10.3181 11.3962C10.287 11.419 10.2501 11.4327 10.2115 11.4356C10.173 11.4386 10.1345 11.4307 10.1002 11.4129L8.02021 10.3161C7.99053 10.3005 7.95753 10.2924 7.92403 10.2924C7.89053 10.2924 7.85753 10.3005 7.82785 10.3161L5.74785 11.4129C5.71358 11.4307 5.67502 11.4386 5.63651 11.4356C5.59801 11.4327 5.5611 11.419 5.52994 11.3962C5.49878 11.3734 5.4746 11.3424 5.46015 11.3066C5.44569 11.2708 5.44153 11.2316 5.44812 11.1936L5.84563 8.87251C5.85118 8.83948 5.84864 8.80561 5.83824 8.77378C5.82783 8.74196 5.80988 8.71312 5.7859 8.68975L4.10376 7.04637C4.07612 7.01939 4.05656 6.98523 4.0473 6.94773C4.03803 6.91022 4.03943 6.87088 4.05134 6.83413C4.06324 6.79738 4.08518 6.76469 4.11467 6.73975C4.14416 6.7148 4.18004 6.69859 4.21825 6.69295L6.54288 6.3541C6.57617 6.34936 6.6078 6.33654 6.635 6.31677C6.66221 6.29701 6.68417 6.27088 6.69896 6.24068L7.73897 4.12939C7.75621 4.09505 7.78267 4.06617 7.81538 4.04599C7.8481 4.02581 7.88577 4.01513 7.92421 4.01513C7.96264 4.01513 8.00032 4.02581 8.03304 4.04599C8.06575 4.06617 8.09221 4.09505 8.10945 4.12939L9.1491 6.24068C9.16398 6.27089 9.18601 6.29701 9.21327 6.31678C9.24053 6.33654 9.27221 6.34936 9.30554 6.3541L11.6302 6.69295C11.6684 6.69859 11.7043 6.7148 11.7337 6.73975C11.7632 6.76469 11.7852 6.79738 11.7971 6.83413C11.809 6.87088 11.8104 6.91022 11.8011 6.94773C11.7919 6.98523 11.7723 7.01939 11.7447 7.04637V7.04602ZM15.6334 7.14415V7.13917C15.0446 6.09206 14.9045 6.00068 14.9045 5.73722V4.74237C14.9045 3.49544 13.6501 3.20282 13.2135 2.85793C12.9795 2.71535 12.9991 2.59944 12.46 1.72299C11.8236 0.657394 10.6133 1.02788 10.1183 0.954993C9.8467 0.954993 9.75888 0.808505 8.70928 0.219705C7.3635 -0.550784 6.42945 0.954993 5.72972 0.954993H4.73416C3.49043 0.954993 3.18928 2.21046 2.85399 2.63962C2.72848 2.85899 2.57736 2.86895 1.71194 3.39908C0.623231 4.05259 1.01221 5.28353 0.943942 5.73722C0.943942 6.38788 -0.54228 7.43677 0.215053 8.71677C1.25576 10.5671 0.848653 9.47233 0.943942 11.1182C0.943942 12.5443 2.58696 12.715 2.84936 13.216C3.20385 13.6682 3.48083 14.9056 4.73025 14.9056C5.65292 14.9301 5.77381 14.8533 6.02732 14.9838C7.03781 15.5491 7.20741 15.7674 7.69381 15.8311C8.47141 15.9285 8.73345 15.5932 9.8211 14.9898C10.06 14.8533 10.172 14.9312 11.1182 14.9056C12.5564 14.9056 12.6933 13.2942 13.2088 13.0065C13.6561 12.6517 14.9031 12.3641 14.9031 11.1168C14.9276 10.1781 14.8508 10.0661 14.9873 9.82717L15.6334 8.71784C15.774 8.47967 15.8482 8.20813 15.8482 7.93153C15.8482 7.65493 15.774 7.38339 15.6334 7.14522" fill="#E0040B"/>
</g>
<defs>
<clipPath id="clip0_204_257">
<rect width="16" height="16" fill="white"/>
</clipPath>
</defs>
</svg>
